SplineFontDB: 3.2
FontName: vianaic6
FullName: vianaic6
FamilyName: vianaic6
Weight: Medium
Copyright: PaulRouget
Version: 001.000
ItalicAngle: 0
UnderlinePosition: -150
UnderlineWidth: 50
Ascent: 741
Descent: 259
InvalidEm: 0
sfntRevision: 0x00010000
LayerCount: 2
Layer: 0 1 "Back" 1
Layer: 1 1 "Fore" 0
XUID: [1021 33 57699371 494371]
StyleMap: 0x0040
FSType: 0
OS2Version: 2
OS2_WeightWidthSlopeOnly: 0
OS2_UseTypoMetrics: 0
CreationTime: 1280473793
ModificationTime: 1759086812
PfmFamily: 17
TTFWeight: 500
TTFWidth: 5
LineGap: 90
VLineGap: 0
Panose: 2 0 6 3 0 0 0 0 0 0
OS2TypoAscent: 741
OS2TypoAOffset: 0
OS2TypoDescent: -259
OS2TypoDOffset: 0
OS2TypoLinegap: 90
OS2WinAscent: 831
OS2WinAOffset: 0
OS2WinDescent: 366
OS2WinDOffset: 0
HheadAscent: 831
HheadAOffset: 0
HheadDescent: -375
HheadDOffset: 0
OS2SubXSize: 650
OS2SubYSize: 699
OS2SubXOff: 0
OS2SubYOff: 140
OS2SupXSize: 650
OS2SupYSize: 699
OS2SupXOff: 0
OS2SupYOff: 479
OS2StrikeYSize: 49
OS2StrikeYPos: 258
OS2Vendor: '2ttf'
OS2CodePages: 00000001.00000000
OS2UnicodeRanges: 00000003.00010002.00000000.00000000
MarkAttachClasses: 1
DEI: 91125
ShortTable: maxp 16
  1
  0
  70
  188
  3
  0
  0
  2
  0
  1
  1
  0
  64
  0
  0
  0
EndShort
LangName: 1033
GaspTable: 1 65535 2 0
Encoding: UnicodeBmp
UnicodeInterp: none
NameList: AGL For New Fonts
DisplaySize: -48
AntiAlias: 1
FitToEm: 0
WinInfo: 0 19 10
BeginPrivate: 0
EndPrivate
BeginChars: 65539 109

StartChar: .notdef
Encoding: 65536 -1 0
Width: 500
GlyphClass: 1
Flags: W
LayerCount: 2
Fore
SplineSet
100 50 m 1,0,-1
 400 50 l 1,1,-1
 400 444 l 1,2,-1
 100 444 l 1,3,-1
 100 50 l 1,0,-1
50 0 m 1,4,-1
 50 494 l 1,5,-1
 450 494 l 1,6,-1
 450 0 l 1,7,-1
 50 0 l 1,4,-1
EndSplineSet
Validated: 1
EndChar

StartChar: exclam
Encoding: 33 33 4
Width: 569
VWidth: 2048
GlyphClass: 2
Flags: W
LayerCount: 2
Fore
SplineSet
269.993164062 104.880859375 m 5,0,-1
 250.688476562 377.607421875 l 5,1,-1
 250.688476562 491.68359375 l 5,2,-1
 328.961914062 491.68359375 l 5,3,-1
 328.961914062 377.607421875 l 5,4,-1
 310.709960938 104.880859375 l 5,5,-1
 269.993164062 104.880859375 l 5,0,-1
253.497070312 -22.8828125 m 5,6,-1
 253.497070312 49.072265625 l 5,7,-1
 326.153320312 49.072265625 l 5,8,-1
 326.153320312 -22.8828125 l 5,9,-1
 253.497070312 -22.8828125 l 5,6,-1
EndSplineSet
Validated: 524289
EndChar

StartChar: zero
Encoding: 48 48 5
Width: 493
GlyphClass: 2
Flags: W
LayerCount: 2
Fore
SplineSet
145 286 m 1,0,1
 158 286 158 286 180 281 c 0,2,3
 186 279 186 279 200 275 c 0,4,5
 206 274 206 274 211 271 c 2,6,-1
 220 268 l 1,7,-1
 226 266 l 1,8,-1
 237 266 l 1,9,-1
 260 265 l 2,10,11
 268 264 268 264 280 264 c 0,12,13
 294 263 294 263 313 263 c 0,14,15
 338 264 338 264 346 270 c 0,16,17
 361 281 361 281 365 359 c 0,18,19
 365 373 365 373 372 409 c 2,20,-1
 374 417 l 2,21,22
 380 453 380 453 378 467 c 2,23,-1
 378 468 l 2,24,25
 375 471 375 471 367 474 c 0,26,27
 351 481 351 481 319 487 c 0,28,29
 256 496 256 496 219 493 c 2,30,-1
 213 493 l 2,31,32
 211 493 211 493 207.5 492.5 c 128,-1,33
 204 492 204 492 202 492 c 0,34,35
 191 492 191 492 185 491 c 2,36,-1
 157 491 l 2,37,38
 155 491 155 491 151.5 491.5 c 128,-1,39
 148 492 148 492 146 493 c 1,40,41
 150 456 150 456 149 406 c 0,42,43
 149 401 149 401 147 353 c 0,44,45
 145 316 145 316 145 288 c 2,46,-1
 145 286 l 1,0,1
205 226 m 0,47,48
 198 228 198 228 196 229 c 128,-1,49
 194 230 194 230 191 231 c 128,-1,50
 188 232 188 232 186 232 c 0,51,52
 174 236 174 236 169 237 c 0,53,54
 153 241 153 241 149 241 c 1,55,-1
 149 239 l 2,56,57
 149 222 149 222 133 217 c 1,58,-1
 127 217 l 2,59,60
 110 217 110 217 105 233 c 0,61,62
 100 250 100 250 100 288 c 0,63,64
 100 317 100 317 102 355 c 0,65,66
 104 403 104 403 104 407 c 0,67,68
 105 466 105 466 98 505 c 0,69,70
 96 514 96 514 101.5 522 c 128,-1,71
 107 530 107 530 116 531 c 0,72,73
 124 532 124 532 131 529 c 1,74,-1
 133 531 l 2,75,76
 137 535 137 535 139 536 c 0,77,78
 152 544 152 544 164 536 c 1,79,-1
 184 536 l 2,80,81
 186 536 186 536 191 536.5 c 128,-1,82
 196 537 196 537 199 537 c 0,83,84
 207 537 207 537 210 538 c 2,85,-1
 216 538 l 2,86,87
 261 541 261 541 326 531 c 0,88,89
 364 524 364 524 384 515 c 0,90,91
 401 508 401 508 408 501 c 0,92,93
 420 490 420 490 422 475 c 0,94,95
 426 453 426 453 418 409 c 0,96,97
 417 408 417 408 416.5 405 c 128,-1,98
 416 402 416 402 416 400 c 0,99,100
 410 366 410 366 410 357 c 0,101,102
 407 301 407 301 401 280 c 0,103,104
 392 245 392 245 370 232 c 0,105,106
 350 219 350 219 314 218 c 0,107,108
 293 218 293 218 278 219 c 0,109,110
 266 219 266 219 258 220 c 0,111,112
 240 221 240 221 235 221 c 0,113,114
 226 221 226 221 222 222 c 0,115,116
 216 222 216 222 205 226 c 0,47,48
EndSplineSet
Validated: 33
EndChar

StartChar: one
Encoding: 49 49 6
Width: 1109
GlyphClass: 2
Flags: W
LayerCount: 2
Fore
SplineSet
597 492 m 1,0,-1
 631 509 l 2,1,2
 682 532 682 532 734 546 c 0,3,4
 796 561 796 561 856 553 c 0,5,6
 924 544 924 544 979 501 c 0,7,8
 1020 469 1020 469 1034 407 c 0,9,10
 1046 354 1046 354 1035 290 c 0,11,12
 1024 228 1024 228 995.5 175 c 128,-1,13
 967 122 967 122 931 96 c 0,14,15
 876 57 876 57 778 52 c 0,16,17
 693 49 693 49 626 71 c 0,18,19
 617 74 617 74 613 82.5 c 128,-1,20
 609 91 609 91 611 100 c 0,21,22
 618 121 618 121 640 114 c 0,23,24
 702 94 702 94 777 97 c 0,25,26
 860 100 860 100 904 132 c 0,27,28
 933 153 933 153 957 198.5 c 128,-1,29
 981 244 981 244 990 297 c 0,30,31
 1000 354 1000 354 989.5 398.5 c 128,-1,32
 979 443 979 443 951 465 c 0,33,34
 905 501 905 501 850 508 c 0,35,36
 800 516 800 516 744 502 c 0,37,38
 696 490 696 490 650 468 c 0,39,40
 624 456 624 456 590 438 c 0,41,42
 579 431 579 431 571 427 c 0,43,44
 569 426 569 426 566 424.5 c 128,-1,45
 563 423 563 423 562 423 c 128,-1,46
 561 423 561 423 559.5 422.5 c 128,-1,47
 558 422 558 422 557 422 c 0,48,49
 552 421 552 421 546 422 c 0,50,51
 530 427 530 427 527 441 c 0,52,53
 524 452 524 452 529 461 c 0,54,55
 530 462 530 462 533.5 467 c 128,-1,56
 537 472 537 472 540 476 c 0,57,58
 541 476 541 476 541 477 c 2,59,-1
 545 481 l 2,60,61
 545 482 545 482 546 483 c 0,62,63
 568 537 568 537 559 573 c 0,64,65
 550 615 550 615 500 625 c 0,66,67
 406 645 406 645 322 567 c 0,68,69
 258 511 258 511 219 417 c 1,70,71
 285 425 285 425 338 420 c 0,72,73
 428 414 428 414 486 374 c 0,74,75
 558 322 558 322 558 229 c 2,76,-1
 558 223 l 1,77,-1
 558 209 l 2,78,79
 558 160 558 160 551 128 c 0,80,81
 538 80 538 80 509 51 c 0,82,83
 475 17 475 17 418.5 2 c 128,-1,84
 362 -13 362 -13 314 -2 c 0,85,86
 189 25 189 25 151 149 c 0,87,88
 125 234 125 234 147 338 c 1,89,90
 138 338 138 338 134 339 c 0,91,92
 123 341 123 341 116 349 c 0,93,94
 106 359 106 359 110 375 c 0,95,96
 112 383 112 383 118 388 c 0,97,98
 120 390 120 390 126 394 c 0,99,100
 128 395 128 395 144 402 c 0,101,102
 152 405 152 405 167 408 c 1,103,104
 209 527 209 527 291 601 c 0,105,106
 393 692 393 692 509 670 c 0,107,108
 587 653 587 653 603 583 c 0,109,110
 611 543 611 543 597 492 c 1,0,-1
202 369 m 1,111,112
 166 253 166 253 194 162 c 0,113,114
 225 63 225 63 324 41 c 0,115,116
 361 33 361 33 406.5 45.5 c 128,-1,117
 452 58 452 58 477 83 c 0,118,119
 498 104 498 104 507 138 c 0,120,121
 513 166 513 166 513 209 c 2,122,-1
 513 223 l 1,123,-1
 513 229 l 2,124,125
 513 300 513 300 460 337 c 0,126,127
 414 368 414 368 334 376 c 0,128,129
 263 381 263 381 202 369 c 1,111,112
EndSplineSet
Validated: 33
EndChar

StartChar: two
Encoding: 50 50 7
Width: 837
GlyphClass: 2
Flags: W
LayerCount: 2
Fore
SplineSet
423 624 m 0,0,1
 376 646 376 646 307 586 c 0,2,3
 235 523 235 523 192 417 c 0,4,5
 146 302 146 302 169 211 c 0,6,7
 194 106 194 106 306 62 c 0,8,9
 356 41 356 41 434 80 c 0,10,11
 508 115 508 115 568 186 c 0,12,13
 625 254 625 254 627 309 c 0,14,15
 629 362 629 362 562 382 c 0,16,17
 503 399 503 399 458 370 c 0,18,19
 444 361 444 361 416 350 c 0,20,21
 413 347 413 347 409 347 c 2,22,-1
 403 344 l 2,23,24
 373 333 373 333 359 320 c 1,25,26
 332 279 332 279 330 257 c 0,27,28
 328 236 328 236 307 236 c 2,29,-1
 306 236 l 2,30,31
 285 238 285 238 285 259 c 2,32,-1
 285 260 l 1,33,34
 290 316 290 316 322 347 c 0,35,36
 324 349 324 349 324 350 c 0,37,38
 327 354 327 354 334 363.5 c 128,-1,39
 341 373 341 373 345 378 c 0,40,41
 393 444 393 444 469 520 c 0,42,43
 550 599 550 599 615 646 c 0,44,45
 694 705 694 705 741 712 c 0,46,47
 764 715 764 715 767 693 c 0,48,49
 768 684 768 684 763 677 c 128,-1,50
 758 670 758 670 749 668 c 0,51,52
 713 662 713 662 644.5 612 c 128,-1,53
 576 562 576 562 501 488 c 0,54,55
 456 444 456 444 419 400 c 1,56,57
 432 406 432 406 434 408 c 0,58,59
 498 448 498 448 574 425 c 0,60,61
 675 396 675 396 672 308 c 0,62,63
 671 238 671 238 602 157 c 0,64,65
 541 83 541 83 454 39 c 0,66,67
 359 -8 359 -8 289 20 c 0,68,69
 156 74 156 74 125 200 c 0,70,71
 99 307 99 307 150 433 c 0,72,73
 197 550 197 550 277 620 c 0,74,75
 369 699 369 699 442 665 c 0,76,77
 462 655 462 655 453 635 c 0,78,79
 449 626 449 626 440 623 c 128,-1,80
 431 620 431 620 423 624 c 0,0,1
EndSplineSet
Validated: 33
EndChar

StartChar: three
Encoding: 51 51 8
Width: 978
GlyphClass: 2
Flags: W
LayerCount: 2
Fore
SplineSet
372 638 m 0,0,1
 335 645 335 645 292 628 c 128,-1,2
 249 611 249 611 211 573 c 0,3,4
 173 536 173 536 152 492 c 128,-1,5
 131 448 131 448 133 410 c 0,6,7
 139 304 139 304 258 221 c 0,8,9
 310 186 310 186 371 165 c 128,-1,10
 432 144 432 144 485 143 c 2,11,-1
 487 143 l 1,12,13
 494 196 494 196 506 225 c 0,14,15
 510 234 510 234 519 237.5 c 128,-1,16
 528 241 528 241 536 237 c 128,-1,17
 544 233 544 233 548 224.5 c 128,-1,18
 552 216 552 216 548 207 c 0,19,20
 539 190 539 190 533 144 c 1,21,22
 622 152 622 152 706 195 c 128,-1,23
 790 238 790 238 833 298 c 0,24,25
 881 367 881 367 854 429 c 0,26,27
 821 506 821 506 685 558 c 0,28,29
 684 558 684 558 675.5 561.5 c 128,-1,30
 667 565 667 565 657 569 c 128,-1,31
 647 573 647 573 643 575 c 0,32,33
 634 578 634 578 620.5 583 c 128,-1,34
 607 588 607 588 605 589 c 0,35,36
 534 611 534 611 476 599 c 0,37,38
 467 597 467 597 459 602.5 c 128,-1,39
 451 608 451 608 450 617 c 0,40,41
 445 638 445 638 467 644 c 0,42,43
 538 658 538 658 618 631 c 0,44,45
 644 623 644 623 660 617 c 0,46,47
 664 615 664 615 674 611 c 128,-1,48
 684 607 684 607 692 604 c 2,49,-1
 701 600 l 1,50,51
 854 541 854 541 896 446 c 0,52,53
 932 362 932 362 869 272 c 0,54,55
 820 202 820 202 724 154 c 128,-1,56
 628 106 628 106 526 99 c 1,57,58
 525 89 525 89 521 52 c 0,59,60
 512 -58 512 -58 512 -119 c 0,61,62
 512 -128 512 -128 505.5 -134.5 c 128,-1,63
 499 -141 499 -141 490 -141 c 0,64,65
 480 -141 480 -141 473.5 -134.5 c 128,-1,66
 467 -128 467 -128 467 -119 c 0,67,68
 467 -47 467 -47 477 56 c 0,69,70
 479 84 479 84 481 98 c 1,71,72
 352 103 352 103 233 184 c 0,73,74
 95 278 95 278 88 407 c 0,75,76
 86 456 86 456 110.5 509 c 128,-1,77
 135 562 135 562 179 605 c 0,78,79
 279 701 279 701 380 683 c 0,80,81
 389 681 389 681 394.5 673 c 128,-1,82
 400 665 400 665 398 656 c 0,83,84
 397 647 397 647 389 641.5 c 128,-1,85
 381 636 381 636 372 638 c 0,0,1
EndSplineSet
Validated: 33
EndChar

StartChar: four
Encoding: 52 52 9
Width: 722
GlyphClass: 2
Flags: W
LayerCount: 2
Fore
SplineSet
471 618 m 1,0,1
 449 616 449 616 400 616 c 0,2,3
 394 616 394 616 370 617 c 128,-1,4
 346 618 346 618 324 619 c 0,5,6
 318 620 318 620 311 620 c 1,7,8
 276 540 276 540 233 509 c 0,9,10
 187 476 187 476 143 495 c 0,11,12
 103 511 103 511 92 555 c 0,13,14
 81 603 81 603 112 637 c 0,15,16
 117 642 117 642 122 645 c 2,17,-1
 123 646 l 2,18,19
 124 646 124 646 124 646.5 c 128,-1,20
 124 647 124 647 125 647 c 0,21,22
 133 654 133 654 136 655 c 128,-1,23
 139 656 139 656 149.5 659 c 128,-1,24
 160 662 160 662 162 663 c 0,25,26
 178 667 178 667 183 667 c 2,27,-1
 188 667 l 1,28,-1
 199 667 l 2,29,30
 224 668 224 668 299 666 c 0,31,32
 303 666 303 666 306.5 665.5 c 128,-1,33
 310 665 310 665 315.5 664.5 c 128,-1,34
 321 664 321 664 326 664 c 0,35,36
 347 663 347 663 370 662 c 128,-1,37
 393 661 393 661 400 661 c 0,38,39
 429 661 429 661 473 663 c 0,40,41
 499 666 499 666 522 672 c 1,42,43
 546 696 546 696 562 707 c 0,44,45
 582 723 582 723 600 731 c 0,46,47
 612 736 612 736 620 736 c 0,48,49
 634 736 634 736 644 727 c 0,50,51
 654 717 654 717 652 705 c 0,52,53
 652 696 652 696 646 690 c 0,54,55
 642 683 642 683 635 679 c 0,56,57
 597 648 597 648 546 633 c 1,58,59
 531 618 531 618 499 582 c 0,60,61
 372 432 372 432 324 276 c 0,62,63
 305 216 305 216 323 168 c 0,64,65
 336 132 336 132 385 69 c 0,66,67
 399 51 399 51 382 38 c 0,68,69
 365 24 365 24 350 41 c 0,70,71
 322 77 322 77 310 96 c 0,72,73
 289 129 289 129 281 153 c 0,74,75
 258 214 258 214 281 290 c 0,76,77
 332 455 332 455 465 611 c 0,78,79
 466 612 466 612 468 614.5 c 128,-1,80
 470 617 470 617 471 618 c 1,0,1
262 622 m 1,81,82
 229 623 229 623 201 622 c 2,83,-1
 187 622 l 1,84,-1
 184 622 l 1,85,-1
 183 622 l 2,86,87
 182 621 182 621 173 619 c 0,88,89
 171 619 171 619 170 618 c 0,90,91
 168 618 168 618 164 616 c 0,92,93
 162 616 162 616 160 615.5 c 128,-1,94
 158 615 158 615 157 615 c 2,95,-1
 156 614 l 1,96,-1
 154 613 l 2,97,98
 153 612 153 612 152 611 c 2,99,-1
 151 611 l 1,100,-1
 150 610 l 1,101,-1
 148 608 l 2,102,103
 146 607 146 607 145 607 c 1,104,-1
 145 606 l 1,105,106
 130 589 130 589 136 567 c 0,107,108
 141 544 141 544 161 536 c 0,109,110
 182 528 182 528 207 546 c 0,111,112
 237 568 237 568 262 622 c 1,81,82
EndSplineSet
Validated: 33
EndChar

StartChar: five
Encoding: 53 53 10
Width: 780
GlyphClass: 2
Flags: W
LayerCount: 2
Fore
SplineSet
406 597 m 1,0,1
 512 607 512 607 559 626 c 0,2,3
 584 635 584 635 593 646 c 0,4,5
 597 653 597 653 594 660 c 0,6,7
 584 683 584 683 524 708 c 0,8,9
 475 727 475 727 445 690 c 0,10,11
 422 659 422 659 406 597 c 1,0,1
323 460 m 1,12,-1
 316 460 l 2,13,14
 270 462 270 462 240 453 c 0,15,16
 228 450 228 450 227 437 c 0,17,18
 227 419 227 419 241 403 c 0,19,20
 254 390 254 390 269 394 c 0,21,22
 294 402 294 402 320 453 c 0,23,24
 322 457 322 457 323 460 c 1,12,-1
88 612 m 0,25,26
 123 601 123 601 200 595.5 c 128,-1,27
 277 590 277 590 358 594 c 1,28,29
 366 628 366 628 377 655 c 0,30,31
 391 693 391 693 410 717 c 0,32,33
 459 781 459 781 540 750 c 0,34,35
 573 736 573 736 591 724 c 0,36,37
 625 703 625 703 635 678 c 0,38,39
 650 646 650 646 628 618 c 0,40,41
 613 598 613 598 576 584 c 0,42,43
 515 561 515 561 409 552 c 0,44,45
 399 552 399 552 394 551 c 1,46,47
 384 513 384 513 384 508 c 0,48,49
 384 507 384 507 383.5 504.5 c 128,-1,50
 383 502 383 502 382 501 c 1,51,52
 400 499 400 499 411 498 c 0,53,54
 440 495 440 495 463 493 c 0,55,56
 534 488 534 488 577 495 c 0,57,58
 634 504 634 504 674 535 c 0,59,60
 681 540 681 540 688 540 c 0,61,62
 698 540 698 540 706 531 c 0,63,64
 711 524 711 524 711 517 c 0,65,66
 711 506 711 506 702 500 c 0,67,68
 673 478 673 478 650 427 c 0,69,70
 635 393 635 393 615 318 c 0,71,72
 615 317 615 317 613 311 c 128,-1,73
 611 305 611 305 609 298 c 128,-1,74
 607 291 607 291 606 289 c 0,75,76
 600 265 600 265 598 259 c 0,77,78
 568 157 568 157 532 101 c 0,79,80
 478 19 478 19 392 -14 c 0,81,82
 277 -60 277 -60 207 -14 c 0,83,84
 177 5 177 5 159 39 c 0,85,86
 144 65 144 65 133 104 c 0,87,88
 125 129 125 129 122 148 c 0,89,90
 122 151 122 151 118 167 c 128,-1,91
 114 183 114 183 114 186 c 0,92,93
 111 202 111 202 108 210 c 1,94,95
 95 212 95 212 89 223 c 0,96,97
 79 242 79 242 99 253 c 0,98,99
 114 260 114 260 128 254 c 0,100,101
 139 248 139 248 145 237 c 0,102,103
 153 222 153 222 158 196 c 0,104,105
 162 183 162 183 166 157 c 0,106,107
 171 132 171 132 176 116 c 0,108,109
 196 46 196 46 232 23 c 0,110,111
 281 -9 281 -9 376 27 c 0,112,113
 450 56 450 56 494 126 c 0,114,115
 526 176 526 176 555 271 c 0,116,117
 556 275 556 275 563 301 c 0,118,119
 571 325 571 325 571 330 c 0,120,121
 591 404 591 404 609 445 c 2,122,-1
 615 457 l 1,123,124
 600 452 600 452 584 451 c 0,125,126
 538 443 538 443 460 448 c 0,127,128
 453 448 453 448 436.5 450 c 128,-1,129
 420 452 420 452 407 453 c 0,130,131
 401 453 401 453 388.5 454.5 c 128,-1,132
 376 456 376 456 370 456 c 1,133,134
 365 440 365 440 360 432 c 0,135,136
 327 366 327 366 283 352 c 0,137,138
 241 338 241 338 209 372 c 0,139,140
 182 401 182 401 182 438 c 0,141,142
 184 486 184 486 229 497 c 0,143,144
 270 506 270 506 318 505 c 0,145,146
 321 505 321 505 327 504.5 c 128,-1,147
 333 504 333 504 337 504 c 0,148,149
 338 506 338 506 339 511 c 128,-1,150
 340 516 340 516 340 518 c 2,151,-1
 341 522 l 2,152,153
 342 527 342 527 344 534.5 c 128,-1,154
 346 542 346 542 347 549 c 1,155,156
 158 542 158 542 74 569 c 0,157,158
 53 576 53 576 60 598 c 0,159,160
 63 606 63 606 71.5 610.5 c 128,-1,161
 80 615 80 615 88 612 c 0,25,26
EndSplineSet
Validated: 33
EndChar

StartChar: six
Encoding: 54 54 11
Width: 949
GlyphClass: 2
Flags: W
LayerCount: 2
Fore
SplineSet
819 584 m 1,0,1
 816 592 816 592 789 598 c 0,2,3
 777 602 777 602 754 604 c 0,4,5
 743 605 743 605 734 606.5 c 128,-1,6
 725 608 725 608 724 608 c 0,7,8
 676 613 676 613 629 615 c 0,9,10
 542 617 542 617 506 595 c 0,11,12
 435 555 435 555 371 469 c 1,13,14
 438 468 438 468 529 482 c 0,15,16
 642 501 642 501 741 540 c 0,17,18
 784 559 784 559 806 573 c 0,19,20
 816 580 816 580 819 584 c 1,0,1
175 550 m 1,21,22
 201 491 201 491 302 474 c 0,23,24
 307 474 307 474 319 472 c 1,25,26
 390 582 390 582 483 634 c 0,27,28
 531 662 531 662 630 660 c 0,29,30
 681 658 681 658 729 652 c 0,31,32
 732 652 732 652 740.5 651 c 128,-1,33
 749 650 749 650 759 649 c 0,34,35
 760 649 760 649 761 648 c 2,36,-1
 763 648 l 1,37,-1
 767 648 l 2,38,39
 769 648 769 648 772 647.5 c 128,-1,40
 775 647 775 647 777 646 c 0,41,42
 791 644 791 644 800 642 c 0,43,44
 827 635 827 635 839 627 c 0,45,46
 864 611 864 611 865 586 c 0,47,48
 866 570 866 570 854 556 c 0,49,50
 847 546 847 546 831 535 c 0,51,52
 806 518 806 518 758 499 c 0,53,54
 661 460 661 460 536 438 c 0,55,56
 426 419 426 419 342 425 c 1,57,58
 327 399 327 399 317 377 c 0,59,60
 243 217 243 217 307 111 c 0,61,62
 341 55 341 55 432 40 c 0,63,64
 521 24 521 24 623 49 c 0,65,66
 725 73 725 73 785 123 c 0,67,68
 845 174 845 174 832 229 c 0,69,70
 827 253 827 253 774 272 c 0,71,72
 716 291 716 291 645 285 c 0,73,74
 570 279 570 279 523 247 c 0,75,76
 473 214 473 214 473 155 c 0,77,78
 473 145 473 145 466.5 138.5 c 128,-1,79
 460 132 460 132 451 132 c 0,80,81
 441 132 441 132 434.5 138.5 c 128,-1,82
 428 145 428 145 428 155 c 0,83,84
 428 236 428 236 498 284 c 0,85,86
 555 324 555 324 642 330 c 0,87,88
 721 336 721 336 788 314 c 0,89,90
 864 290 864 290 876 239 c 0,91,92
 895 158 895 158 814 89 c 0,93,94
 746 32 746 32 633 5 c 0,95,96
 521 -22 521 -22 424 -5 c 0,97,98
 312 16 312 16 269 88 c 0,99,100
 231 152 231 152 233.5 231.5 c 128,-1,101
 236 311 236 311 276 396 c 2,102,-1
 293 430 l 1,103,104
 168 450 168 450 134 533 c 0,105,106
 125 554 125 554 146 563 c 0,107,108
 151 565 151 565 158 561.5 c 128,-1,109
 165 558 165 558 170 554 c 2,110,-1
 175 550 l 1,21,22
EndSplineSet
Validated: 33
EndChar

StartChar: seven
Encoding: 55 55 12
Width: 1140
GlyphClass: 2
Flags: W
LayerCount: 2
Fore
SplineSet
260 572 m 0,0,1
 260 570 260 570 269 562 c 0,2,3
 272 559 272 559 280 553 c 1,4,5
 278 568 278 568 276 574 c 0,6,7
 274 579 274 579 273 579 c 0,8,9
 271 579 271 579 270 578 c 0,10,11
 264 576 264 576 260 572 c 0,0,1
132 375 m 0,12,13
 182 362 182 362 223 400 c 0,14,15
 259 434 259 434 273 493 c 0,16,17
 274 497 274 497 276 503 c 1,18,19
 254 516 254 516 239 528 c 0,20,21
 221 544 221 544 216 559 c 0,22,23
 206 586 206 586 228 605 c 0,24,25
 256 627 256 627 280 624 c 0,26,27
 306 619 306 619 317 592 c 0,28,29
 327 568 327 568 325 536 c 1,30,31
 343 534 343 534 364 539 c 0,32,33
 386 543 386 543 432 558 c 0,34,35
 489 576 489 576 517 580 c 0,36,37
 518 580 518 580 519 580.5 c 128,-1,38
 520 581 520 581 521 581 c 0,39,40
 539 581 539 581 543 561 c 1,41,-1
 543 558 l 2,42,43
 543 538 543 538 524 536 c 0,44,45
 503 532 503 532 458 486 c 0,46,47
 409 437 409 437 365 370 c 0,48,49
 318 300 318 300 297 242 c 128,-1,50
 276 184 276 184 289 163 c 0,51,52
 309 132 309 132 342 136 c 0,53,54
 377 141 377 141 421 176 c 0,55,56
 449 197 449 197 487 236 c 1,57,58
 503 268 503 268 513 283 c 0,59,60
 515 286 515 286 527 303 c 128,-1,61
 539 320 539 320 545 328 c 0,62,63
 549 333 549 333 556.5 342.5 c 128,-1,64
 564 352 564 352 567 356 c 0,65,66
 574 363 574 363 576 366 c 0,67,68
 577 367 577 367 583 371 c 2,69,-1
 586 372 l 2,70,71
 590 373 590 373 592 374 c 0,72,73
 604 376 604 376 611 367 c 0,74,75
 618 361 618 361 618 353 c 2,76,-1
 618 344 l 2,77,78
 616 338 616 338 615 334 c 0,79,80
 612 329 612 329 606 317 c 0,81,82
 604 313 604 313 603 312 c 0,83,84
 602 310 602 310 599 305 c 128,-1,85
 596 300 596 300 594 298 c 2,86,-1
 590 292 l 2,87,88
 569 260 569 260 535 222 c 0,89,90
 528 215 528 215 525 211 c 0,91,92
 498 151 498 151 501 103 c 0,93,94
 504 69 504 69 524 49 c 0,95,96
 549 27 549 27 599 27 c 0,97,98
 667 27 667 27 769.5 100.5 c 128,-1,99
 872 174 872 174 945 274 c 0,100,101
 1023 382 1023 382 1025 469 c 0,102,103
 1027 564 1027 564 927 611 c 0,104,105
 822 661 822 661 743 661 c 0,106,107
 734 661 734 661 727.5 667.5 c 128,-1,108
 721 674 721 674 721 683 c 0,109,110
 721 693 721 693 727.5 699.5 c 128,-1,111
 734 706 734 706 743 706 c 0,112,113
 831 706 831 706 947 652 c 0,114,115
 1072 592 1072 592 1070 469 c 0,116,117
 1069 368 1069 368 982 248 c 0,118,119
 903 139 903 139 794 63 c 0,120,121
 680 -18 680 -18 599 -18 c 0,122,123
 534 -18 534 -18 497.5 13 c 128,-1,124
 461 44 461 44 456 100 c 0,125,126
 454 122 454 122 459 148 c 1,127,128
 458 146 458 146 454 144 c 128,-1,129
 450 142 450 142 449 140 c 0,130,131
 393 97 393 97 347 91 c 0,132,133
 286 83 286 83 251 139 c 0,134,135
 226 179 226 179 255 257 c 0,136,137
 279 323 279 323 328 395 c 0,138,139
 369 458 369 458 413 505 c 1,140,141
 389 497 389 497 373 495 c 0,142,143
 346 489 346 489 319 491 c 0,144,145
 318 490 318 490 318 487 c 128,-1,146
 318 484 318 484 317 482 c 0,147,148
 298 410 298 410 254 368 c 0,149,150
 197 313 197 313 122 331 c 0,151,152
 100 337 100 337 105 358 c 0,153,154
 111 380 111 380 132 375 c 0,12,13
EndSplineSet
Validated: 33
EndChar

StartChar: eight
Encoding: 56 56 13
Width: 977
GlyphClass: 2
Flags: W
LayerCount: 2
Fore
SplineSet
410 229 m 0,0,1
 499 238 499 238 559 244 c 0,2,3
 562 244 562 244 570 245 c 128,-1,4
 578 246 578 246 581 247 c 0,5,6
 587 282 587 282 588 286 c 0,7,8
 588 292 588 292 590 302 c 1,9,10
 509 294 509 294 457 298 c 0,11,12
 448 299 448 299 441.5 306 c 128,-1,13
 435 313 435 313 436 322 c 128,-1,14
 437 331 437 331 444 337.5 c 128,-1,15
 451 344 451 344 460 343 c 0,16,17
 515 339 515 339 599 348 c 1,18,19
 623 482 623 482 641 544 c 0,20,21
 651 579 651 579 662 611 c 1,22,23
 568 547 568 547 486 502 c 0,24,25
 291 393 291 393 201 397 c 0,26,27
 179 399 179 399 179 421 c 0,28,29
 180 430 180 430 186.5 436.5 c 128,-1,30
 193 443 193 443 203 442 c 0,31,32
 282 439 282 439 464 541 c 0,33,34
 599 617 599 617 723 709 c 0,35,36
 731 714 731 714 737 714 c 0,37,38
 749 714 749 714 755 705 c 0,39,40
 759 700 759 700 759 691 c 0,41,42
 759 680 759 680 750 673 c 0,43,44
 716 648 716 648 684 532 c 0,45,46
 666 467 666 467 645 353 c 1,47,48
 648 354 648 354 652 354 c 0,49,50
 661 355 661 355 682 358 c 0,51,52
 783 372 783 372 825 374 c 0,53,54
 835 375 835 375 841.5 368.5 c 128,-1,55
 848 362 848 362 849 353 c 0,56,57
 850 343 850 343 843.5 336.5 c 128,-1,58
 837 330 837 330 828 329 c 0,59,60
 793 327 793 327 688 314 c 0,61,62
 667 311 667 311 658 310 c 2,63,-1
 637 307 l 1,64,65
 636 302 636 302 634.5 293 c 128,-1,66
 633 284 633 284 632 279 c 0,67,68
 632 277 632 277 630 267.5 c 128,-1,69
 628 258 628 258 627 252 c 1,70,71
 674 256 674 256 684 257 c 0,72,73
 803 268 803 268 885 268 c 0,74,75
 894 268 894 268 900.5 261.5 c 128,-1,76
 907 255 907 255 907 246 c 0,77,78
 907 236 907 236 900.5 229.5 c 128,-1,79
 894 223 894 223 885 223 c 0,80,81
 795 223 795 223 688 213 c 0,82,83
 658 209 658 209 619 206 c 1,84,85
 598 90 598 90 585 36 c 0,86,87
 561 -68 561 -68 533 -112 c 0,88,89
 512 -148 512 -148 473.5 -177 c 128,-1,90
 435 -206 435 -206 392 -218 c 0,91,92
 281 -249 281 -249 225 -162 c 0,93,94
 198 -119 198 -119 195 -49 c 0,95,96
 194 -31 194 -31 194 11 c 2,97,-1
 194 29 l 2,98,99
 194 39 194 39 200.5 45.5 c 128,-1,100
 207 52 207 52 216 52 c 0,101,102
 226 52 226 52 232.5 45.5 c 128,-1,103
 239 39 239 39 239 29 c 2,104,-1
 239 11 l 2,105,106
 239 -30 239 -30 240 -46 c 0,107,108
 243 -107 243 -107 263 -138 c 0,109,110
 301 -198 301 -198 380 -174 c 0,111,112
 414 -164 414 -164 446 -141 c 128,-1,113
 478 -118 478 -118 495 -89 c 0,114,115
 518 -50 518 -50 541 46 c 0,116,117
 557 112 557 112 572 201 c 1,118,119
 569 200 569 200 564 200 c 0,120,121
 493 192 493 192 414 184 c 0,122,123
 404 183 404 183 397 189 c 128,-1,124
 390 195 390 195 389 205 c 0,125,126
 388 214 388 214 394 221 c 128,-1,127
 400 228 400 228 410 229 c 0,0,1
EndSplineSet
Validated: 33
EndChar

StartChar: nine
Encoding: 57 57 14
Width: 938
GlyphClass: 2
Flags: W
LayerCount: 2
Fore
SplineSet
349 548 m 0,0,1
 325 501 325 501 310 427 c 0,2,3
 297 366 297 366 287 275 c 0,4,5
 287 269 287 269 285.5 253.5 c 128,-1,6
 284 238 284 238 283 229 c 0,7,8
 282 225 282 225 280 203 c 1,9,10
 321 295 321 295 374 390 c 0,11,12
 475 570 475 570 589 619 c 0,13,14
 698 665 698 665 781 588 c 0,15,16
 857 517 857 517 868 382 c 0,17,18
 879 241 879 241 806 97 c 0,19,20
 777 42 777 42 745 6 c 0,21,22
 698 -46 698 -46 646 -53 c 0,23,24
 603 -59 603 -59 557 -36 c 0,25,26
 537 -27 537 -27 484 11 c 0,27,28
 482 13 482 13 480 14.5 c 128,-1,29
 478 16 478 16 477 17 c 0,30,31
 428 54 428 54 400 63 c 0,32,33
 391 66 391 66 386.5 74.5 c 128,-1,34
 382 83 382 83 385 92 c 0,35,36
 388 100 388 100 396.5 104.5 c 128,-1,37
 405 109 405 109 414 106 c 0,38,39
 434 100 434 100 453 88 c 1,40,41
 443 121 443 121 446 155 c 0,42,43
 447 193 447 193 461 243 c 0,44,45
 465 258 465 258 477 299 c 0,46,47
 482 318 482 318 485 326 c 0,48,49
 487 332 487 332 489.5 340.5 c 128,-1,50
 492 349 492 349 492 351 c 0,51,52
 498 370 498 370 502 388 c 0,53,54
 502 401 502 401 501 405 c 2,55,-1
 501 407 l 2,56,57
 501 415 501 415 507 421.5 c 128,-1,58
 513 428 513 428 522 429 c 2,59,-1
 524 429 l 2,60,61
 532 429 532 429 538.5 423 c 128,-1,62
 545 417 545 417 546 409 c 2,63,-1
 546 406 l 1,64,-1
 547 404 l 2,65,66
 549 397 549 397 548 388 c 0,67,68
 547 387 547 387 547 383 c 2,69,-1
 547 372 l 2,70,71
 546 362 546 362 546 353 c 0,72,73
 546 340 546 340 534 333 c 1,74,75
 532 327 532 327 528 313 c 0,76,77
 527 310 527 310 523.5 298.5 c 128,-1,78
 520 287 520 287 520 286 c 0,79,80
 508 249 508 249 504 232 c 0,81,82
 484 156 484 156 493 114 c 1,83,84
 501 131 501 131 517 128 c 0,85,86
 527 127 527 127 532.5 119.5 c 128,-1,87
 538 112 538 112 536 103 c 0,88,89
 534 84 534 84 518 64 c 0,90,91
 512 56 512 56 504 53 c 1,92,93
 505 52 505 52 507 50.5 c 128,-1,94
 509 49 509 49 511 48 c 0,95,96
 550 17 550 17 577 4 c 0,97,98
 609 -12 609 -12 640 -9 c 0,99,100
 676 -3 676 -3 712 36 c 0,101,102
 741 68 741 68 766 118 c 0,103,104
 832 249 832 249 823 379 c 0,105,106
 814 496 814 496 750 555 c 0,107,108
 689 613 689 613 607 578 c 0,109,110
 505 533 505 533 413 368 c 0,111,112
 294 153 294 153 249 -14 c 0,113,114
 246 -31 246 -31 228 -31 c 0,115,116
 227 -31 227 -31 225 -30.5 c 128,-1,117
 223 -30 223 -30 222 -30 c 0,118,119
 205 -25 205 -25 205 -8 c 0,120,121
 205 -4 205 -4 206 -2 c 0,122,123
 220 50 220 50 234 188 c 0,124,125
 237 223 237 223 238 233 c 0,126,127
 238 238 238 238 240 254.5 c 128,-1,128
 242 271 242 271 243 279 c 0,129,130
 252 370 252 370 265 436 c 0,131,132
 285 524 285 524 309 568 c 0,133,134
 313 576 313 576 322 579 c 128,-1,135
 331 582 331 582 339 578 c 0,136,137
 358 568 358 568 349 548 c 0,0,1
647 435 m 0,138,139
 609 346 609 346 596 277 c 0,140,141
 581 192 581 192 602 117 c 0,142,143
 605 108 605 108 600.5 99.5 c 128,-1,144
 596 91 596 91 587 89 c 0,145,146
 566 84 566 84 559 104 c 0,147,148
 535 189 535 189 552 284 c 0,149,150
 565 358 565 358 606 453 c 0,151,152
 610 461 610 461 618.5 465 c 128,-1,153
 627 469 627 469 635 465 c 0,154,155
 656 456 656 456 647 435 c 0,138,139
EndSplineSet
Validated: 33
EndChar

StartChar: A
Encoding: 65 65 15
Width: 285
GlyphClass: 2
Flags: W
LayerCount: 2
Fore
SplineSet
1 45 m 0,0,1
 53 45 53 45 82 44 c 0,2,3
 83 44 83 44 87.5 43.5 c 128,-1,4
 92 43 92 43 93 43 c 0,5,6
 125 42 125 42 193 42 c 0,7,8
 202 42 202 42 208.5 35.5 c 128,-1,9
 215 29 215 29 215 19 c 0,10,11
 215 10 215 10 208.5 3.5 c 128,-1,12
 202 -3 202 -3 193 -3 c 0,13,14
 124 -3 124 -3 91 -2 c 0,15,16
 90 -2 90 -2 85.5 -1.5 c 128,-1,17
 81 -1 81 -1 80 -1 c 0,18,19
 52 0 52 0 1 0 c 0,20,21
 -8 0 -8 0 -14.5 6.5 c 128,-1,22
 -21 13 -21 13 -21 22 c 0,23,24
 -21 32 -21 32 -14.5 38.5 c 128,-1,25
 -8 45 -8 45 1 45 c 0,0,1
-9 438 m 0,26,27
 24 486 24 486 39 500 c 0,28,29
 65 527 65 527 92 526 c 0,30,31
 119 526 119 526 145 500 c 0,32,33
 165 481 165 481 196 437 c 0,34,35
 209 419 209 419 191 406 c 0,36,37
 171 393 171 393 159 411 c 0,38,39
 133 450 133 450 114 467 c 0,40,41
 100 481 100 481 92 481 c 0,42,43
 83 481 83 481 71 469 c 0,44,45
 57 455 57 455 29 413 c 0,46,47
 16 395 16 395 -2 406 c 0,48,49
 -21 418 -21 418 -9 438 c 0,26,27
EndSplineSet
Validated: 33
EndChar

StartChar: E
Encoding: 69 69 16
Width: 486
GlyphClass: 2
Flags: W
LayerCount: 2
Fore
SplineSet
288 635 m 0,0,1
 195 539 195 539 129 396 c 0,2,3
 120 375 120 375 110.5 354 c 128,-1,4
 101 333 101 333 99 329 c 0,5,6
 78 280 78 280 66 236 c 0,7,8
 41 151 41 151 56 104 c 0,9,10
 74 52 74 52 150 48 c 0,11,12
 173 47 173 47 270 47 c 0,13,14
 297 47 297 47 316 48 c 2,15,-1
 394 48 l 2,16,17
 404 48 404 48 410.5 41.5 c 128,-1,18
 417 35 417 35 417 26 c 0,19,20
 417 16 417 16 410.5 9.5 c 128,-1,21
 404 3 404 3 394 3 c 2,22,-1
 316 3 l 2,23,24
 298 2 298 2 270 2 c 0,25,26
 172 2 172 2 148 3 c 0,27,28
 40 9 40 9 14 90 c 0,29,30
 -6 151 -6 151 23 249 c 0,31,32
 33 288 33 288 58 347 c 0,33,34
 61 353 61 353 70 374 c 128,-1,35
 79 395 79 395 88 415 c 0,36,37
 156 561 156 561 255 667 c 0,38,39
 271 683 271 683 287 667 c 0,40,41
 304 651 304 651 288 635 c 0,0,1
EndSplineSet
Validated: 33
EndChar

StartChar: F
Encoding: 70 70 17
Width: 620
GlyphClass: 2
Flags: W
LayerCount: 2
Fore
SplineSet
405 486 m 1,0,-1
 405 485 l 2,1,2
 403 483 403 483 399.5 478.5 c 128,-1,3
 396 474 396 474 394 471 c 0,4,5
 386 458 386 458 361 418 c 0,6,7
 358 413 358 413 353 403 c 128,-1,8
 348 393 348 393 345 388 c 1,9,10
 387 390 387 390 429 409 c 0,11,12
 471 429 471 429 483 452 c 0,13,14
 487 458 487 458 485 463 c 0,15,16
 483 469 483 469 470 475 c 0,17,18
 440 490 440 490 405 486 c 1,0,-1
53 44 m 1,19,-1
 62 44 l 2,20,21
 70 45 70 45 78 50 c 0,22,23
 81 51 81 51 85 53 c 0,24,25
 87 55 87 55 88 55 c 0,26,27
 93 60 93 60 111 82 c 1,28,29
 78 85 78 85 63 80 c 0,30,31
 53 77 53 77 49 72 c 0,32,33
 46 64 46 64 53 44 c 1,19,-1
169 698 m 0,34,35
 183 674 183 674 214 671 c 0,36,37
 244 667 244 667 296 681 c 0,38,39
 312 685 312 685 351 698 c 0,40,41
 355 699 355 699 373 705.5 c 128,-1,42
 391 712 391 712 393 713 c 2,43,-1
 429 725 l 2,44,45
 430 725 430 725 435.5 726.5 c 128,-1,46
 441 728 441 728 453 730.5 c 128,-1,47
 465 733 465 733 476 735 c 2,48,-1
 477 735 l 2,49,50
 487 737 487 737 509 741 c 0,51,52
 511 742 511 742 514.5 743 c 128,-1,53
 518 744 518 744 520 744 c 2,54,-1
 523 744 l 1,55,-1
 524 744 l 2,56,57
 535 746 535 746 543 739.5 c 128,-1,58
 551 733 551 733 551 722 c 0,59,60
 551 715 551 715 545 707 c 0,61,62
 543 704 543 704 540 702 c 0,63,64
 539 701 539 701 529 693 c 0,65,66
 526 690 526 690 497 671 c 0,67,68
 444 636 444 636 402 605 c 0,69,70
 320 543 320 543 289 495 c 0,71,72
 258 449 258 449 278 418 c 0,73,74
 286 405 286 405 299 399 c 1,75,76
 317 431 317 431 323 440 c 0,77,78
 341 472 341 472 357 497 c 0,79,80
 360 502 360 502 371 515 c 0,81,82
 381 526 381 526 391 529 c 0,83,84
 411 534 411 534 441 530 c 128,-1,85
 471 526 471 526 490 516 c 0,86,87
 518 502 518 502 527 479.5 c 128,-1,88
 536 457 536 457 524 432 c 0,89,90
 504 395 504 395 448 368 c 0,91,92
 389 341 389 341 338 344 c 0,93,94
 326 344 326 344 320 345 c 1,95,-1
 320 344 l 1,96,-1
 319 342 l 2,97,98
 306 322 306 322 295 299 c 0,99,100
 290 291 290 291 282 276.5 c 128,-1,101
 274 262 274 262 270 255 c 128,-1,102
 266 248 266 248 259 234.5 c 128,-1,103
 252 221 252 221 251 220 c 0,104,105
 215 158 215 158 188 115 c 1,106,107
 212 109 212 109 225 105 c 0,108,109
 255 97 255 97 275 91 c 2,110,-1
 303 84 l 2,111,112
 326 79 326 79 345 72 c 0,113,114
 353 70 353 70 365 66 c 0,115,116
 393 55 393 55 423 51 c 0,117,118
 466 45 466 45 525 46 c 0,119,120
 534 47 534 47 541 40.5 c 128,-1,121
 548 34 548 34 548 24 c 0,122,123
 548 3 548 3 526 1 c 0,124,125
 464 0 464 0 416 6 c 0,126,127
 383 11 383 11 350 23 c 0,128,129
 348 24 348 24 340 27 c 128,-1,130
 332 30 332 30 331 30 c 0,131,132
 322 33 322 33 295 40 c 0,133,134
 287 41 287 41 263 48 c 0,135,136
 250 52 250 52 241 54.5 c 128,-1,137
 232 57 232 57 225 59 c 128,-1,138
 218 61 218 61 214 62 c 0,139,140
 183 70 183 70 161 74 c 1,141,142
 137 40 137 40 118 22 c 0,143,144
 101 5 101 5 71 0 c 0,145,146
 53 -3 53 -3 39 1 c 0,147,148
 19 8 19 8 11 26 c 0,149,150
 -2 64 -2 64 8 89 c 128,-1,151
 18 114 18 114 50 124 c 0,152,153
 84 133 84 133 140 124 c 1,154,155
 173 175 173 175 212 242 c 0,156,157
 213 243 213 243 220 256.5 c 128,-1,158
 227 270 227 270 231 277 c 0,159,160
 241 295 241 295 256 321 c 0,161,162
 259 326 259 326 277 359 c 1,163,164
 256 370 256 370 240 393 c 0,165,166
 222 424 222 424 226 458 c 0,167,168
 230 487 230 487 251 520 c 0,169,170
 286 574 286 574 374 641 c 0,171,172
 379 644 379 644 396 656.5 c 128,-1,173
 413 669 413 669 423 676 c 1,174,-1
 408 671 l 2,175,176
 402 668 402 668 366 656 c 0,177,178
 336 645 336 645 307 637 c 0,179,180
 249 622 249 622 209 626 c 0,181,182
 154 632 154 632 129 677 c 0,183,184
 124 685 124 685 127 694 c 128,-1,185
 130 703 130 703 138 707 c 0,186,187
 158 718 158 718 169 698 c 0,34,35
EndSplineSet
Validated: 33
EndChar

StartChar: G
Encoding: 71 71 18
Width: 548
GlyphClass: 2
Flags: W
LayerCount: 2
Fore
SplineSet
442 485 m 0,0,1
 369 513 369 513 342 526 c 0,2,3
 296 546 296 546 245 577 c 0,4,5
 229 589 229 589 211 613 c 1,6,-1
 210 614 l 2,7,8
 209 616 209 616 207 618 c 2,9,-1
 191 638 l 1,10,11
 188 631 188 631 183 625 c 0,12,13
 158 585 158 585 118 517 c 0,14,15
 9 331 9 331 65 201 c 0,16,17
 90 143 90 143 146.5 104 c 128,-1,18
 203 65 203 65 283 52 c 0,19,20
 307 48 307 48 334 48 c 2,21,-1
 405 48 l 1,22,-1
 456 48 l 2,23,24
 465 48 465 48 471.5 41.5 c 128,-1,25
 478 35 478 35 478 26 c 0,26,27
 478 16 478 16 471.5 9.5 c 128,-1,28
 465 3 465 3 456 3 c 2,29,-1
 405 3 l 1,30,-1
 333 3 l 2,31,32
 304 3 304 3 276 7 c 0,33,34
 184 23 184 23 118.5 68.5 c 128,-1,35
 53 114 53 114 24 183 c 0,36,37
 -41 335 -41 335 80 540 c 0,38,39
 114 599 114 599 145 648 c 0,40,41
 158 670 158 670 161 674 c 0,42,43
 162 675 162 675 163 677 c 128,-1,44
 164 679 164 679 165 680 c 2,45,-1
 166 682 l 2,46,47
 174 697 174 697 191 691 c 0,48,49
 206 687 206 687 222 671 c 0,50,51
 232 660 232 660 243 645 c 0,52,53
 244 644 244 644 245 642.5 c 128,-1,54
 246 641 246 641 247 640 c 0,55,56
 263 620 263 620 270 615 c 0,57,58
 308 591 308 591 360 567 c 0,59,60
 400 549 400 549 458 527 c 0,61,62
 466 524 466 524 470 515.5 c 128,-1,63
 474 507 474 507 471 498 c 0,64,65
 462 478 462 478 442 485 c 0,0,1
EndSplineSet
Validated: 33
EndChar

StartChar: H
Encoding: 72 72 19
Width: 749
GlyphClass: 2
Flags: W
LayerCount: 2
Fore
SplineSet
236 515 m 1,0,1
 311 471 311 471 418 462 c 0,2,3
 516 454 516 454 585 478 c 0,4,5
 616 489 616 489 628 502 c 0,6,7
 636 510 636 510 633 520 c 0,8,9
 615 582 615 582 516 590 c 0,10,11
 413 596 413 596 295 545 c 0,12,13
 263 530 263 530 236 515 c 1,0,1
159 518 m 1,14,15
 105 572 105 572 93 645 c 0,16,17
 92 654 92 654 97 661 c 128,-1,18
 102 668 102 668 111 670 c 0,19,20
 133 673 133 673 137 652 c 0,21,22
 147 589 147 589 197 544 c 1,23,24
 233 567 233 567 277 586 c 0,25,26
 408 643 408 643 519 635 c 0,27,28
 648 625 648 625 676 533 c 0,29,30
 687 500 687 500 661 471 c 0,31,32
 640 449 640 449 600 435 c 0,33,34
 524 409 524 409 414 417 c 0,35,36
 298 426 298 426 212 477 c 0,37,38
 200 485 200 485 195 489 c 1,39,40
 138 449 138 449 103 402 c 0,41,42
 29 305 29 305 59 197 c 0,43,44
 82 115 82 115 179 79 c 0,45,46
 253 51 253 51 397 46 c 0,47,48
 468 46 468 46 531 47 c 0,49,50
 584 49 584 49 625 49 c 0,51,52
 634 49 634 49 640.5 42 c 128,-1,53
 647 35 647 35 647 26 c 128,-1,54
 647 17 647 17 640.5 10.5 c 128,-1,55
 634 4 634 4 625 4 c 0,56,57
 584 4 584 4 532 2 c 0,58,59
 447 1 447 1 396 2 c 0,60,61
 248 5 248 5 163 37 c 0,62,63
 45 81 45 81 16 185 c 0,64,65
 -20 314 -20 314 67 429 c 0,66,67
 105 479 105 479 159 518 c 1,14,15
EndSplineSet
Validated: 33
EndChar

StartChar: K
Encoding: 75 75 20
Width: 629
GlyphClass: 2
Flags: W
LayerCount: 2
Fore
SplineSet
170 -25 m 1,0,1
 158 -27 158 -27 154 -29 c 0,2,3
 104 -42 104 -42 73 -62 c 0,4,5
 51 -77 51 -77 46 -93 c 0,6,7
 38 -120 38 -120 72 -151 c 0,8,9
 107 -183 107 -183 138 -183 c 0,10,11
 191 -183 191 -183 235 -158 c 0,12,13
 272 -137 272 -137 285 -106 c 0,14,15
 294 -82 294 -82 278 -64 c 0,16,17
 252 -38 252 -38 187 -34 c 0,18,19
 176 -32 176 -32 170 -25 c 1,0,1
537 1 m 0,20,21
 380 4 380 4 274 -8 c 1,22,23
 296 -19 296 -19 310 -33 c 0,24,25
 346 -71 346 -71 327 -123 c 0,26,27
 308 -168 308 -168 257 -197 c 0,28,29
 204 -228 204 -228 138 -228 c 0,30,31
 92 -228 92 -228 42 -185 c 0,32,33
 19 -163 19 -163 8 -139 c 0,34,35
 -6 -109 -6 -109 3 -80 c 0,36,37
 23 -17 23 -17 143 15 c 0,38,39
 278 50 278 50 537 46 c 0,40,41
 547 46 547 46 553.5 39.5 c 128,-1,42
 560 33 560 33 560 23 c 0,43,44
 559 14 559 14 552.5 7.5 c 128,-1,45
 546 1 546 1 537 1 c 0,20,21
EndSplineSet
Validated: 33
EndChar

StartChar: L
Encoding: 76 76 21
Width: 512
GlyphClass: 2
Flags: W
LayerCount: 2
Fore
SplineSet
68 689 m 0,0,1
 170 625 170 625 237 551 c 0,2,3
 281 503 281 503 302 454 c 0,4,5
 328 398 328 398 314 345 c 0,6,7
 307 316 307 316 271 277 c 0,8,9
 249 253 249 253 199 209 c 0,10,11
 197 207 197 207 188.5 200.5 c 128,-1,12
 180 194 180 194 175 189 c 0,13,14
 114 138 114 138 100 124 c 0,15,16
 64 91 64 91 54 73 c 0,17,18
 50 66 50 66 50 62 c 2,19,-1
 50 61 l 1,20,-1
 51 61 l 1,21,22
 63 49 63 49 115 48 c 0,23,24
 139 47 139 47 285 47 c 2,25,-1
 300 47 l 2,26,27
 379 48 379 48 420 47 c 0,28,29
 430 47 430 47 436.5 40.5 c 128,-1,30
 443 34 443 34 443 25 c 0,31,32
 442 15 442 15 435.5 8.5 c 128,-1,33
 429 2 429 2 420 2 c 0,34,35
 379 3 379 3 300 2 c 2,36,-1
 285 2 l 2,37,38
 138 2 138 2 114 3 c 0,39,40
 47 4 47 4 21 26 c 0,41,42
 5 42 5 42 5 61 c 0,43,44
 5 79 5 79 15 96 c 0,45,46
 29 119 29 119 69 158 c 0,47,48
 77 165 77 165 84 171 c 128,-1,49
 91 177 91 177 107 190.5 c 128,-1,50
 123 204 123 204 146 224 c 0,51,52
 149 226 149 226 169 243 c 0,53,54
 210 278 210 278 238 307 c 0,55,56
 265 339 265 339 271 357 c 0,57,58
 289 426 289 426 203 521 c 0,59,60
 141 591 141 591 44 651 c 0,61,62
 26 664 26 664 37 682 c 0,63,64
 42 690 42 690 51.5 692 c 128,-1,65
 61 694 61 694 68 689 c 0,0,1
EndSplineSet
Validated: 33
EndChar

StartChar: P
Encoding: 80 80 22
Width: 732
GlyphClass: 2
Flags: W
LayerCount: 2
Fore
SplineSet
275 622 m 1,0,1
 281 620 281 620 284 618 c 0,2,3
 297 610 297 610 305 598 c 0,4,5
 306 597 306 597 308 594.5 c 128,-1,6
 310 592 310 592 312 590 c 2,7,-1
 316 584 l 2,8,9
 349 537 349 537 408 517 c 0,10,11
 463 499 463 499 520 508 c 0,12,13
 572 515 572 515 600 545 c 0,14,15
 626 575 626 575 612 615 c 0,16,17
 597 662 597 662 525 663 c 0,18,19
 489 665 489 665 442 656 c 0,20,21
 412 651 412 651 348 638 c 0,22,23
 346 637 346 637 343 636.5 c 128,-1,24
 340 636 340 636 338 636 c 0,25,26
 289 626 289 626 275 622 c 1,0,1
68 722 m 0,27,28
 68 687 68 687 85 670 c 0,29,30
 102 656 102 656 136 653 c 128,-1,31
 170 650 170 650 223 659 c 0,32,33
 248 663 248 663 328 680 c 0,34,35
 330 680 330 680 333 680.5 c 128,-1,36
 336 681 336 681 338 682 c 0,37,38
 420 699 420 699 435 701 c 0,39,40
 494 709 494 709 526 708 c 0,41,42
 575 706 575 706 605 690 c 0,43,44
 642 670 642 670 655 629 c 0,45,46
 677 565 677 565 634 515 c 0,47,48
 596 474 596 474 527 463 c 0,49,50
 459 452 459 452 393 475 c 0,51,52
 321 500 321 500 279 558 c 0,53,54
 279 560 279 560 275 564 c 0,55,56
 274 565 274 565 272.5 567 c 128,-1,57
 271 569 271 569 270 570 c 0,58,59
 267 574 267 574 262 579 c 1,60,61
 230 559 230 559 151 456 c 0,62,63
 68 347 68 347 59 313 c 0,64,65
 47 272 47 272 53.5 229 c 128,-1,66
 60 186 60 186 83 156 c 0,67,68
 126 101 126 101 214 76 c 0,69,70
 287 55 287 55 399 50 c 0,71,72
 466 49 466 49 556 51 c 0,73,74
 606 53 606 53 640 53 c 0,75,76
 649 53 649 53 655.5 46.5 c 128,-1,77
 662 40 662 40 663 31 c 0,78,79
 663 22 663 22 656.5 15 c 128,-1,80
 650 8 650 8 640 8 c 0,81,82
 606 8 606 8 557 6 c 0,83,84
 467 4 467 4 397 5 c 0,85,86
 276 10 276 10 201 33 c 0,87,88
 99 62 99 62 48 129 c 0,89,90
 18 167 18 167 9 221 c 128,-1,91
 0 275 0 275 15 325 c 0,92,93
 25 363 25 363 115 483 c 0,94,95
 194 586 194 586 235 615 c 1,96,97
 232 615 232 615 230 614 c 0,98,99
 172 605 172 605 133 608 c 0,100,101
 23 616 23 616 23 722 c 0,102,103
 23 732 23 732 29.5 738.5 c 128,-1,104
 36 745 36 745 45 745 c 0,105,106
 55 745 55 745 61.5 738.5 c 128,-1,107
 68 732 68 732 68 722 c 0,27,28
EndSplineSet
Validated: 33
EndChar

StartChar: R
Encoding: 82 82 23
Width: 360
GlyphClass: 2
Flags: W
LayerCount: 2
Fore
SplineSet
-67 -176 m 0,0,1
 -61 -160 -61 -160 -38 -99 c 0,2,3
 -36 -92 -36 -92 -30.5 -78.5 c 128,-1,4
 -25 -65 -25 -65 -23 -58 c 2,5,-1
 21 52 l 2,6,7
 49 121 49 121 73 189 c 0,8,9
 75 191 75 191 75 193 c 1,10,11
 76 193 76 193 77 195 c 128,-1,12
 78 197 78 197 80 200 c 0,13,14
 85 208 85 208 90 217 c 0,15,16
 96 225 96 225 100 233 c 0,17,18
 102 236 102 236 104 238 c 2,19,-1
 105 240 l 2,20,21
 110 249 110 249 120.5 250.5 c 128,-1,22
 131 252 131 252 138 245 c 0,23,24
 152 233 152 233 157 207 c 0,25,26
 158 197 158 197 158 167 c 0,27,28
 158 156 158 156 158.5 145 c 128,-1,29
 159 134 159 134 159 129 c 0,30,31
 164 87 164 87 181 70 c 0,32,33
 205 44 205 44 268 44 c 0,34,35
 277 44 277 44 283.5 37.5 c 128,-1,36
 290 31 290 31 290 21 c 0,37,38
 290 12 290 12 283.5 5.5 c 128,-1,39
 277 -1 277 -1 268 -1 c 0,40,41
 186 -1 186 -1 149 39 c 0,42,43
 120 68 120 68 115 125 c 0,44,45
 113 149 113 149 113 167 c 1,46,47
 97 121 97 121 63 35 c 0,48,49
 60 28 60 28 51 6 c 128,-1,50
 42 -16 42 -16 31.5 -43 c 128,-1,51
 21 -70 21 -70 19 -75 c 128,-1,52
 17 -80 17 -80 11.5 -94 c 128,-1,53
 6 -108 6 -108 4 -115 c 0,54,55
 -6 -141 -6 -141 -24 -191 c 0,56,57
 -31 -212 -31 -212 -53 -205 c 0,58,59
 -74 -198 -74 -198 -67 -176 c 0,0,1
EndSplineSet
Validated: 33
EndChar

StartChar: S
Encoding: 83 83 24
Width: 448
GlyphClass: 2
Flags: W
LayerCount: 2
Fore
SplineSet
142 44 m 1,0,1
 203 155 203 155 205 184 c 0,2,3
 208 206 208 206 200 211 c 0,4,5
 194 217 194 217 176 214 c 0,6,7
 127 207 127 207 72 159 c 0,8,9
 20 110 20 110 25 81 c 0,10,11
 27 69 27 69 45 60 c 0,12,13
 70 47 70 47 127 45 c 0,14,15
 131 44 131 44 142 44 c 1,0,1
-19 -205 m 0,16,17
 29 -155 29 -155 115 -5 c 0,18,19
 116 -4 116 -4 117 -2.5 c 128,-1,20
 118 -1 118 -1 118 0 c 0,21,22
 57 3 57 3 25 19 c 0,23,24
 -14 39 -14 39 -20 74 c 0,25,26
 -24 104 -24 104 -4 137 c 0,27,28
 13 167 13 167 43 192 c 0,29,30
 105 249 105 249 169 259 c 0,31,32
 209 265 209 265 231.5 244 c 128,-1,33
 254 223 254 223 250 179 c 0,34,35
 247 147 247 147 193 44 c 1,36,-1
 241 44 l 1,37,-1
 313 44 l 1,38,-1
 338 44 l 1,39,-1
 356 44 l 2,40,41
 365 44 365 44 371.5 37.5 c 128,-1,42
 378 31 378 31 378 21 c 0,43,44
 378 12 378 12 371.5 5.5 c 128,-1,45
 365 -1 365 -1 356 -1 c 2,46,-1
 338 -1 l 1,47,-1
 313 -1 l 1,48,-1
 241 -1 l 1,49,-1
 169 -1 l 1,50,51
 166 -6 166 -6 161 -14 c 128,-1,52
 156 -22 156 -22 154 -27 c 0,53,54
 64 -185 64 -185 12 -237 c 0,55,56
 6 -243 6 -243 -3.5 -243 c 128,-1,57
 -13 -243 -13 -243 -19 -237 c 0,58,59
 -35 -221 -35 -221 -19 -205 c 0,16,17
EndSplineSet
Validated: 33
EndChar

StartChar: T
Encoding: 84 84 25
Width: 601
GlyphClass: 2
Flags: W
LayerCount: 2
Fore
SplineSet
442 544 m 0,0,1
 436 573 436 573 408 595 c 128,-1,2
 380 617 380 617 348 619 c 0,3,4
 201 626 201 626 129 537 c 0,5,6
 65 455 65 455 88 337 c 0,7,8
 113 215 113 215 216 132 c 0,9,10
 336 39 336 39 508 45 c 0,11,12
 518 46 518 46 524.5 39.5 c 128,-1,13
 531 33 531 33 531 23 c 0,14,15
 532 14 532 14 525.5 7.5 c 128,-1,16
 519 1 519 1 510 0 c 0,17,18
 320 -6 320 -6 189 97 c 0,19,20
 72 189 72 189 44 329 c 0,21,22
 17 468 17 468 94 565 c 0,23,24
 179 672 179 672 350 664 c 0,25,26
 397 662 397 662 437 629.5 c 128,-1,27
 477 597 477 597 486 553 c 0,28,29
 488 544 488 544 482.5 536 c 128,-1,30
 477 528 477 528 468 527 c 0,31,32
 459 525 459 525 451.5 530 c 128,-1,33
 444 535 444 535 442 544 c 0,0,1
EndSplineSet
Validated: 33
EndChar

StartChar: W
Encoding: 87 87 26
Width: 559
GlyphClass: 2
Flags: W
LayerCount: 2
Fore
SplineSet
50 40 m 1,0,1
 56 38 56 38 64 38 c 0,2,3
 84 37 84 37 126 46 c 0,4,5
 130 47 130 47 138.5 48.5 c 128,-1,6
 147 50 147 50 150 51 c 128,-1,7
 153 52 153 52 159 54 c 0,8,9
 167 56 167 56 169 56 c 0,10,11
 174 57 174 57 187 60 c 0,12,13
 199 64 199 64 218 66 c 0,14,15
 243 68 243 68 271 64 c 0,16,17
 276 64 276 64 286.5 62.5 c 128,-1,18
 297 61 297 61 302 61 c 0,19,20
 303 60 303 60 325 58 c 1,21,22
 318 64 318 64 315 70 c 0,23,24
 314 72 314 72 311.5 82 c 128,-1,25
 309 92 309 92 307 97 c 0,26,27
 292 118 292 118 263 129 c 0,28,29
 222 144 222 144 166 133 c 0,30,31
 114 121 114 121 80 93.5 c 128,-1,32
 46 66 46 66 50 40 c 1,0,1
35 224 m 0,33,34
 98 306 98 306 151 324 c 0,35,36
 206 343 206 343 251 303 c 0,37,38
 285 274 285 274 314 207 c 0,39,40
 328 178 328 178 348 118 c 1,41,42
 359 102 359 102 367 77 c 0,43,44
 370 63 370 63 360 53 c 1,45,46
 430 46 430 46 467 46 c 0,47,48
 476 46 476 46 482.5 39.5 c 128,-1,49
 489 33 489 33 489 24 c 0,50,51
 489 14 489 14 482.5 7.5 c 128,-1,52
 476 1 476 1 467 1 c 0,53,54
 415 1 415 1 330 12 c 0,55,56
 302 16 302 16 296 16 c 0,57,58
 284 18 284 18 266 20 c 0,59,60
 241 23 241 23 222 21 c 0,61,62
 221 21 221 21 197 17 c 0,63,64
 195 17 195 17 193 16 c 128,-1,65
 191 15 191 15 189.5 14.5 c 128,-1,66
 188 14 188 14 185 13.5 c 128,-1,67
 182 13 182 13 180 12 c 2,68,-1
 170 10 l 2,69,70
 162 8 162 8 160 8 c 0,71,72
 155 6 155 6 146.5 4.5 c 128,-1,73
 138 3 138 3 136 2 c 0,74,75
 90 -8 90 -8 62 -7 c 0,76,77
 44 -7 44 -7 28 1 c 0,78,79
 9 12 9 12 6 33 c 0,80,81
 -3 82 -3 82 49 126 c 0,82,83
 91 162 91 162 156 176 c 0,84,85
 226 192 226 192 279 171 c 0,86,87
 280 171 280 171 281 170 c 1,88,89
 280 172 280 172 277.5 179 c 128,-1,90
 275 186 275 186 273 189 c 0,91,92
 247 245 247 245 222 269 c 0,93,94
 196 292 196 292 166 282 c 0,95,96
 124 266 124 266 71 197 c 0,97,98
 57 179 57 179 39 193 c 0,99,100
 32 198 32 198 31 207 c 128,-1,101
 30 216 30 216 35 224 c 0,33,34
EndSplineSet
Validated: 33
EndChar

StartChar: Y
Encoding: 89 89 27
Width: 936
GlyphClass: 2
Flags: W
LayerCount: 2
Fore
SplineSet
464 677 m 0,0,1
 437 592 437 592 452 520 c 0,2,3
 456 491 456 491 469 480 c 0,4,5
 470 478 470 478 476 476 c 0,6,7
 480 476 480 476 490 481 c 0,8,9
 525 500 525 500 569 555 c 2,10,-1
 606 600 l 2,11,12
 659 667 659 667 704 701 c 0,13,14
 769 749 769 749 844 749 c 0,15,16
 854 749 854 749 860.5 742.5 c 128,-1,17
 867 736 867 736 867 726 c 0,18,19
 867 717 867 717 860.5 710.5 c 128,-1,20
 854 704 854 704 844 704 c 0,21,22
 785 704 785 704 730 664 c 0,23,24
 692 635 692 635 641 572 c 0,25,26
 612 536 612 536 604 526 c 0,27,28
 552 464 552 464 512 441 c 0,29,30
 469 419 469 419 439 446 c 0,31,32
 417 464 417 464 407 511 c 0,33,34
 404 538 404 538 404 539 c 1,35,36
 359 438 359 438 303 336 c 0,37,38
 239 220 239 220 171 135 c 0,39,40
 90 37 90 37 17 5 c 0,41,42
 -3 -4 -3 -4 -12 17 c 0,43,44
 -21 37 -21 37 -1 46 c 0,45,46
 119 99 119 99 264 358 c 0,47,48
 316 453 316 453 363 558 c 0,49,50
 403 650 403 650 416 693 c 0,51,52
 419 702 419 702 427.5 706.5 c 128,-1,53
 436 711 436 711 445 708 c 0,54,55
 446 708 446 708 447.5 707 c 128,-1,56
 449 706 449 706 450 705 c 0,57,58
 469 698 469 698 464 677 c 0,0,1
EndSplineSet
Validated: 33
EndChar

StartChar: a
Encoding: 97 97 28
Width: 270
GlyphClass: 2
Flags: W
LayerCount: 2
Fore
SplineSet
-9 438 m 0,0,1
 24 486 24 486 39 500 c 0,2,3
 65 527 65 527 92 526 c 0,4,5
 119 526 119 526 145 500 c 0,6,7
 165 481 165 481 196 437 c 0,8,9
 209 419 209 419 191 406 c 0,10,11
 171 393 171 393 159 411 c 0,12,13
 133 450 133 450 114 467 c 0,14,15
 100 481 100 481 92 481 c 0,16,17
 83 481 83 481 71 469 c 0,18,19
 57 455 57 455 29 413 c 0,20,21
 16 395 16 395 -2 406 c 0,22,23
 -21 418 -21 418 -9 438 c 0,0,1
EndSplineSet
Validated: 33
EndChar

StartChar: b
Encoding: 98 98 29
Width: 758
GlyphClass: 2
Flags: W
LayerCount: 2
Fore
SplineSet
387 -2 m 1,0,1
 424 -1 424 -1 504 16 c 0,2,3
 508 17 508 17 516.5 18.5 c 128,-1,4
 525 20 525 20 527 21 c 0,5,6
 550 25 550 25 568 30 c 0,7,8
 576 32 576 32 589 34.5 c 128,-1,9
 602 37 602 37 607 38 c 0,10,11
 650 46 650 46 665 46 c 0,12,13
 675 46 675 46 681.5 39.5 c 128,-1,14
 688 33 688 33 688 23 c 0,15,16
 688 14 688 14 681.5 7.5 c 128,-1,17
 675 1 675 1 666 1 c 0,18,19
 655 1 655 1 615 -7 c 0,20,21
 611 -8 611 -8 598.5 -10 c 128,-1,22
 586 -12 586 -12 578 -14 c 0,23,24
 557 -20 557 -20 536 -23 c 0,25,26
 532 -24 532 -24 524.5 -25.5 c 128,-1,27
 517 -27 517 -27 513 -28 c 0,28,29
 411 -48 411 -48 374 -48 c 1,30,31
 362 -90 362 -90 353 -123 c 0,32,33
 349 -137 349 -137 343.5 -156.5 c 128,-1,34
 338 -176 338 -176 337 -180 c 0,35,36
 336 -188 336 -188 334 -192 c 2,37,-1
 334 -195 l 1,38,-1
 333 -196 l 1,39,40
 328 -217 328 -217 306 -212 c 0,41,42
 285 -207 285 -207 290 -185 c 0,43,44
 290 -183 290 -183 291 -181 c 0,45,46
 292 -176 292 -176 294 -169 c 128,-1,47
 296 -162 296 -162 301 -142.5 c 128,-1,48
 306 -123 306 -123 310 -111 c 0,49,50
 321 -70 321 -70 393 186 c 0,51,52
 396 195 396 195 404 199.5 c 128,-1,53
 412 204 412 204 421 201 c 0,54,55
 430 199 430 199 434.5 190.5 c 128,-1,56
 439 182 439 182 437 173 c 0,57,58
 421 119 421 119 387 -2 c 1,0,1
334 189 m 0,59,60
 312 123 312 123 299 82 c 0,61,62
 298 77 298 77 293 61.5 c 128,-1,63
 288 46 288 46 286 38 c 0,64,65
 258 -53 258 -53 237 -131 c 0,66,67
 234 -140 234 -140 229 -158.5 c 128,-1,68
 224 -177 224 -177 221 -186 c 0,69,70
 219 -192 219 -192 217 -202 c 0,71,72
 216 -202 216 -202 216 -204 c 128,-1,73
 216 -206 216 -206 215 -206 c 1,74,-1
 215 -207 l 2,75,76
 213 -216 213 -216 204.5 -220.5 c 128,-1,77
 196 -225 196 -225 187 -223 c 0,78,79
 165 -217 165 -217 172 -196 c 1,80,-1
 172 -194 l 1,81,-1
 172 -192 l 2,82,83
 173 -191 173 -191 173 -190 c 0,84,85
 174 -188 174 -188 178 -174 c 0,86,87
 183 -154 183 -154 193 -118 c 0,88,89
 240 41 240 41 243 52 c 2,90,-1
 246 61 l 1,91,92
 243 58 243 58 242 56 c 0,93,94
 204 15 204 15 151 7 c 0,95,96
 109 -1 109 -1 -1 3 c 0,97,98
 -10 4 -10 4 -16.5 10.5 c 128,-1,99
 -23 17 -23 17 -23 26 c 0,100,101
 -22 36 -22 36 -15.5 42.5 c 128,-1,102
 -9 49 -9 49 0 48 c 0,103,104
 112 45 112 45 143 51 c 0,105,106
 181 58 181 58 208 87 c 0,107,108
 224 104 224 104 244 134 c 0,109,110
 292 203 292 203 292 209 c 0,111,112
 298 219 298 219 312 219 c 0,113,114
 317 219 317 219 320 218 c 0,115,116
 341 211 341 211 334 189 c 0,59,60
EndSplineSet
Validated: 33
EndChar

StartChar: c
Encoding: 99 99 30
Width: 677
GlyphClass: 2
Flags: W
LayerCount: 2
Fore
SplineSet
-1 45 m 0,0,1
 53 45 53 45 98 93 c 0,2,3
 117 112 117 112 139 145 c 0,4,5
 155 170 155 170 176 208 c 0,6,7
 179 211 179 211 179 213 c 0,8,9
 206 261 206 261 221 282 c 0,10,11
 244 318 244 318 269 343 c 0,12,13
 334 405 334 405 415 392 c 0,14,15
 430 391 430 391 440 376 c 0,16,17
 442 374 442 374 446 368 c 2,18,-1
 447 367 l 2,19,20
 448 366 448 366 448 365 c 2,21,-1
 448 364 l 1,22,23
 453 354 453 354 448 344 c 128,-1,24
 443 334 443 334 432 332 c 0,25,26
 360 319 360 319 333 253 c 0,27,28
 323 227 323 227 323 200.5 c 128,-1,29
 323 174 323 174 334 159 c 0,30,31
 366 111 366 111 460 74 c 0,32,33
 538 43 538 43 585 43 c 0,34,35
 594 43 594 43 601 36.5 c 128,-1,36
 608 30 608 30 608 20 c 0,37,38
 608 11 608 11 601 4.5 c 128,-1,39
 594 -2 594 -2 585 -2 c 0,40,41
 528 -2 528 -2 444 32 c 0,42,43
 336 74 336 74 297 134 c 0,44,45
 279 159 279 159 278 196.5 c 128,-1,46
 277 234 277 234 292 270 c 0,47,48
 309 314 309 314 345 341 c 1,49,50
 325 334 325 334 301 311 c 0,51,52
 282 292 282 292 258 257 c 0,53,54
 240 229 240 229 218 191 c 0,55,56
 218 189 218 189 215 186 c 0,57,58
 192 144 192 144 176 121 c 0,59,60
 153 84 153 84 131 62 c 0,61,62
 72 0 72 0 -1 0 c 0,63,64
 -10 0 -10 0 -16.5 6.5 c 128,-1,65
 -23 13 -23 13 -23 23 c 0,66,67
 -23 32 -23 32 -16.5 38.5 c 128,-1,68
 -10 45 -10 45 -1 45 c 0,0,1
EndSplineSet
Validated: 33
EndChar

StartChar: d
Encoding: 100 100 31
Width: 670
GlyphClass: 2
Flags: W
LayerCount: 2
Fore
SplineSet
2 73 m 0,0,1
 38 72 38 72 72 96 c 0,2,3
 101 117 101 117 135 161 c 0,4,5
 137 164 137 164 144 172 c 128,-1,6
 151 180 151 180 157 187.5 c 128,-1,7
 163 195 163 195 164 196 c 0,8,9
 189 229 189 229 214 254 c 0,10,11
 219 259 219 259 236 276.5 c 128,-1,12
 253 294 253 294 256 297 c 0,13,14
 287 328 287 328 325 345 c 0,15,16
 360 360 360 360 415 358.5 c 128,-1,17
 470 357 470 357 505 340 c 0,18,19
 587 299 587 299 578 240 c 0,20,21
 571 193 571 193 511 163 c 0,22,23
 492 154 492 154 472 153 c 0,24,25
 461 152 461 152 433 152 c 2,26,-1
 428 152 l 2,27,28
 390 152 390 152 375 147 c 0,29,30
 356 139 356 139 351 116 c 0,31,32
 346 91 346 91 355 77 c 0,33,34
 364 64 364 64 391 56 c 0,35,36
 420 47 420 47 459 46 c 0,37,38
 505 44 505 44 546 44 c 2,39,-1
 550 44 l 1,40,-1
 578 44 l 2,41,42
 588 44 588 44 594.5 37.5 c 128,-1,43
 601 31 601 31 601 21 c 0,44,45
 600 12 600 12 593.5 5.5 c 128,-1,46
 587 -1 587 -1 578 -1 c 2,47,-1
 550 -1 l 1,48,-1
 546 -1 l 2,49,50
 503 -1 503 -1 457 1 c 0,51,52
 404 4 404 4 378 13 c 0,53,54
 288 40 288 40 307 126 c 0,55,56
 319 173 319 173 359 189 c 0,57,58
 374 194 374 194 394 196 c 0,59,60
 404 197 404 197 429 197 c 2,61,-1
 433 197 l 2,62,63
 478 197 478 197 491 203 c 0,64,65
 529 224 529 224 534 247 c 0,66,67
 535 257 535 257 527 268 c 0,68,69
 516 284 516 284 485 300 c 0,70,71
 459 313 459 313 414.5 314 c 128,-1,72
 370 315 370 315 344 303 c 0,73,74
 313 290 313 290 288 265 c 0,75,76
 285 263 285 263 277 254.5 c 128,-1,77
 269 246 269 246 259.5 236 c 128,-1,78
 250 226 250 226 246 222 c 0,79,80
 226 202 226 202 199 168 c 0,81,82
 191 160 191 160 170 132 c 0,83,84
 129 82 129 82 99 60 c 0,85,86
 52 27 52 27 0 28 c 0,87,88
 -9 28 -9 28 -15.5 35 c 128,-1,89
 -22 42 -22 42 -21 51 c 0,90,91
 -21 60 -21 60 -14.5 66.5 c 128,-1,92
 -8 73 -8 73 2 73 c 0,0,1
EndSplineSet
Validated: 33
EndChar

StartChar: e
Encoding: 101 101 32
Width: 570
GlyphClass: 2
Flags: W
LayerCount: 2
Fore
SplineSet
10 49 m 2,0,-1
 14 49 l 2,1,2
 88 49 88 49 116 52 c 0,3,4
 146 56 146 56 162 68 c 0,5,6
 264 143 264 143 354 338 c 0,7,8
 435 514 435 514 456 663 c 0,9,10
 457 672 457 672 464.5 678 c 128,-1,11
 472 684 472 684 481 682 c 128,-1,12
 490 680 490 680 495.5 673 c 128,-1,13
 501 666 501 666 500 657 c 0,14,15
 480 506 480 506 395 319 c 0,16,17
 300 113 300 113 189 32 c 0,18,19
 162 12 162 12 122 8 c 0,20,21
 91 4 91 4 14 4 c 2,22,-1
 10 4 l 2,23,24
 1 4 1 4 -5.5 11 c 128,-1,25
 -12 18 -12 18 -12 27 c 128,-1,26
 -12 36 -12 36 -5.5 42.5 c 128,-1,27
 1 49 1 49 10 49 c 2,0,-1
EndSplineSet
Validated: 1
EndChar

StartChar: f
Encoding: 102 102 33
Width: 667
GlyphClass: 2
Flags: W
LayerCount: 2
Fore
SplineSet
322 385 m 1,0,1
 290 389 290 389 266 386 c 0,2,3
 208 383 208 383 178 359 c 0,4,5
 152 339 152 339 165 311 c 0,6,7
 177 284 177 284 210 282 c 0,8,9
 245 282 245 282 283 306 c 0,10,11
 319 331 319 331 327 358 c 0,12,13
 330 373 330 373 322 385 c 1,0,1
14 42 m 0,14,15
 69 39 69 39 141 59.5 c 128,-1,16
 213 80 213 80 273 116 c 0,17,18
 422 205 422 205 411 324 c 0,19,20
 408 352 408 352 373 370 c 1,21,22
 373 358 373 358 370 346 c 0,23,24
 358 301 358 301 308 269 c 0,25,26
 261 237 261 237 209 237 c 0,27,28
 147 239 147 239 123 293 c 0,29,30
 97 355 97 355 151 395 c 0,31,32
 188 423 188 423 253 431 c 1,33,-1
 243 436 l 1,34,35
 207 461 207 461 188 477 c 0,36,37
 159 504 159 504 152 532 c 0,38,39
 140 573 140 573 160 601 c 0,40,41
 177 625 177 625 215 636 c 0,42,43
 245 645 245 645 289 648 c 0,44,45
 333 650 333 650 371 650 c 2,46,-1
 374 650 l 2,47,48
 462 651 462 651 485 655 c 0,49,50
 533 661 533 661 545 676 c 0,51,52
 548 681 548 681 550 683 c 0,53,54
 559 692 559 692 571 691 c 0,55,56
 579 691 579 691 588 685 c 0,57,58
 596 680 596 680 597.5 671 c 128,-1,59
 599 662 599 662 594 654 c 0,60,61
 587 644 587 644 577 644 c 1,62,63
 552 618 552 618 491 610 c 0,64,65
 466 606 466 606 375 605 c 2,66,-1
 371 605 l 2,67,68
 334 605 334 605 292 603 c 0,69,70
 250 600 250 600 228 593 c 0,71,72
 206 587 206 587 197 575 c 0,73,74
 190 565 190 565 195 544 c 0,75,76
 202 515 202 515 267 475 c 0,77,78
 272 472 272 472 286.5 463 c 128,-1,79
 301 454 301 454 313 447 c 128,-1,80
 325 440 325 440 328 438 c 0,81,82
 340 430 340 430 344 426 c 0,83,84
 364 422 364 422 385 414 c 0,85,86
 450 385 450 385 456 328 c 0,87,88
 463 250 463 250 414 182 c 0,89,90
 373 123 373 123 296 77 c 0,91,92
 230 38 230 38 151.5 16 c 128,-1,93
 73 -6 73 -6 12 -3 c 0,94,95
 -10 -1 -10 -1 -10 21 c 0,96,97
 -9 30 -9 30 -2 36.5 c 128,-1,98
 5 43 5 43 14 42 c 0,14,15
EndSplineSet
Validated: 33
EndChar

StartChar: g
Encoding: 103 103 34
Width: 553
GlyphClass: 2
Flags: W
LayerCount: 2
Fore
SplineSet
2 46 m 0,0,1
 20 46 20 46 47 44 c 0,2,3
 89 41 89 41 110 43 c 0,4,5
 144 44 144 44 186 59 c 0,6,7
 288 96 288 96 397 221 c 0,8,9
 441 270 441 270 438 437 c 0,10,11
 436 504 436 504 427 554 c 0,12,13
 426 560 426 560 420 584 c 1,14,15
 418 583 418 583 414 579.5 c 128,-1,16
 410 576 410 576 408 574 c 0,17,18
 374 540 374 540 334 505 c 0,19,20
 268 450 268 450 215 425 c 0,21,22
 149 395 149 395 100 408 c 0,23,24
 78 414 78 414 83 435 c 0,25,26
 85 444 85 444 93.5 449 c 128,-1,27
 102 454 102 454 111 452 c 0,28,29
 145 443 145 443 196 466 c 0,30,31
 245 489 245 489 305 540 c 0,32,33
 331 562 331 562 377 606 c 0,34,35
 384 614 384 614 391 620 c 128,-1,36
 398 626 398 626 400 628 c 0,37,38
 409 635 409 635 410 635 c 0,39,40
 412 637 412 637 416 639 c 0,41,42
 428 643 428 643 436 638 c 0,43,44
 449 632 449 632 459 607 c 0,45,46
 466 589 466 589 471 563 c 0,47,48
 481 511 481 511 483 438 c 0,49,50
 485 362 485 362 474 300 c 0,51,52
 462 225 462 225 431 192 c 0,53,54
 315 59 315 59 202 17 c 0,55,56
 159 1 159 1 113 -2 c 0,57,58
 89 -4 89 -4 44 -1 c 0,59,60
 18 1 18 1 4 1 c 0,61,62
 -6 0 -6 0 -12.5 6.5 c 128,-1,63
 -19 13 -19 13 -20 22 c 0,64,65
 -20 44 -20 44 2 46 c 0,0,1
EndSplineSet
Validated: 33
EndChar

StartChar: h
Encoding: 104 104 35
Width: 840
GlyphClass: 2
Flags: W
LayerCount: 2
Fore
SplineSet
518 482 m 1,0,1
 523 520 523 520 516 545 c 0,2,3
 507 584 507 584 473 606 c 0,4,5
 434 631 434 631 368 631 c 0,6,7
 312 631 312 631 291 594 c 0,8,9
 275 564 275 564 299 528 c 0,10,11
 350 449 350 449 505 479 c 0,12,13
 510 480 510 480 518 482 c 1,0,1
2 48 m 0,14,15
 133 37 133 37 268 129 c 0,16,17
 391 213 391 213 465 339 c 0,18,19
 493 388 493 388 507 434 c 1,20,21
 432 419 432 419 373 431 c 0,22,23
 299 446 299 446 261 503 c 0,24,25
 222 561 222 561 252 615 c 0,26,27
 286 676 286 676 368 676 c 0,28,29
 530 676 530 676 560 556 c 0,30,31
 567 531 567 531 565 493 c 1,32,33
 606 505 606 505 636 518 c 0,34,35
 685 536 685 536 738 563 c 0,36,37
 758 572 758 572 769 553 c 0,38,39
 773 545 773 545 770 536 c 128,-1,40
 767 527 767 527 758 523 c 0,41,42
 708 497 708 497 652 476 c 0,43,44
 604 457 604 457 557 445 c 1,45,46
 544 386 544 386 504 317 c 0,47,48
 426 183 426 183 293 92 c 0,49,50
 143 -9 143 -9 -2 3 c 0,51,52
 -11 4 -11 4 -17 11 c 128,-1,53
 -23 18 -23 18 -22 27 c 0,54,55
 -21 37 -21 37 -14.5 43 c 128,-1,56
 -8 49 -8 49 2 48 c 0,14,15
EndSplineSet
Validated: 33
EndChar

StartChar: i
Encoding: 105 105 36
Width: 591
GlyphClass: 2
Flags: W
LayerCount: 2
Fore
SplineSet
366 535 m 128,-1,1
 380 535 380 535 389.5 525.5 c 128,-1,2
 399 516 399 516 399 502 c 128,-1,3
 399 488 399 488 389.5 478.5 c 128,-1,4
 380 469 380 469 366 469 c 128,-1,5
 352 469 352 469 342 478.5 c 128,-1,6
 332 488 332 488 332 502 c 128,-1,7
 332 516 332 516 342 525.5 c 128,-1,0
 352 535 352 535 366 535 c 128,-1,1
3 53 m 0,8,9
 153 46 153 46 238 118 c 0,10,11
 267 143 267 143 289 180 c 2,12,-1
 295 192 l 2,13,14
 318 243 318 243 327 288 c 0,15,16
 327 293 327 293 331 299 c 0,17,18
 340 313 340 313 355 310 c 0,19,20
 364 308 364 308 369.5 300.5 c 128,-1,21
 375 293 375 293 373 284 c 0,22,23
 361 216 361 216 329 159 c 0,24,25
 326 151 326 151 318.5 136 c 128,-1,26
 311 121 311 121 310 118 c 0,27,28
 301 97 301 97 299 82 c 0,29,30
 299 72 299 72 305 67 c 0,31,32
 315 57 315 57 345 50 c 0,33,34
 357 47 357 47 390 45 c 2,35,-1
 453 45 l 2,36,37
 475 46 475 46 499 46 c 0,38,39
 509 46 509 46 515.5 39.5 c 128,-1,40
 522 33 522 33 522 23 c 0,41,42
 522 14 522 14 515.5 7.5 c 128,-1,43
 509 1 509 1 499 1 c 0,44,45
 475 1 475 1 453 0 c 2,46,-1
 389 0 l 2,47,48
 350 2 350 2 334 6 c 0,49,50
 292 17 292 17 274 35 c 0,51,52
 257 51 257 51 255 74 c 1,53,54
 159 1 159 1 1 8 c 0,55,56
 -21 10 -21 10 -21 32 c 0,57,58
 -20 41 -20 41 -13.5 47.5 c 128,-1,59
 -7 54 -7 54 3 53 c 0,8,9
EndSplineSet
Validated: 33
EndChar

StartChar: j
Encoding: 106 106 37
Width: 455
GlyphClass: 2
Flags: W
LayerCount: 2
Fore
SplineSet
-107 -279 m 0,0,1
 -84 -215 -84 -215 -19 -69 c 0,2,3
 -4 -35 -4 -35 114 224 c 1,4,-1
 115 225 l 1,5,6
 208 427 208 427 256 535 c 0,7,8
 323 685 323 685 341 741 c 0,9,10
 348 762 348 762 370 755 c 0,11,12
 379 752 379 752 383 743.5 c 128,-1,13
 387 735 387 735 384 727 c 0,14,15
 367 675 367 675 297 517 c 0,16,17
 253 419 253 419 156 206 c 0,18,19
 155 206 155 206 155 205 c 0,20,21
 26 -78 26 -78 22 -87 c 0,22,23
 -42 -231 -42 -231 -65 -294 c 0,24,25
 -72 -315 -72 -315 -94 -308 c 0,26,27
 -103 -304 -103 -304 -107 -295.5 c 128,-1,28
 -111 -287 -111 -287 -107 -279 c 0,0,1
EndSplineSet
Validated: 33
EndChar

StartChar: k
Encoding: 107 107 38
Width: 487
GlyphClass: 2
Flags: W
LayerCount: 2
Fore
SplineSet
324 -35 m 0,0,1
 322 -36 322 -36 317 -36 c 0,2,3
 316 -36 316 -36 292 -40 c 0,4,5
 263 -47 263 -47 245 -55 c 0,6,7
 188 -79 188 -79 189 -122 c 0,8,9
 190 -161 190 -161 220 -181 c 0,10,11
 249 -201 249 -201 287 -196 c 0,12,13
 329 -190 329 -190 351 -163 c 0,14,15
 377 -134 377 -134 371 -86 c 0,16,17
 367 -55 367 -55 324 -35 c 0,0,1
11 45 m 2,18,19
 21 46 21 46 24 46 c 0,20,21
 118 47 118 47 188 42 c 0,22,23
 281 32 281 32 332 11 c 0,24,25
 408 -21 408 -21 415 -80 c 0,26,27
 426 -148 426 -148 385 -193 c 0,28,29
 349 -234 349 -234 293 -240 c 0,30,31
 238 -248 238 -248 194 -218 c 0,32,33
 146 -187 146 -187 144 -123 c 0,34,35
 142 -82 142 -82 170 -53 c 0,36,37
 190 -30 190 -30 227 -14 c 0,38,39
 231 -12 231 -12 237 -10 c 1,40,41
 217 -6 217 -6 184 -3 c 0,42,43
 117 2 117 2 25 1 c 1,44,-1
 12 0 l 1,45,-1
 0 0 l 2,46,47
 -9 0 -9 0 -15.5 6.5 c 128,-1,48
 -22 13 -22 13 -22 22 c 0,49,50
 -22 28 -22 28 -16.5 33.5 c 128,-1,51
 -11 39 -11 39 -6 42 c 2,52,-1
 0 45 l 1,53,-1
 11 45 l 2,18,19
EndSplineSet
Validated: 33
EndChar

StartChar: l
Encoding: 108 108 39
Width: 657
GlyphClass: 2
Flags: W
LayerCount: 2
Fore
SplineSet
11 46 m 0,0,1
 35 47 35 47 99 47 c 0,2,3
 130 48 130 48 160 48 c 0,4,5
 274 51 274 51 334 72 c 0,6,7
 418 100 418 100 438 129 c 0,8,9
 452 149 452 149 428 175 c 0,10,11
 405 202 405 202 346 239 c 0,12,13
 340 241 340 241 325 251 c 0,14,15
 323 252 323 252 319 255 c 128,-1,16
 315 258 315 258 310.5 260.5 c 128,-1,17
 306 263 306 263 305 264 c 0,18,19
 288 274 288 274 268 286 c 0,20,21
 248 301 248 301 240 309 c 0,22,23
 233 316 233 316 230 323 c 0,24,25
 225 334 225 334 228 345 c 0,26,27
 239 391 239 391 279 440 c 0,28,29
 311 477 311 477 393 545 c 2,30,-1
 428 574 l 2,31,32
 451 593 451 593 466 606 c 0,33,34
 498 632 498 632 550 678 c 0,35,36
 557 685 557 685 566 684.5 c 128,-1,37
 575 684 575 684 582 677 c 0,38,39
 596 661 596 661 580 645 c 0,40,41
 526 597 526 597 495 571 c 0,42,43
 489 566 489 566 476.5 555.5 c 128,-1,44
 464 545 464 545 457 539 c 0,45,46
 429 516 429 516 421 510 c 0,47,48
 344 446 344 446 314 410 c 0,49,50
 284 375 284 375 273 340 c 1,51,52
 283 330 283 330 293 324 c 0,53,54
 296 322 296 322 328 302 c 0,55,56
 340 294 340 294 348 290 c 0,57,58
 350 288 350 288 358 283.5 c 128,-1,59
 366 279 366 279 369 277 c 0,60,61
 434 237 434 237 462 205 c 0,62,63
 483 181 483 181 487 157 c 0,64,65
 493 129 493 129 475 103 c 0,66,67
 446 62 446 62 348 29 c 0,68,69
 279 6 279 6 161 3 c 0,70,71
 130 3 130 3 99 2 c 0,72,73
 36 2 36 2 13 1 c 0,74,75
 4 0 4 0 -3 6.5 c 128,-1,76
 -10 13 -10 13 -10 22 c 0,77,78
 -11 32 -11 32 -4.5 38.5 c 128,-1,79
 2 45 2 45 11 46 c 0,0,1
EndSplineSet
Validated: 33
EndChar

StartChar: m
Encoding: 109 109 40
Width: 750
GlyphClass: 2
Flags: W
LayerCount: 2
Fore
SplineSet
352 -53 m 1,0,1
 272 -76 272 -76 229 -105 c 0,2,3
 183 -137 183 -137 195 -172 c 0,4,5
 206 -205 206 -205 246 -223 c 0,6,7
 302 -247 302 -247 386 -228 c 0,8,9
 434 -217 434 -217 455 -192 c 0,10,11
 481 -161 481 -161 454 -128 c 0,12,13
 416 -82 416 -82 352 -53 c 1,0,1
8 35 m 0,14,15
 78 36 78 36 128 35 c 0,16,17
 204 32 204 32 258 21 c 0,18,19
 312 12 312 12 355 -6 c 1,20,21
 435 15 435 15 530 26 c 0,22,23
 601 36 601 36 658 36 c 0,24,25
 668 36 668 36 674.5 29.5 c 128,-1,26
 681 23 681 23 681 14 c 0,27,28
 681 4 681 4 674.5 -2.5 c 128,-1,29
 668 -9 668 -9 658 -9 c 0,30,31
 608 -9 608 -9 535 -18 c 0,32,33
 486 -24 486 -24 418 -37 c 1,34,35
 457 -61 457 -61 488 -99 c 0,36,37
 539 -160 539 -160 490 -220 c 0,38,39
 460 -257 460 -257 396 -272 c 0,40,41
 296 -295 296 -295 228 -264 c 0,42,43
 168 -238 168 -238 152 -185 c 0,44,45
 142 -151 142 -151 157 -118 c 0,46,47
 171 -90 171 -90 203 -69 c 0,48,49
 231 -48 231 -48 280 -29 c 1,50,-1
 250 -23 l 2,51,52
 196 -13 196 -13 126 -10 c 0,53,54
 78 -9 78 -9 9 -10 c 0,55,56
 -1 -10 -1 -10 -7.5 -3.5 c 128,-1,57
 -14 3 -14 3 -14 12 c 0,58,59
 -15 22 -15 22 -8.5 28.5 c 128,-1,60
 -2 35 -2 35 8 35 c 0,14,15
EndSplineSet
Validated: 33
EndChar

StartChar: n
Encoding: 110 110 41
Width: 582
GlyphClass: 2
Flags: W
LayerCount: 2
Fore
SplineSet
1 47 m 0,0,1
 79 48 79 48 104 54 c 0,2,3
 139 62 139 62 171 90 c 0,4,5
 178 96 178 96 195 121 c 0,6,7
 201 129 201 129 204 134 c 0,8,9
 207 138 207 138 213 147.5 c 128,-1,10
 219 157 219 157 222 161 c 0,11,12
 226 169 226 169 234 181 c 2,13,-1
 238 187 l 1,14,-1
 241 190 l 1,15,-1
 244 193 l 2,16,17
 248 195 248 195 249 195 c 0,18,19
 254 198 254 198 261 196 c 0,20,21
 270 194 270 194 276 187 c 0,22,23
 279 181 279 181 279 177 c 2,24,-1
 279 170 l 2,25,26
 279 169 279 169 278 168 c 2,27,-1
 278 166 l 2,28,29
 277 163 277 163 268 145 c 0,30,31
 262 133 262 133 261 130 c 0,32,33
 251 112 251 112 249 103 c 0,34,35
 241 79 241 79 257 68 c 0,36,37
 281 51 281 51 297 55 c 0,38,39
 309 58 309 58 318 74 c 0,40,41
 341 114 341 114 334 169 c 0,42,43
 334 179 334 179 325 199 c 0,44,45
 314 222 314 222 297 244 c 0,46,47
 286 260 286 260 270 277 c 0,48,49
 267 281 267 281 261 287 c 0,50,51
 259 289 259 289 259 290 c 1,52,-1
 258 290 l 1,53,54
 244 304 244 304 256 320 c 0,55,56
 278 347 278 347 305 371 c 0,57,58
 330 393 330 393 358 414 c 0,59,60
 361 417 361 417 362 417 c 0,61,62
 407 453 407 453 422 468 c 0,63,64
 454 495 454 495 471 524 c 0,65,66
 484 542 484 542 503 530 c 0,67,68
 511 525 511 525 512.5 516 c 128,-1,69
 514 507 514 507 509 499 c 0,70,71
 488 467 488 467 453 435 c 0,72,73
 428 411 428 411 390 382 c 2,74,-1
 386 379 l 2,75,76
 345 346 345 346 335 337 c 0,77,78
 319 324 319 324 304 307 c 1,79,80
 324 283 324 283 334 270 c 0,81,82
 354 244 354 244 366 218 c 0,83,84
 378 191 378 191 379 173 c 0,85,86
 386 101 386 101 357 52 c 0,87,88
 337 17 337 17 304.5 10.5 c 128,-1,89
 272 4 272 4 232 30 c 0,90,91
 213 44 213 44 206 61 c 1,92,93
 204 60 204 60 201 57 c 0,94,95
 159 21 159 21 114 11 c 0,96,97
 80 3 80 3 1 2 c 0,98,99
 -8 2 -8 2 -14.5 8 c 128,-1,100
 -21 14 -21 14 -21 24 c 0,101,102
 -22 33 -22 33 -15.5 40 c 128,-1,103
 -9 47 -9 47 1 47 c 0,0,1
EndSplineSet
Validated: 33
EndChar

StartChar: o
Encoding: 111 111 42
Width: 274
GlyphClass: 2
Flags: W
LayerCount: 2
Fore
SplineSet
102 584 m 0,0,1
 107 586 107 586 116 586 c 0,2,3
 147 582 147 582 170 559 c 128,-1,4
 193 536 193 536 201 503 c 0,5,6
 209 468 209 468 196.5 438 c 128,-1,7
 184 408 184 408 152 395 c 0,8,9
 100 373 100 373 55 398 c 0,10,11
 16 420 16 420 2 464 c 0,12,13
 -11 510 -11 510 12 544 c 0,14,15
 35 573 35 573 74 576 c 1,16,17
 83 590 83 590 98 585 c 0,18,19
 100 585 100 585 102 584 c 0,0,1
97 531 m 0,20,21
 62 535 62 535 49 517 c 0,22,23
 38 503 38 503 45 477 c 0,24,25
 55 449 55 449 77 437 c 0,26,27
 102 423 102 423 134 436 c 0,28,29
 168 450 168 450 158 493 c 0,30,31
 148 532 148 532 117 540 c 1,32,33
 110 531 110 531 97 531 c 0,20,21
EndSplineSet
Validated: 33
EndChar

StartChar: p
Encoding: 112 112 43
Width: 962
GlyphClass: 2
Flags: W
LayerCount: 2
Fore
SplineSet
475 632 m 1,0,1
 456 639 456 639 422 647 c 0,2,3
 366 661 366 661 312 655 c 0,4,5
 289 653 289 653 263.5 638 c 128,-1,6
 238 623 238 623 223 604 c 0,7,8
 208 584 208 584 209 566 c 0,9,10
 209 546 209 546 232 527 c 0,11,12
 273 493 273 493 340 519 c 0,13,14
 400 540 400 540 445 591 c 0,15,16
 445 592 445 592 453 603 c 128,-1,17
 461 614 461 614 463 617 c 0,18,19
 464 618 464 618 466 620.5 c 128,-1,20
 468 623 468 623 469 624 c 0,21,22
 470 626 470 626 472 628 c 128,-1,23
 474 630 474 630 475 632 c 1,0,1
6 52 m 0,24,25
 156 49 156 49 257 89 c 0,26,27
 381 138 381 138 419 246 c 0,28,29
 428 270 428 270 433 322 c 0,30,31
 433 328 433 328 434 330 c 0,32,33
 440 387 440 387 450 414 c 0,34,35
 461 444 461 444 477 525 c 0,36,37
 483 550 483 550 486 572 c 1,38,39
 481 563 481 563 478 562 c 0,40,41
 428 504 428 504 356 477 c 0,42,43
 263 442 263 442 203 493 c 0,44,45
 168 522 168 522 164 559.5 c 128,-1,46
 160 597 160 597 187 631 c 0,47,48
 208 658 208 658 242 677 c 128,-1,49
 276 696 276 696 308 700 c 0,50,51
 371 706 371 706 432 691 c 0,52,53
 475 682 475 682 535 657 c 0,54,55
 588 636 588 636 592 635 c 0,56,57
 665 611 665 611 714 617 c 0,58,59
 740 620 740 620 761 633 c 0,60,61
 774 641 774 641 793 662 c 0,62,63
 794 664 794 664 800 670 c 128,-1,64
 806 676 806 676 808 678 c 0,65,66
 820 692 820 692 831 701 c 0,67,68
 845 712 845 712 863 718 c 0,69,70
 884 725 884 725 891 704 c 128,-1,71
 898 683 898 683 877 676 c 0,72,73
 862 671 862 671 841 648 c 0,74,75
 840 646 840 646 834 640 c 128,-1,76
 828 634 828 634 827 632 c 0,77,78
 804 608 804 608 785 595 c 0,79,80
 755 576 755 576 720 572 c 0,81,82
 656 565 656 565 577 593 c 0,83,84
 571 595 571 595 566.5 596.5 c 128,-1,85
 562 598 562 598 554 601 c 128,-1,86
 546 604 546 604 536 608 c 1,87,88
 536 603 536 603 534 587 c 0,89,90
 528 549 528 549 521 516 c 0,91,92
 505 427 505 427 492 398 c 0,93,94
 484 376 484 376 478 325 c 1,95,-1
 478 318 l 2,96,97
 477 306 477 306 475 293 c 128,-1,98
 473 280 473 280 473 274 c 0,99,100
 470 258 470 258 462 230 c 0,101,102
 415 104 415 104 274 47 c 0,103,104
 159 2 159 2 4 7 c 0,105,106
 -5 7 -5 7 -11.5 14 c 128,-1,107
 -18 21 -18 21 -18 30 c 0,108,109
 -16 52 -16 52 6 52 c 0,24,25
EndSplineSet
Validated: 33
EndChar

StartChar: q
Encoding: 113 113 44
Width: 516
GlyphClass: 2
Flags: W
LayerCount: 2
Fore
SplineSet
314 -8 m 1,0,1
 339 63 339 63 347 96 c 0,2,3
 354 130 354 130 353 143 c 0,4,5
 353 152 353 152 352 155 c 0,6,7
 352 156 352 156 352 157 c 2,8,-1
 351 158 l 2,9,10
 351 159 351 159 350 159 c 2,11,-1
 349 159 l 2,12,13
 348 160 348 160 344 159 c 0,14,15
 333 157 333 157 318 149 c 0,16,17
 282 125 282 125 253 87 c 0,18,19
 223 44 223 44 221 15 c 0,20,21
 219 -11 219 -11 249 -18 c 0,22,23
 283 -28 283 -28 314 -8 c 1,0,1
-7 38 m 0,24,25
 10 38 10 38 35 83 c 0,26,27
 39 89 39 89 54 117.5 c 128,-1,28
 69 146 69 146 71 149 c 0,29,30
 107 213 107 213 139 241 c 0,31,32
 201 297 201 297 266 324 c 0,33,34
 341 354 341 354 400 329 c 0,35,36
 422 319 422 319 434 291 c 0,37,38
 443 267 443 267 446 235 c 0,39,40
 451 171 451 171 429 98 c 0,41,42
 404 16 404 16 362 -25 c 0,43,44
 359 -29 359 -29 351 -35 c 1,45,46
 348 -47 348 -47 344 -54 c 0,47,48
 340 -69 340 -69 332 -84 c 0,49,50
 322 -118 322 -118 310 -141 c 0,51,52
 292 -189 292 -189 291 -191 c 0,53,54
 271 -242 271 -242 270 -259 c 0,55,56
 268 -269 268 -269 261 -274.5 c 128,-1,57
 254 -280 254 -280 245 -279 c 128,-1,58
 236 -278 236 -278 230 -271 c 128,-1,59
 224 -264 224 -264 225 -254 c 0,60,61
 228 -231 228 -231 249 -175 c 0,62,63
 255 -157 255 -157 268 -124 c 0,64,65
 269 -122 269 -122 273.5 -111 c 128,-1,66
 278 -100 278 -100 283.5 -86 c 128,-1,67
 289 -72 289 -72 291 -68 c 0,68,69
 291 -66 291 -66 292 -65 c 1,70,71
 265 -69 265 -69 237 -62 c 0,72,73
 173 -44 173 -44 176 17 c 0,74,75
 177 60 177 60 217 114 c 0,76,77
 250 158 250 158 295 187 c 0,78,79
 319 201 319 201 338 204 c 0,80,81
 366 207 366 207 382 191 c 0,82,83
 394 179 394 179 397 160 c 1,84,85
 403 196 403 196 401 232 c 0,86,87
 399 258 399 258 392 273 c 0,88,89
 388 285 388 285 382 287 c 0,90,91
 342 305 342 305 286 284 c 128,-1,92
 230 263 230 263 169 208 c 0,93,94
 142 184 142 184 110 127 c 0,95,96
 108 124 108 124 101 110.5 c 128,-1,97
 94 97 94 97 85 80.5 c 128,-1,98
 76 64 76 64 74 60 c 0,99,100
 58 32 58 32 42 16 c 0,101,102
 20 -6 20 -6 -6 -7 c 0,103,104
 -15 -7 -15 -7 -22 -0.5 c 128,-1,105
 -29 6 -29 6 -29 15 c 0,106,107
 -29 25 -29 25 -22.5 31.5 c 128,-1,108
 -16 38 -16 38 -7 38 c 0,24,25
EndSplineSet
Validated: 33
EndChar

StartChar: r
Encoding: 114 114 45
Width: 383
GlyphClass: 2
Flags: W
LayerCount: 2
Fore
SplineSet
312 208 m 0,0,1
 293 141 293 141 284 113 c 0,2,3
 280 95 280 95 268 59 c 0,4,5
 259 26 259 26 252 5 c 0,6,7
 225 -86 225 -86 207 -156 c 0,8,9
 206 -159 206 -159 202 -175 c 128,-1,10
 198 -191 198 -191 196 -202 c 0,11,12
 196 -203 196 -203 194 -213 c 0,13,14
 184 -258 184 -258 176 -287 c 0,15,16
 175 -289 175 -289 173.5 -292.5 c 128,-1,17
 172 -296 172 -296 172 -297 c 0,18,19
 167 -306 167 -306 160 -309 c 0,20,21
 150 -315 150 -315 136 -308 c 0,22,23
 129 -304 129 -304 126 -296 c 0,24,25
 122 -286 122 -286 125 -275 c 128,-1,26
 128 -264 128 -264 137 -258 c 0,27,28
 139 -252 139 -252 140.5 -244 c 128,-1,29
 142 -236 142 -236 145 -224.5 c 128,-1,30
 148 -213 148 -213 150 -203 c 0,31,32
 150 -201 150 -201 151 -197.5 c 128,-1,33
 152 -194 152 -194 152 -192 c 0,34,35
 158 -166 158 -166 163 -145 c 0,36,37
 183 -69 183 -69 209 18 c 0,38,39
 216 39 216 39 225 72 c 0,40,41
 226 74 226 74 228 80 c 1,42,43
 206 63 206 63 184 49 c 0,44,45
 98 -1 98 -1 2 1 c 0,46,47
 -8 1 -8 1 -14.5 7.5 c 128,-1,48
 -21 14 -21 14 -21 23 c 0,49,50
 -21 33 -21 33 -14 39.5 c 128,-1,51
 -7 46 -7 46 2 46 c 0,52,53
 88 46 88 46 161 88 c 0,54,55
 241 134 241 134 264 214 c 0,56,57
 266 220 266 220 271 224 c 0,58,59
 280 241 280 241 297 236 c 0,60,61
 306 233 306 233 310.5 225 c 128,-1,62
 315 217 315 217 312 208 c 0,0,1
EndSplineSet
Validated: 33
EndChar

StartChar: s
Encoding: 115 115 46
Width: 573
GlyphClass: 2
Flags: W
LayerCount: 2
Fore
SplineSet
219 61 m 1,0,1
 285 69 285 69 319 78 c 0,2,3
 398 97 398 97 423 130 c 0,4,5
 457 177 457 177 458 207 c 0,6,7
 461 229 461 229 446 244 c 0,8,9
 433 257 433 257 409.5 261.5 c 128,-1,10
 386 266 386 266 368 259 c 0,11,12
 313 237 313 237 263 150 c 0,13,14
 239 109 239 109 219 61 c 1,0,1
0 43 m 0,15,16
 4 43 4 43 24 44.5 c 128,-1,17
 44 46 44 46 59 47 c 0,18,19
 67 49 67 49 80 49 c 0,20,21
 84 49 84 49 91 49.5 c 128,-1,22
 98 50 98 50 101 50 c 0,23,24
 120 52 120 52 145 54 c 0,25,26
 154 54 154 54 168 56 c 1,27,28
 197 128 197 128 224 173 c 0,29,30
 282 272 282 272 352 300 c 0,31,32
 381 312 381 312 418 305.5 c 128,-1,33
 455 299 455 299 478 276 c 0,34,35
 507 247 507 247 503 204 c 0,36,37
 500 159 500 159 459 104 c 0,38,39
 426 59 426 59 330 34 c 0,40,41
 282 22 282 22 201 14 c 1,42,43
 194 -3 194 -3 182 -39 c 0,44,45
 153 -132 153 -132 124 -253 c 0,46,47
 117 -281 117 -281 105 -327 c 0,48,49
 104 -331 104 -331 101.5 -339.5 c 128,-1,50
 99 -348 99 -348 98 -351 c 0,51,52
 97 -353 97 -353 95.5 -356 c 128,-1,53
 94 -359 94 -359 94 -360 c 0,54,55
 90 -366 90 -366 84 -371 c 0,56,57
 63 -384 63 -384 53 -365 c 0,58,59
 43 -352 43 -352 54 -339 c 1,60,-1
 56 -335 l 2,61,62
 58 -327 58 -327 62 -315 c 0,63,64
 67 -298 67 -298 80 -243 c 0,65,66
 115 -100 115 -100 140 -25 c 0,67,68
 144 -10 144 -10 151 9 c 1,69,-1
 148 9 l 2,70,71
 119 7 119 7 104 5 c 0,72,73
 91 5 91 5 83 4 c 0,74,75
 70 4 70 4 62 2 c 0,76,77
 24 0 24 0 4 -2 c 0,78,79
 -5 -3 -5 -3 -12 3 c 128,-1,80
 -19 9 -19 9 -20 19 c 0,81,82
 -21 28 -21 28 -15 35 c 128,-1,83
 -9 42 -9 42 0 43 c 0,15,16
EndSplineSet
Validated: 33
EndChar

StartChar: t
Encoding: 116 116 47
Width: 648
GlyphClass: 2
Flags: W
LayerCount: 2
Fore
SplineSet
-7 48 m 0,0,1
 21 50 21 50 88 50 c 0,2,3
 172 49 172 49 215 55 c 0,4,5
 286 65 286 65 351 106 c 0,6,7
 434 158 434 158 484.5 241.5 c 128,-1,8
 535 325 535 325 533 405 c 128,-1,9
 531 485 531 485 476 533 c 0,10,11
 413 588 413 588 290 588 c 0,12,13
 280 588 280 588 273.5 594.5 c 128,-1,14
 267 601 267 601 267 611 c 0,15,16
 267 620 267 620 273.5 626.5 c 128,-1,17
 280 633 280 633 290 633 c 0,18,19
 428 633 428 633 505 567 c 0,20,21
 575 508 575 508 578 406 c 0,22,23
 580 313 580 313 524 219.5 c 128,-1,24
 468 126 468 126 375 68 c 0,25,26
 305 23 305 23 221 11 c 0,27,28
 191 6 191 6 155 5 c 2,29,-1
 88 5 l 2,30,31
 22 5 22 5 -5 3 c 0,32,33
 -14 3 -14 3 -21 9.5 c 128,-1,34
 -28 16 -28 16 -28 25 c 0,35,36
 -29 34 -29 34 -22.5 41 c 128,-1,37
 -16 48 -16 48 -7 48 c 0,0,1
EndSplineSet
Validated: 33
EndChar

StartChar: u
Encoding: 117 117 48
Width: 727
GlyphClass: 2
Flags: W
LayerCount: 2
Fore
SplineSet
-1 50 m 0,0,1
 38 50 38 50 91 81.5 c 128,-1,2
 144 113 144 113 195 166 c 0,3,4
 222 193 222 193 243 222 c 1,5,-1
 248 242 l 2,6,7
 248 244 248 244 249.5 248.5 c 128,-1,8
 251 253 251 253 253.5 261.5 c 128,-1,9
 256 270 256 270 259 279 c 1,10,-1
 260 280 l 1,11,12
 262 288 262 288 268 304 c 0,13,14
 268 307 268 307 270 311 c 2,15,-1
 270 312 l 1,16,-1
 271 314 l 2,17,18
 275 326 275 326 287.5 329 c 128,-1,19
 300 332 300 332 308 323 c 0,20,21
 325 307 325 307 320 279 c 0,22,23
 317 263 317 263 304 234 c 0,24,25
 292 214 292 214 285 204 c 1,26,27
 283 194 283 194 282 191 c 0,28,29
 276 162 276 162 273 137 c 0,30,31
 269 100 269 100 275 77 c 0,32,33
 281 59 281 59 295 56 c 0,34,35
 330 50 330 50 361.5 83 c 128,-1,36
 393 116 393 116 422 187 c 0,37,38
 438 228 438 228 451 268 c 0,39,40
 460 294 460 294 462 301 c 0,41,42
 467 316 467 316 471 324 c 0,43,44
 472 327 472 327 476 331 c 0,45,46
 488 343 488 343 503 335 c 0,47,48
 511 331 511 331 514 322 c 128,-1,49
 517 313 517 313 513 305 c 0,50,51
 507 294 507 294 505 286 c 0,52,53
 494 246 494 246 496 190 c 0,54,55
 496 152 496 152 502 127 c 0,56,57
 504 114 504 114 508 106 c 0,58,59
 509 103 509 103 511 99 c 2,60,-1
 512 97 l 1,61,62
 532 77 532 77 560 64 c 0,63,64
 590 52 590 52 634 54 c 0,65,66
 643 55 643 55 650 48.5 c 128,-1,67
 657 42 657 42 658 33 c 0,68,69
 658 11 658 11 636 9 c 0,70,71
 544 4 544 4 481 65 c 0,72,73
 459 85 459 85 453 146 c 1,74,75
 426 88 426 88 398 57 c 0,76,77
 349 2 349 2 287 12 c 0,78,79
 245 18 245 18 232 64 c 0,80,81
 224 91 224 91 227 134 c 1,82,83
 173 78 173 78 118 45 c 0,84,85
 53 5 53 5 -1 5 c 0,86,87
 -10 5 -10 5 -16.5 11.5 c 128,-1,88
 -23 18 -23 18 -23 27 c 0,89,90
 -23 37 -23 37 -16.5 43.5 c 128,-1,91
 -10 50 -10 50 -1 50 c 0,0,1
EndSplineSet
Validated: 33
EndChar

StartChar: v
Encoding: 118 118 49
Width: 868
GlyphClass: 2
Flags: W
LayerCount: 2
Fore
SplineSet
313 337 m 0,0,1
 313 274 313 274 299 257 c 1,2,-1
 298 255 l 1,3,-1
 297 254 l 1,4,-1
 296 253 l 2,5,6
 296 252 296 252 296 251 c 0,7,8
 269 158 269 158 265 111 c 0,9,10
 259 70 259 70 267 57 c 2,11,-1
 268 56 l 1,12,-1
 269 56 l 2,13,14
 270 56 270 56 274 58 c 0,15,16
 290 62 290 62 317 88 c 0,17,18
 373 140 373 140 422 220 c 0,19,20
 445 257 445 257 457 285 c 0,21,22
 463 304 463 304 464 309 c 0,23,24
 465 311 465 311 465 315 c 2,25,-1
 465 321 l 2,26,27
 463 342 463 342 483 346 c 0,28,29
 505 351 505 351 510 328 c 0,30,31
 510 327 510 327 510.5 323.5 c 128,-1,32
 511 320 511 320 511 318 c 0,33,34
 519 277 519 277 513 254 c 0,35,36
 512 246 512 246 506 232 c 0,37,38
 504 230 504 230 501.5 225 c 128,-1,39
 499 220 499 220 497 218 c 0,40,41
 491 211 491 211 488 202 c 0,42,43
 482 177 482 177 480 171 c 0,44,45
 472 141 472 141 467 118 c 0,46,47
 467 117 467 117 466.5 115 c 128,-1,48
 466 113 466 113 466 111 c 0,49,50
 460 72 460 72 465 57 c 1,51,52
 474 61 474 61 489 74 c 0,53,54
 509 93 509 93 532 123 c 0,55,56
 556 153 556 153 578 189 c 1,57,58
 581 207 581 207 587 224 c 0,59,60
 591 240 591 240 609 284 c 0,61,62
 612 292 612 292 624 322 c 0,63,64
 626 324 626 324 628 329 c 128,-1,65
 630 334 630 334 631 335 c 0,66,67
 633 338 633 338 637 342 c 0,68,69
 640 347 640 347 647 348 c 0,70,71
 659 351 659 351 670 342 c 0,72,73
 680 332 680 332 680 315 c 0,74,75
 680 304 680 304 677 289 c 0,76,77
 669 264 669 264 653 230 c 0,78,79
 644 212 644 212 622 174 c 1,80,81
 621 152 621 152 627 131 c 0,82,83
 638 101 638 101 667 80 c 0,84,85
 695 59 695 59 727 50 c 0,86,87
 754 41 754 41 775 41 c 0,88,89
 785 42 785 42 791.5 35.5 c 128,-1,90
 798 29 798 29 799 19 c 0,91,92
 799 10 799 10 792.5 3.5 c 128,-1,93
 786 -3 786 -3 777 -4 c 0,94,95
 749 -6 749 -6 713 7 c 0,96,97
 673 19 673 19 640 44 c 0,98,99
 600 75 600 75 585 116 c 1,100,-1
 584 117 l 1,101,102
 582 113 582 113 576 106 c 128,-1,103
 570 99 570 99 568 95 c 0,104,105
 508 19 508 19 471 12 c 0,106,107
 435 4 435 4 422 41 c 0,108,109
 413 68 413 68 422 118 c 0,110,111
 422 123 422 123 423 126 c 0,112,113
 425 140 425 140 427 147 c 1,114,115
 385 91 385 91 348 55 c 0,116,117
 315 25 315 25 289 15 c 0,118,119
 249 0 249 0 229 33 c 0,120,121
 210 65 210 65 225 149 c 1,122,123
 223 147 223 147 219.5 142.5 c 128,-1,124
 216 138 216 138 214 136 c 0,125,126
 168 77 168 77 117 43 c 0,127,128
 57 3 57 3 -1 4 c 0,129,130
 -10 5 -10 5 -16.5 11.5 c 128,-1,131
 -23 18 -23 18 -23 28 c 0,132,133
 -22 37 -22 37 -15.5 43.5 c 128,-1,134
 -9 50 -9 50 1 49 c 0,135,136
 85 46 85 46 179 164 c 0,137,138
 220 216 220 216 243 264 c 128,-1,139
 266 312 266 312 266 337 c 0,140,141
 266 347 266 347 272.5 353.5 c 128,-1,142
 279 360 279 360 288 360 c 2,143,-1
 290 360 l 1,144,-1
 291 360 l 2,145,146
 300 360 300 360 306.5 353.5 c 128,-1,147
 313 347 313 347 313 337 c 0,0,1
EndSplineSet
Validated: 33
EndChar

StartChar: w
Encoding: 119 119 50
Width: 630
GlyphClass: 2
Flags: W
LayerCount: 2
Fore
SplineSet
173 49 m 1,0,-1
 173 25 l 1,1,2
 229 15 229 15 260 13 c 0,3,4
 407 -1 407 -1 483 56 c 0,5,6
 518 82 518 82 515 103 c 0,7,8
 506 150 506 150 456 168 c 0,9,10
 404 185 404 185 335 170 c 0,11,12
 264 153 264 153 217 112 c 0,13,14
 185 83 185 83 173 49 c 1,0,-1
-2 48 m 0,15,16
 28 48 28 48 70 42 c 0,17,18
 94 38 94 38 109 35 c 0,19,20
 112 35 112 35 124 33 c 1,21,22
 126 49 126 49 129 57 c 0,23,24
 133 144 133 144 154 197 c 0,25,26
 167 229 167 229 191 259 c 0,27,28
 207 280 207 280 244 314 c 0,29,30
 264 334 264 334 308 356.5 c 128,-1,31
 352 379 352 379 394 391 c 0,32,33
 450 405 450 405 487 397 c 0,34,35
 540 385 540 385 552 332 c 0,36,37
 557 310 557 310 536 305 c 0,38,39
 514 300 514 300 509 322 c 0,40,41
 502 347 502 347 477 353 c 0,42,43
 450 359 450 359 406 347 c 0,44,45
 371 338 371 338 326 315 c 0,46,47
 288 295 288 295 274 281 c 0,48,49
 214 225 214 225 196 180 c 0,50,51
 189 165 189 165 184 143 c 1,52,53
 185 143 185 143 187 145 c 0,54,55
 243 195 243 195 325 214 c 0,56,57
 408 233 408 233 471 210 c 0,58,59
 547 183 547 183 559 110 c 0,60,61
 563 80 563 80 545 54 c 0,62,63
 534 39 534 39 510 20 c 0,64,65
 459 -18 459 -18 387 -30 c 0,66,67
 327 -39 327 -39 256 -32 c 0,68,69
 206 -27 206 -27 165 -20 c 1,70,71
 157 -26 157 -26 150 -26 c 0,72,73
 137 -26 137 -26 130 -14 c 1,74,-1
 64 -3 l 2,75,76
 25 3 25 3 -2 3 c 0,77,78
 -11 3 -11 3 -17.5 9.5 c 128,-1,79
 -24 16 -24 16 -24 25 c 0,80,81
 -24 35 -24 35 -17.5 41.5 c 128,-1,82
 -11 48 -11 48 -2 48 c 0,15,16
EndSplineSet
Validated: 33
EndChar

StartChar: x
Encoding: 120 120 51
Width: 764
GlyphClass: 2
Flags: W
LayerCount: 2
Fore
SplineSet
0 42 m 0,0,1
 45 42 45 42 101 86 c 0,2,3
 137 114 137 114 207 188 c 0,4,5
 213 197 213 197 232 216 c 0,6,7
 249 235 249 235 257 242 c 0,8,9
 285 273 285 273 307 291 c 0,10,11
 364 343 364 343 414 349 c 0,12,13
 452 353 452 353 473 317 c 0,14,15
 483 300 483 300 495 251 c 0,16,17
 495 244 495 244 502 219 c 0,18,19
 503 216 503 216 505.5 204 c 128,-1,20
 508 192 508 192 510 186 c 0,21,22
 528 126 528 126 558 96 c 0,23,24
 598 56 598 56 672 56 c 0,25,26
 682 56 682 56 688.5 49.5 c 128,-1,27
 695 43 695 43 695 34 c 0,28,29
 695 24 695 24 688.5 17.5 c 128,-1,30
 682 11 682 11 672 11 c 0,31,32
 582 11 582 11 527 64 c 0,33,34
 489 101 489 101 467 174 c 0,35,36
 461 196 461 196 458 209 c 0,37,38
 451 234 451 234 451 241 c 0,39,40
 443 279 443 279 434 294 c 0,41,42
 428 305 428 305 419 304 c 0,43,44
 385 300 385 300 336 258 c 0,45,46
 315 239 315 239 289 211 c 0,47,48
 283 205 283 205 265 185 c 0,49,50
 244 164 244 164 240 158 c 0,51,52
 174 86 174 86 129 50 c 0,53,54
 59 -3 59 -3 0 -3 c 0,55,56
 -9 -3 -9 -3 -16 3.5 c 128,-1,57
 -23 10 -23 10 -23 19 c 0,58,59
 -23 29 -23 29 -16.5 35.5 c 128,-1,60
 -10 42 -10 42 0 42 c 0,0,1
EndSplineSet
Validated: 33
EndChar

StartChar: y
Encoding: 121 121 52
Width: 932
GlyphClass: 2
Flags: W
LayerCount: 2
Fore
SplineSet
460 670 m 0,0,1
 433 589 433 589 447 513 c 0,2,3
 453 483 453 483 465 473 c 0,4,5
 468 470 468 470 472 470 c 0,6,7
 476 469 476 469 486 474 c 0,8,9
 519 492 519 492 565 548 c 2,10,-1
 602 593 l 2,11,12
 657 663 657 663 699 694 c 0,13,14
 766 742 766 742 840 742 c 0,15,16
 850 742 850 742 856.5 735.5 c 128,-1,17
 863 729 863 729 863 719 c 0,18,19
 863 710 863 710 856.5 703.5 c 128,-1,20
 850 697 850 697 840 697 c 0,21,22
 778 697 778 697 726 657 c 0,23,24
 688 628 688 628 637 565 c 0,25,26
 608 529 608 529 600 519 c 0,27,28
 548 457 548 457 508 434 c 0,29,30
 465 412 465 412 435 439 c 0,31,32
 412 459 412 459 403 504 c 2,33,-1
 400 525 l 1,34,35
 357 429 357 429 304 332 c 0,36,37
 234 208 234 208 171 131 c 0,38,39
 168 127 168 127 161.5 120 c 128,-1,40
 155 113 155 113 152 109 c 1,41,42
 153 109 153 109 155 109.5 c 128,-1,43
 157 110 157 110 158 110 c 0,44,45
 210 116 210 116 280 96 c 0,46,47
 281 96 281 96 286 94.5 c 128,-1,48
 291 93 291 93 294 92 c 0,49,50
 298 90 298 90 301 90 c 1,51,52
 301 89 301 89 304 88 c 2,53,-1
 307 87 l 2,54,55
 355 72 355 72 380 69 c 0,56,57
 419 62 419 62 463 68 c 0,58,59
 513 76 513 76 516 77 c 0,60,61
 523 78 523 78 561.5 85 c 128,-1,62
 600 92 600 92 608 93 c 0,63,64
 685 106 685 106 759 105 c 0,65,66
 769 105 769 105 775.5 98.5 c 128,-1,67
 782 92 782 92 781 83 c 0,68,69
 781 73 781 73 774.5 66.5 c 128,-1,70
 768 60 768 60 759 60 c 0,71,72
 691 61 691 61 616 49 c 0,73,74
 613 48 613 48 573 41 c 128,-1,75
 533 34 533 34 524 32 c 0,76,77
 488 26 488 26 470 24 c 0,78,79
 420 17 420 17 373 24 c 0,80,81
 351 28 351 28 294 44 c 2,82,-1
 291 45 l 2,83,84
 287 46 287 46 287 47 c 1,85,86
 284 47 284 47 280 49 c 0,87,88
 272 51 272 51 267 53 c 0,89,90
 206 70 206 70 164 65 c 128,-1,91
 122 60 122 60 74 35 c 1,92,93
 55 19 55 19 26 5 c 1,94,-1
 25 5 l 2,95,96
 24 4 24 4 18 1 c 0,97,98
 -3 -8 -3 -8 -12 13 c 0,99,100
 -21 33 -21 33 0 42 c 1,101,-1
 1 43 l 2,102,103
 2 44 2 44 3 44 c 0,104,105
 12 50 12 50 50 73 c 1,106,107
 150 150 150 150 264 354 c 0,108,109
 318 450 318 450 363 554 c 0,110,111
 397 628 397 628 417 689 c 0,112,113
 420 698 420 698 428 702.5 c 128,-1,114
 436 707 436 707 445 704 c 0,115,116
 463 697 463 697 461 680 c 0,117,118
 461 673 461 673 460 670 c 0,0,1
EndSplineSet
Validated: 33
EndChar

StartChar: z
Encoding: 122 122 53
Width: 724
GlyphClass: 2
Flags: W
LayerCount: 2
Fore
SplineSet
525 312 m 0,0,1
 450 245 450 245 424 153 c 0,2,3
 411 110 411 110 417 82 c 0,4,5
 422 56 422 56 439 44 c 1,6,-1
 441 44 l 2,7,8
 448 44 448 44 461 47 c 0,9,10
 465 48 465 48 475 49.5 c 128,-1,11
 485 51 485 51 491 52 c 0,12,13
 510 57 510 57 526 59 c 0,14,15
 531 60 531 60 564 66 c 0,16,17
 604 74 604 74 630 75 c 0,18,19
 652 75 652 75 654 53 c 0,20,21
 655 44 655 44 648.5 37 c 128,-1,22
 642 30 642 30 633 30 c 0,23,24
 613 29 613 29 572 22 c 0,25,26
 543 17 543 17 535 15 c 0,27,28
 532 14 532 14 499 8 c 0,29,30
 492 6 492 6 482 4.5 c 128,-1,31
 472 3 472 3 468 2 c 0,32,33
 453 -1 453 -1 443 -1 c 0,34,35
 426 -1 426 -1 417 4 c 0,36,37
 380 28 380 28 372 75 c 0,38,39
 366 115 366 115 380 166 c 0,40,41
 382 170 382 170 384 177.5 c 128,-1,42
 386 185 386 185 388 189 c 1,43,44
 378 181 378 181 374 177 c 0,45,46
 240 64 240 64 133 21 c 0,47,48
 60 -9 60 -9 -4 -8 c 0,49,50
 -13 -8 -13 -8 -19.5 -1 c 128,-1,51
 -26 6 -26 6 -26 15 c 0,52,53
 -24 37 -24 37 -3 37 c 0,54,55
 52 36 52 36 116 63 c 0,56,57
 213 101 213 101 345 211 c 0,58,59
 361 224 361 224 390.5 251 c 128,-1,60
 420 278 420 278 433 289 c 0,61,62
 472 328 472 328 502 353 c 0,63,64
 518 369 518 369 533 352 c 0,65,66
 549 336 549 336 532 320 c 2,67,-1
 531 319 l 2,68,69
 530 318 530 318 529 318 c 0,70,71
 527 314 527 314 525 312 c 0,0,1
EndSplineSet
Validated: 33
EndChar

StartChar: exclamdown
Encoding: 161 161 54
Width: 806
GlyphClass: 2
Flags: W
LayerCount: 2
Fore
SplineSet
219 492 m 1,0,1
 276 475 276 475 350 475 c 0,2,3
 467 475 467 475 540 514 c 0,4,5
 574 531 574 531 585 553 c 0,6,7
 596 573 596 573 584 597 c 0,8,9
 568 634 568 634 526 640 c 0,10,11
 483 646 483 646 421 622 c 0,12,13
 321 585 321 585 219 492 c 1,0,1
133 636 m 0,14,15
 100 560 100 560 166 516 c 0,16,17
 167 516 167 516 169.5 514 c 128,-1,18
 172 512 172 512 173 512 c 0,19,20
 288 621 288 621 405 664 c 0,21,22
 477 693 477 693 533 684 c 0,23,24
 598 675 598 675 625 617 c 0,25,26
 646 571 646 571 625 532 c 0,27,28
 607 497 607 497 561 474 c 0,29,30
 476 430 476 430 350 430 c 0,31,32
 251 430 251 430 183 458 c 1,33,-1
 172 447 l 1,34,35
 50 314 50 314 55 214 c 0,36,37
 58 161 58 161 98 127 c 0,38,39
 147 86 147 86 247 68 c 0,40,41
 299 60 299 60 374 57 c 1,42,43
 383 62 383 62 394 57 c 0,44,45
 394 56 394 56 395 56 c 0,46,47
 417 55 417 55 464 55 c 0,48,49
 570 55 570 55 640 57 c 0,50,51
 700 59 700 59 714 59 c 0,52,53
 723 59 723 59 730 52.5 c 128,-1,54
 737 46 737 46 737 37 c 0,55,56
 737 27 737 27 730.5 20.5 c 128,-1,57
 724 14 724 14 715 14 c 2,58,-1
 641 12 l 2,59,60
 571 10 571 10 464 10 c 0,61,62
 418 10 418 10 397 11 c 1,63,64
 392 -5 392 -5 388 -23 c 0,65,66
 388 -24 388 -24 387 -27.5 c 128,-1,67
 386 -31 386 -31 386 -32 c 0,68,69
 386 -34 386 -34 385 -35 c 1,70,71
 386 -34 386 -34 387.5 -34 c 128,-1,72
 389 -34 389 -34 390 -33 c 2,73,-1
 399 -27 l 2,74,75
 416 -18 416 -18 428 -15 c 0,76,77
 448 -8 448 -8 462 -12 c 0,78,79
 482 -17 482 -17 493 -37 c 0,80,81
 501 -54 501 -54 503 -83 c 0,82,83
 505 -104 505 -104 499 -121 c 0,84,85
 489 -151 489 -151 459.5 -172.5 c 128,-1,86
 430 -194 430 -194 392 -202 c 0,87,88
 352 -210 352 -210 317.5 -198.5 c 128,-1,89
 283 -187 283 -187 265 -159 c 0,90,91
 260 -151 260 -151 261.5 -142 c 128,-1,92
 263 -133 263 -133 271 -128 c 128,-1,93
 279 -123 279 -123 288 -124.5 c 128,-1,94
 297 -126 297 -126 302 -134 c 0,95,96
 325 -168 325 -168 384 -158 c 0,97,98
 442 -146 442 -146 456 -107 c 0,99,100
 459 -97 459 -97 458 -85 c 0,101,102
 457 -67 457 -67 453 -58 c 2,103,-1
 451 -56 l 1,104,-1
 448 -56 l 2,105,106
 444 -56 444 -56 442 -57 c 0,107,108
 431 -61 431 -61 421 -67 c 0,109,110
 418 -68 418 -68 412 -72 c 0,111,112
 392 -83 392 -83 383 -87 c 0,113,114
 363 -96 363 -96 346 -93 c 0,115,116
 332 -88 332 -88 326 -75 c 0,117,118
 323 -65 323 -65 326 -55 c 0,119,120
 328 -48 328 -48 336 -34 c 1,121,-1
 337 -33 l 2,122,123
 338 -30 338 -30 339.5 -27.5 c 128,-1,124
 341 -25 341 -25 342 -24 c 2,125,-1
 342 -22 l 1,126,-1
 343 -18 l 1,127,-1
 344 -14 l 2,128,129
 346 -3 346 -3 350 13 c 1,130,131
 288 16 288 16 239 24 c 0,132,133
 128 43 128 43 69 93 c 0,134,135
 13 140 13 140 10 212 c 0,136,137
 5 332 5 332 139 477 c 1,138,-1
 141 479 l 1,139,140
 44 542 44 542 91 654 c 0,141,142
 100 673 100 673 121 666 c 0,143,144
 140 657 140 657 133 636 c 0,14,15
EndSplineSet
Validated: 33
EndChar

StartChar: cent
Encoding: 162 162 55
Width: 939
GlyphClass: 2
Flags: W
LayerCount: 2
Fore
SplineSet
465 463 m 1,0,1
 509 603 509 603 474 690 c 0,2,3
 457 734 457 734 419 751 c 0,4,5
 375 770 375 770 309 754 c 0,6,7
 256 741 256 741 222 686.5 c 128,-1,8
 188 632 188 632 199 577 c 0,9,10
 208 532 208 532 279 495 c 0,11,12
 363 452 363 452 465 463 c 1,0,1
-1 43 m 0,13,14
 150 41 150 41 280 164 c 1,15,16
 283 182 283 182 300 184 c 1,17,18
 395 281 395 281 449 417 c 1,19,20
 349 410 349 410 258 455 c 0,21,22
 225 472 225 472 196 498 c 0,23,24
 162 530 162 530 155 568 c 0,25,26
 140 640 140 640 183.5 710.5 c 128,-1,27
 227 781 227 781 298 798 c 0,28,29
 378 817 378 817 434.5 793 c 128,-1,30
 491 769 491 769 516 707 c 0,31,32
 553 613 553 613 514 472 c 1,33,34
 546 481 546 481 577 493 c 0,35,36
 646 521 646 521 708.5 570.5 c 128,-1,37
 771 620 771 620 816 681 c 1,38,39
 807 688 807 688 807 699 c 0,40,41
 807 709 807 709 813.5 715.5 c 128,-1,42
 820 722 820 722 830 722 c 128,-1,43
 840 722 840 722 849 719 c 0,44,45
 863 714 863 714 867 702 c 0,46,47
 872 693 872 693 868 679 c 0,48,49
 865 672 865 672 859 664 c 0,50,51
 755 517 755 517 594 452 c 0,52,53
 543 431 543 431 499 423 c 1,54,55
 441 259 441 259 323 143 c 1,56,57
 320 120 320 120 320 97 c 0,58,59
 318 78 318 78 320 64 c 1,60,-1
 321 64 l 2,61,62
 322 65 322 65 323 65 c 0,63,64
 344 71 344 71 369 73 c 0,65,66
 414 73 414 73 437 43 c 0,67,68
 463 8 463 8 456 -64 c 0,69,70
 452 -104 452 -104 426 -125 c 128,-1,71
 400 -146 400 -146 362 -144 c 0,72,73
 331 -142 331 -142 301.5 -126 c 128,-1,74
 272 -110 272 -110 258 -85 c 0,75,76
 246 -67 246 -67 265 -54 c 0,77,78
 286 -43 286 -43 296 -62 c 0,79,80
 305 -77 305 -77 324.5 -87.5 c 128,-1,81
 344 -98 344 -98 364 -99 c 0,82,83
 383 -100 383 -100 396 -91 c 0,84,85
 408 -82 408 -82 411 -59 c 0,86,87
 417 -4 417 -4 401 15 c 0,88,89
 392 28 392 28 370 28 c 0,90,91
 354 26 354 26 335 22 c 0,92,93
 332 20 332 20 326 19 c 0,94,95
 320 17 320 17 319 16 c 0,96,97
 317 16 317 16 314.5 15.5 c 128,-1,98
 312 15 312 15 311 15 c 0,99,100
 309 14 309 14 305 14 c 128,-1,101
 301 14 301 14 298 15 c 0,102,103
 291 17 291 17 287 22 c 0,104,105
 278 33 278 33 275 58 c 0,106,107
 274 76 274 76 275 99 c 2,108,-1
 275 100 l 1,109,110
 145 -3 145 -3 -2 -2 c 0,111,112
 -11 -2 -11 -2 -17.5 4.5 c 128,-1,113
 -24 11 -24 11 -24 21 c 0,114,115
 -24 30 -24 30 -17.5 36.5 c 128,-1,116
 -11 43 -11 43 -1 43 c 0,13,14
EndSplineSet
Validated: 33
EndChar

StartChar: sterling
Encoding: 163 163 56
Width: 1139
VWidth: 2048
GlyphClass: 2
Flags: W
LayerCount: 2
Fore
SplineSet
494.26953125 360.950195312 m 1,0,-1
 613.969726562 360.950195312 l 1,1,-1
 613.969726562 304.709960938 l 1,2,-1
 506.049804688 304.709960938 l 1,3,4
 513.26953125 287.990234375 513.26953125 287.990234375 513.26953125 271.26953125 c 0,5,6
 513.26953125 238.209960938 513.26953125 238.209960938 497.5 201.349609375 c 128,-1,7
 481.73046875 164.490234375 481.73046875 164.490234375 445.629882812 126.110351562 c 1,8,9
 475.650390625 134.469726562 475.650390625 134.469726562 500.349609375 134.469726562 c 0,10,11
 531.889648438 134.469726562 531.889648438 134.469726562 571.41015625 124.969726562 c 0,12,13
 636.76953125 109.389648438 636.76953125 109.389648438 659.950195312 109.389648438 c 0,14,15
 688.0703125 109.389648438 688.0703125 109.389648438 732.91015625 130.669921875 c 1,16,-1
 754.950195312 67.9697265625 l 1,17,18
 719.990234375 53.150390625 719.990234375 53.150390625 700.799804688 48.58984375 c 128,-1,19
 681.610351562 44.0302734375 681.610351562 44.0302734375 662.610351562 44.0302734375 c 0,20,21
 646.650390625 44.0302734375 646.650390625 44.0302734375 630.309570312 47.0703125 c 0,22,23
 620.049804688 48.9697265625 620.049804688 48.9697265625 581.099609375 60.9404296875 c 128,-1,24
 542.150390625 72.91015625 542.150390625 72.91015625 530.75 75.1904296875 c 0,25,26
 512.889648438 78.23046875 512.889648438 78.23046875 495.030273438 78.23046875 c 0,27,28
 467.669921875 78.23046875 467.669921875 78.23046875 436.700195312 68.73046875 c 128,-1,29
 405.73046875 59.23046875 405.73046875 59.23046875 380.26953125 42.8896484375 c 1,30,-1
 354.049804688 108.629882812 l 1,31,32
 390.530273438 128.76953125 390.530273438 128.76953125 415.990234375 166.200195312 c 128,-1,33
 441.450195312 203.629882812 441.450195312 203.629882812 441.450195312 257.58984375 c 0,34,35
 441.450195312 280.76953125 441.450195312 280.76953125 434.990234375 304.709960938 c 1,36,-1
 360.509765625 304.709960938 l 1,37,-1
 360.509765625 360.950195312 l 1,38,-1
 419.030273438 360.950195312 l 1,39,40
 406.490234375 403.509765625 406.490234375 403.509765625 403.0703125 423.080078125 c 128,-1,41
 399.650390625 442.650390625 399.650390625 442.650390625 399.650390625 461.26953125 c 0,42,43
 399.650390625 540.309570312 399.650390625 540.309570312 458.169921875 584.76953125 c 0,44,45
 505.290039062 620.110351562 505.290039062 620.110351562 572.169921875 620.110351562 c 0,46,47
 640.950195312 620.110351562 640.950195312 620.110351562 685.599609375 582.299804688 c 128,-1,48
 730.25 544.490234375 730.25 544.490234375 740.509765625 476.08984375 c 1,49,-1
 672.490234375 465.830078125 l 1,50,51
 666.790039062 511.4296875 666.790039062 511.4296875 638.48046875 537.650390625 c 128,-1,52
 610.169921875 563.870117188 610.169921875 563.870117188 570.650390625 563.870117188 c 0,53,54
 528.469726562 563.870117188 528.469726562 563.870117188 500.540039062 536.700195312 c 128,-1,55
 472.610351562 509.530273438 472.610351562 509.530273438 472.610351562 471.150390625 c 0,56,57
 472.610351562 428.969726562 472.610351562 428.969726562 494.26953125 360.950195312 c 1,0,-1
EndSplineSet
Validated: 524289
EndChar

StartChar: currency
Encoding: 164 164 57
Width: 798
GlyphClass: 2
Flags: W
LayerCount: 2
Fore
SplineSet
417 212 m 1,0,1
 485 216 485 216 513 249 c 0,2,3
 534 277 534 277 518 294 c 0,4,5
 513 301 513 301 506 301 c 0,6,7
 494 303 494 303 478 291 c 0,8,9
 446 269 446 269 417 212 c 1,0,1
120 453 m 1,10,11
 142 434 142 434 171 420 c 0,12,13
 257 379 257 379 365 388 c 0,14,15
 466 399 466 399 528 445 c 0,16,17
 585 491 585 491 565 545 c 0,18,19
 548 588 548 588 473 597 c 0,20,21
 345 609 345 609 228 542 c 0,22,23
 164 506 164 506 120 453 c 1,10,11
338 -130 m 0,24,25
 309 -71 309 -71 314 11 c 0,26,27
 314 14 314 14 314.5 19 c 128,-1,28
 315 24 315 24 315 27 c 0,29,30
 128 73 128 73 53 174 c 0,31,32
 -20 274 -20 274 32 398 c 0,33,34
 45 427 45 427 60 449 c 1,35,36
 22 495 22 495 4 555 c 0,37,38
 -1 577 -1 577 19 582 c 0,39,40
 28 585 28 585 36.5 580.5 c 128,-1,41
 45 576 45 576 47 567 c 0,42,43
 60 522 60 522 88 486 c 1,44,45
 138 542 138 542 205 581 c 0,46,47
 336 656 336 656 478 641 c 0,48,49
 519 638 519 638 550 620 c 0,50,51
 592 598 592 598 607 560 c 0,52,53
 639 476 639 476 555 410 c 0,54,55
 487 355 487 355 369 344 c 0,56,57
 249 332 249 332 151 379 c 0,58,59
 114 398 114 398 93 417 c 1,60,61
 82 400 82 400 74 380 c 0,62,63
 30 280 30 280 90 200 c 0,64,65
 153 114 153 114 321 72 c 1,66,67
 329 113 329 113 341 148 c 0,68,69
 390 284 390 284 452 328 c 0,70,71
 480 348 480 348 509 346 c 0,72,73
 536 344 536 344 554 322 c 0,74,75
 570 301 570 301 568.5 272.5 c 128,-1,76
 567 244 567 244 548 221 c 0,77,78
 504 166 504 166 398 166 c 2,79,-1
 396 166 l 1,80,81
 390 151 390 151 384 133 c 0,82,83
 370 95 370 95 365 62 c 1,84,85
 415 52 415 52 460 49 c 0,86,87
 491 46 491 46 581 46 c 0,88,89
 623 46 623 46 707 44 c 0,90,91
 716 44 716 44 722.5 37.5 c 128,-1,92
 729 31 729 31 729 21 c 0,93,94
 728 12 728 12 721.5 5.5 c 128,-1,95
 715 -1 715 -1 706 -1 c 0,96,97
 622 1 622 1 580 1 c 0,98,99
 489 1 489 1 457 4 c 0,100,101
 410 7 410 7 360 17 c 0,102,103
 359 14 359 14 359 9 c 0,104,105
 356 -64 356 -64 378 -110 c 0,106,107
 389 -130 389 -130 368 -140 c 0,108,109
 349 -150 349 -150 338 -130 c 0,24,25
EndSplineSet
Validated: 33
EndChar

StartChar: yen
Encoding: 165 165 58
Width: 1027
GlyphClass: 2
Flags: W
LayerCount: 2
Fore
SplineSet
260 303 m 1,0,1
 259 302 259 302 258 302 c 0,2,3
 256 302 256 302 248 298 c 0,4,5
 232 289 232 289 218 270 c 0,6,7
 208 256 208 256 204 248 c 1,8,9
 244 272 244 272 256 294 c 0,10,11
 260 300 260 300 260 303 c 1,0,1
497 425 m 1,12,13
 541 514 541 514 546 586 c 0,14,15
 552 690 552 690 473 721 c 0,16,17
 414 745 414 745 351 714 c 0,18,19
 290 683 290 683 262 626 c 0,20,21
 232 568 232 568 255 519 c 0,22,23
 280 462 280 462 374 440 c 0,24,25
 436 425 436 425 497 425 c 1,12,13
124 -119 m 0,26,27
 105 -74 105 -74 105 -1 c 2,28,-1
 105 10 l 1,29,30
 47 -6 47 -6 -4 -7 c 0,31,32
 -13 -7 -13 -7 -19.5 -0.5 c 128,-1,33
 -26 6 -26 6 -27 15 c 0,34,35
 -27 25 -27 25 -20.5 31.5 c 128,-1,36
 -14 38 -14 38 -4 38 c 0,37,38
 52 40 52 40 107 59 c 1,39,40
 111 98 111 98 114 114 c 0,41,42
 133 232 133 232 182 297 c 0,43,44
 225 355 225 355 270 347 c 0,45,46
 298 342 298 342 304 317 c 0,47,48
 310 297 310 297 295 271 c 0,49,50
 266 223 266 223 177 184 c 1,51,52
 164 141 164 141 159 107 c 0,53,54
 157 98 157 98 155 78 c 1,55,56
 203 100 203 100 251 135 c 0,57,58
 371 221 371 221 456 354 c 0,59,60
 468 372 468 372 473 380 c 1,61,62
 415 383 415 383 364 396 c 0,63,64
 249 425 249 425 214 500 c 0,65,66
 183 567 183 567 221 646 c 0,67,68
 257 718 257 718 331 754 c 0,69,70
 411 793 411 793 490 763 c 0,71,72
 543 741 543 741 569 694.5 c 128,-1,73
 595 648 595 648 590 584 c 0,74,75
 587 514 587 514 548 428 c 1,76,77
 604 434 604 434 657 450 c 0,78,79
 724 470 724 470 791 503 c 0,80,81
 845 527 845 527 924 572 c 0,82,83
 932 576 932 576 941 574 c 128,-1,84
 950 572 950 572 955 564 c 0,85,86
 966 544 966 544 946 533 c 0,87,88
 859 485 859 485 810 462 c 0,89,90
 738 428 738 428 670 407 c 0,91,92
 600 386 600 386 525 381 c 1,93,94
 520 371 520 371 494 329 c 0,95,96
 404 190 404 190 278 99 c 0,97,98
 216 53 216 53 150 27 c 1,99,-1
 150 -1 l 2,100,101
 150 -66 150 -66 165 -100 c 0,102,103
 174 -121 174 -121 154 -130 c 0,104,105
 146 -134 146 -134 137 -130.5 c 128,-1,106
 128 -127 128 -127 124 -119 c 0,26,27
EndSplineSet
Validated: 33
EndChar

StartChar: brokenbar
Encoding: 166 166 59
Width: 750
GlyphClass: 2
Flags: W
LayerCount: 2
Fore
SplineSet
549 464 m 0,0,1
 431 436 431 436 335 478 c 0,2,3
 263 510 263 510 206 581 c 0,4,5
 189 600 189 600 166 635 c 0,6,7
 164 638 164 638 157 648 c 2,8,-1
 150 658 l 2,9,10
 147 662 147 662 143 668 c 128,-1,11
 139 674 139 674 137 677 c 0,12,13
 135 679 135 679 131.5 683 c 128,-1,14
 128 687 128 687 127 689 c 1,15,16
 127 688 127 688 126 686 c 0,17,18
 98 632 98 632 83.5 560.5 c 128,-1,19
 69 489 69 489 74 428 c 0,20,21
 94 208 94 208 197 116 c 1,22,23
 199 196 199 196 196 247 c 0,24,25
 195 257 195 257 201.5 263.5 c 128,-1,26
 208 270 208 270 217 271 c 0,27,28
 239 271 239 271 241 249 c 0,29,30
 243 188 243 188 242 84 c 1,31,32
 275 65 275 65 313 55 c 1,33,34
 317 99 317 99 329 168 c 0,35,36
 331 177 331 177 338.5 182 c 128,-1,37
 346 187 346 187 355 185 c 0,38,39
 365 184 365 184 370 176 c 128,-1,40
 375 168 375 168 373 159 c 0,41,42
 361 91 361 91 357 46 c 1,43,44
 398 39 398 39 455 39 c 0,45,46
 473 38 473 38 552 40 c 0,47,48
 634 43 634 43 659 42 c 0,49,50
 668 41 668 41 674.5 34.5 c 128,-1,51
 681 28 681 28 680 19 c 0,52,53
 680 9 680 9 673.5 2.5 c 128,-1,54
 667 -4 667 -4 657 -3 c 0,55,56
 634 -2 634 -2 554 -5 c 0,57,58
 474 -7 474 -7 455 -6 c 0,59,60
 397 -6 397 -6 354 1 c 1,61,62
 352 -59 352 -59 361 -102 c 0,63,64
 365 -124 365 -124 343 -129 c 0,65,66
 334 -131 334 -131 326 -125.5 c 128,-1,67
 318 -120 318 -120 317 -111 c 0,68,69
 307 -60 307 -60 310 10 c 1,70,71
 274 19 274 19 240 34 c 1,72,-1
 240 25 l 2,73,74
 238 -43 238 -43 238 -111 c 0,75,76
 238 -120 238 -120 231.5 -126.5 c 128,-1,77
 225 -133 225 -133 215 -133 c 0,78,79
 206 -133 206 -133 199.5 -126.5 c 128,-1,80
 193 -120 193 -120 193 -111 c 0,81,82
 193 -42 193 -42 195 26 c 0,83,84
 196 38 196 38 196 60 c 1,85,86
 190 64 190 64 182 70 c 0,87,88
 52 171 52 171 29 424 c 0,89,90
 23 491 23 491 39 569.5 c 128,-1,91
 55 648 55 648 86 707 c 0,92,93
 89 714 89 714 93 718 c 0,94,95
 112 745 112 745 140 734 c 0,96,97
 157 726 157 726 172 704 c 2,98,-1
 187 684 l 2,99,100
 190 679 190 679 203 661 c 0,101,102
 222 632 222 632 241 609 c 0,103,104
 293 546 293 546 354 519 c 0,105,106
 435 483 435 483 538 508 c 0,107,108
 547 510 547 510 555.5 505.5 c 128,-1,109
 564 501 564 501 565 492 c 0,110,111
 570 469 570 469 549 464 c 0,0,1
EndSplineSet
Validated: 33
EndChar

StartChar: section
Encoding: 167 167 60
Width: 746
GlyphClass: 2
Flags: W
LayerCount: 2
Fore
SplineSet
176 642 m 0,0,1
 233 582 233 582 344 611 c 0,2,3
 392 622 392 622 469 661 c 0,4,5
 475 664 475 664 490 672 c 128,-1,6
 505 680 505 680 522 689 c 0,7,8
 526 692 526 692 543 700 c 0,9,10
 550 704 550 704 563.5 711 c 128,-1,11
 577 718 577 718 578 719 c 2,12,-1
 582 721 l 2,13,14
 590 725 590 725 604.5 732.5 c 128,-1,15
 619 740 619 740 625 743 c 0,16,17
 636 748 636 748 641 749 c 0,18,19
 647 751 647 751 649 751 c 0,20,21
 654 752 654 752 660 751 c 0,22,23
 676 746 676 746 676 729 c 0,24,25
 676 710 676 710 671 682 c 0,26,27
 665 656 665 656 659 638 c 0,28,29
 658 635 658 635 656 625 c 0,30,31
 645 586 645 586 644 568 c 0,32,33
 642 510 642 510 642 463 c 2,34,-1
 642 461 l 2,35,36
 642 392 642 392 640 365 c 0,37,38
 639 316 639 316 629 269 c 0,39,40
 608 161 608 161 536 91 c 0,41,42
 483 38 483 38 399 15 c 0,43,44
 394 14 394 14 383 11.5 c 128,-1,45
 372 9 372 9 366 8 c 0,46,47
 366 6 366 6 364.5 2 c 128,-1,48
 363 -2 363 -2 362 -5 c 0,49,50
 351 -38 351 -38 351 -61 c 0,51,52
 351 -70 351 -70 344.5 -76.5 c 128,-1,53
 338 -83 338 -83 329 -83 c 0,54,55
 319 -83 319 -83 312.5 -76.5 c 128,-1,56
 306 -70 306 -70 306 -61 c 0,57,58
 306 -36 306 -36 316 1 c 1,59,60
 280 -3 280 -3 258 -3 c 1,61,62
 257 -11 257 -11 253 -50 c 0,63,64
 247 -116 247 -116 243 -141 c 0,65,66
 242 -150 242 -150 234 -155.5 c 128,-1,67
 226 -161 226 -161 217 -159 c 0,68,69
 195 -156 195 -156 198 -133 c 0,70,71
 202 -110 202 -110 208 -46 c 0,72,73
 210 -32 210 -32 211 -18.5 c 128,-1,74
 212 -5 212 -5 212 -4 c 0,75,76
 150 -2 150 -2 102 1 c 0,77,78
 21 5 21 5 0 5 c 0,79,80
 -10 5 -10 5 -16.5 11.5 c 128,-1,81
 -23 18 -23 18 -22 28 c 0,82,83
 -22 37 -22 37 -15.5 43.5 c 128,-1,84
 -9 50 -9 50 0 50 c 0,85,86
 22 50 22 50 105 46 c 0,87,88
 188 41 188 41 218 41 c 1,89,90
 222 76 222 76 230 107 c 0,91,92
 244 164 244 164 267 200 c 0,93,94
 279 219 279 219 298 207 c 0,95,96
 315 195 315 195 305 176 c 0,97,98
 284 140 284 140 274 96 c 0,99,100
 267 67 267 67 263 42 c 1,101,102
 301 43 301 43 334 48 c 0,103,104
 335 51 335 51 346 75 c 0,105,106
 364 117 364 117 369 133 c 0,107,108
 380 163 380 163 381 187 c 0,109,110
 382 197 382 197 388.5 203 c 128,-1,111
 395 209 395 209 405 208 c 0,112,113
 414 207 414 207 420.5 200.5 c 128,-1,114
 427 194 427 194 426 184 c 0,115,116
 423 150 423 150 412 118 c 0,117,118
 406 101 406 101 388 59 c 1,119,120
 461 79 461 79 505 123 c 0,121,122
 565 185 565 185 585 278 c 0,123,124
 593 316 593 316 595 367 c 0,125,126
 597 393 597 393 597 461 c 2,127,-1
 597 463 l 2,128,129
 597 526 597 526 600 571 c 0,130,131
 601 594 601 594 612 637 c 0,132,133
 613 641 613 641 616 650 c 0,134,135
 619 662 619 662 622.5 675 c 128,-1,136
 626 688 626 688 627 692 c 2,137,-1
 627 693 l 1,138,139
 616 688 616 688 603 681 c 0,140,141
 601 681 601 681 599 679 c 0,142,143
 598 678 598 678 584.5 671 c 128,-1,144
 571 664 571 664 564 660 c 2,145,-1
 544 650 l 2,146,147
 511 632 511 632 489 621 c 0,148,149
 410 581 410 581 355 567 c 0,150,151
 292 551 292 551 245 558 c 0,152,153
 186 567 186 567 144 611 c 0,154,155
 128 627 128 627 144 643 c 0,156,157
 161 658 161 658 176 642 c 0,0,1
EndSplineSet
Validated: 33
EndChar

StartChar: dieresis
Encoding: 168 168 61
Width: 752
GlyphClass: 2
Flags: W
LayerCount: 2
Fore
SplineSet
-13 43 m 0,0,1
 53 40 53 40 118 83 c 0,2,3
 163 111 163 111 238 184 c 0,4,5
 265 211 265 211 274 219 c 0,6,7
 298 243 298 243 309 253 c 0,8,9
 317 260 317 260 336 276 c 0,10,11
 353 293 353 293 371 305 c 0,12,13
 382 311 382 311 392 307 c 0,14,15
 402 304 402 304 406 297 c 0,16,17
 418 278 418 278 399 266 c 0,18,19
 372 247 372 247 367 243 c 0,20,21
 347 219 347 219 335 189 c 0,22,23
 313 137 313 137 319 90 c 0,24,25
 325 46 325 46 352 34 c 0,26,27
 386 18 386 18 451 52 c 0,28,29
 499 78 499 78 541.5 117 c 128,-1,30
 584 156 584 156 609 198 c 0,31,32
 669 300 669 300 603 381 c 0,33,34
 567 424 567 424 502 406 c 0,35,36
 474 399 474 399 430 378 c 0,37,38
 427 377 427 377 421 373.5 c 128,-1,39
 415 370 415 370 406 366 c 0,40,41
 401 363 401 363 400 363 c 0,42,43
 397 361 397 361 391 359 c 0,44,45
 388 357 388 357 382 355 c 0,46,47
 372 350 372 350 359 348 c 0,48,49
 348 348 348 348 342 351 c 0,50,51
 330 356 330 356 327 369 c 0,52,53
 318 402 318 402 352 454 c 0,54,55
 380 494 380 494 428 541 c 0,56,57
 454 565 454 565 482 592 c 0,58,59
 540 643 540 643 586 681 c 0,60,61
 588 682 588 682 591 685 c 1,62,63
 588 685 588 685 582 684.5 c 128,-1,64
 576 684 576 684 573 684 c 2,65,-1
 557 682 l 1,66,67
 408 658 408 658 277 658 c 0,68,69
 267 658 267 658 260.5 664.5 c 128,-1,70
 254 671 254 671 254 681 c 0,71,72
 254 690 254 690 260.5 696.5 c 128,-1,73
 267 703 267 703 277 703 c 0,74,75
 401 703 401 703 550 726 c 0,76,77
 571 729 571 729 602 731 c 0,78,79
 609 731 609 731 620 731.5 c 128,-1,80
 631 732 631 732 635 732 c 0,81,82
 637 732 637 732 641.5 731.5 c 128,-1,83
 646 731 646 731 648 730 c 0,84,85
 652 730 652 730 657 727 c 0,86,87
 658 727 658 727 665 722 c 0,88,89
 670 714 670 714 670 706 c 0,90,91
 670 699 670 699 665 691 c 0,92,93
 662 688 662 688 661 686 c 0,94,95
 655 680 655 680 650 676 c 0,96,97
 630 658 630 658 615 646 c 0,98,99
 541 584 541 584 512 558 c 0,100,101
 484 532 484 532 460 509 c 0,102,103
 413 464 413 464 389 429 c 0,104,105
 377 409 377 409 373 400 c 1,106,107
 377 402 377 402 380 403 c 0,108,109
 385 406 385 406 386 406 c 0,110,111
 403 415 403 415 410 418 c 0,112,113
 458 442 458 442 491 450 c 0,114,115
 534 461 534 461 567 454 c 0,116,117
 609 445 609 445 638 410 c 0,118,119
 684 354 684 354 682 290 c 0,120,121
 682 233 682 233 647 175 c 0,122,123
 619 127 619 127 572 84 c 128,-1,124
 525 41 525 41 472 13 c 0,125,126
 389 -33 389 -33 333 -7 c 0,127,128
 284 15 284 15 274 85 c 0,129,130
 271 125 271 125 279 161 c 1,131,-1
 269 152 l 2,132,133
 236 119 236 119 209 95 c 0,134,135
 172 63 172 63 142 45 c 0,136,137
 63 -6 63 -6 -15 -2 c 0,138,139
 -24 -2 -24 -2 -30.5 5 c 128,-1,140
 -37 12 -37 12 -37 21 c 0,141,142
 -36 30 -36 30 -29.5 36.5 c 128,-1,143
 -23 43 -23 43 -13 43 c 0,0,1
EndSplineSet
Validated: 33
EndChar

StartChar: copyright
Encoding: 169 169 62
Width: 992
GlyphClass: 2
Flags: W
LayerCount: 2
Fore
SplineSet
378 480 m 1,0,1
 394 467 394 467 415 456 c 0,2,3
 482 422 482 422 572 442 c 0,4,5
 661 461 661 461 713 515 c 0,6,7
 762 566 762 566 746 616 c 0,8,9
 743 624 743 624 733 624 c 0,10,11
 715 624 715 624 696 614 c 0,12,13
 664 600 664 600 611 569 c 0,14,15
 610 568 610 568 609 568 c 0,16,17
 553 536 553 536 517 519 c 0,18,19
 466 494 466 494 419 485 c 0,20,21
 396 480 396 480 378 480 c 1,0,1
145 696 m 0,22,23
 169 626 169 626 237 574 c 0,24,25
 255 559 255 559 273 550 c 0,26,27
 289 546 289 546 307 535 c 0,28,29
 307 534 307 534 308 534 c 0,30,31
 355 518 355 518 411 529 c 0,32,33
 451 537 451 537 497 559 c 0,34,35
 533 576 533 576 587 607 c 0,36,37
 588 607 588 607 589 608 c 0,38,39
 649 642 649 642 676 655 c 0,40,41
 708 670 708 670 733 669 c 0,42,43
 777 669 777 669 789 629 c 0,44,45
 802 589 802 589 787 548 c 0,46,47
 775 516 775 516 745 484 c 0,48,49
 682 418 682 418 581 398 c 0,50,51
 478 374 478 374 395 415 c 0,52,53
 369 428 369 428 334 457 c 0,54,55
 332 459 332 459 307 479 c 0,56,57
 303 483 303 483 296 488.5 c 128,-1,58
 289 494 289 494 288 494 c 0,59,60
 278 497 278 497 258 507 c 1,61,-1
 245 507 l 1,62,63
 224 503 224 503 195 469 c 0,64,65
 169 438 169 438 146 388 c 1,66,67
 150 389 150 389 158.5 389.5 c 128,-1,68
 167 390 167 390 171 390 c 0,69,70
 196 392 196 392 314 398 c 0,71,72
 366 400 366 400 370 400 c 0,73,74
 380 401 380 401 386.5 395 c 128,-1,75
 393 389 393 389 394 379 c 0,76,77
 395 370 395 370 388.5 363 c 128,-1,78
 382 356 382 356 373 355 c 0,79,80
 368 355 368 355 316 353 c 0,81,82
 201 347 201 347 174 345 c 0,83,84
 144 343 144 343 127 341 c 1,85,86
 120 318 120 318 116 301 c 0,87,88
 110 268 110 268 111 243 c 1,89,90
 265 282 265 282 400 294 c 0,91,92
 410 295 410 295 417 289 c 128,-1,93
 424 283 424 283 425 274 c 0,94,95
 426 264 426 264 420 257 c 128,-1,96
 414 250 414 250 404 249 c 0,97,98
 274 237 274 237 121 199 c 1,99,100
 141 146 141 146 212 109 c 0,101,102
 315 54 315 54 524 42 c 0,103,104
 643 35 643 35 814 41 c 0,105,106
 818 41 818 41 837.5 41.5 c 128,-1,107
 857 42 857 42 861 42 c 0,108,109
 877 43 877 43 900 43 c 0,110,111
 909 43 909 43 915.5 36.5 c 128,-1,112
 922 30 922 30 922 21 c 0,113,114
 923 12 923 12 916.5 5 c 128,-1,115
 910 -2 910 -2 900 -2 c 0,116,117
 878 -2 878 -2 862 -3 c 0,118,119
 859 -3 859 -3 839.5 -3.5 c 128,-1,120
 820 -4 820 -4 816 -4 c 0,121,122
 629 -10 629 -10 522 -3 c 0,123,124
 303 11 303 11 191 69 c 0,125,126
 103 115 103 115 77 187 c 1,127,128
 46 179 46 179 -18 159 c 0,129,130
 -27 157 -27 157 -35.5 161 c 128,-1,131
 -44 165 -44 165 -46 174 c 0,132,133
 -53 195 -53 195 -32 202 c 0,134,135
 -5 211 -5 211 67 231 c 1,136,137
 63 266 63 266 72 311 c 0,138,139
 76 327 76 327 79 335 c 1,140,141
 -1 324 -1 324 -57 306 c 0,142,143
 -65 303 -65 303 -73.5 307 c 128,-1,144
 -82 311 -82 311 -85 320 c 0,145,146
 -92 341 -92 341 -71 348 c 0,147,148
 -3 371 -3 371 95 383 c 1,149,150
 122 452 122 452 161 498 c 0,151,152
 186 528 186 528 208 539 c 1,153,154
 131 600 131 600 103 681 c 0,155,156
 96 703 96 703 117 710 c 0,157,158
 125 713 125 713 133.5 709 c 128,-1,159
 142 705 142 705 145 696 c 0,22,23
EndSplineSet
Validated: 33
EndChar

StartChar: ordfeminine
Encoding: 170 170 63
Width: 806
GlyphClass: 2
Flags: W
LayerCount: 2
Fore
SplineSet
390 581 m 1,0,1
 386 581 386 581 380 583 c 0,2,3
 361 587 361 587 333 598 c 0,4,5
 322 602 322 602 309 607 c 2,6,-1
 285 617 l 2,7,8
 251 630 251 630 218 641 c 0,9,10
 147 662 147 662 104 648 c 0,11,12
 55 631 55 631 30 589 c 0,13,14
 4 550 4 550 6 505 c 0,15,16
 9 463 9 463 37 442 c 0,17,18
 69 418 69 418 129 431 c 0,19,20
 169 438 169 438 217 466 c 0,21,22
 246 482 246 482 305 524 c 0,23,24
 353 557 353 557 359 561 c 0,25,26
 363 563 363 563 373.5 570.5 c 128,-1,27
 384 578 384 578 390 581 c 1,0,1
719 576 m 0,28,29
 617 551 617 551 492 564 c 1,30,31
 490 510 490 510 490 453 c 2,32,-1
 490 403 l 1,33,34
 494 403 494 403 508 405 c 128,-1,35
 522 407 522 407 533 408 c 0,36,37
 558 411 558 411 587.5 414 c 128,-1,38
 617 417 617 417 628 418 c 0,39,40
 637 419 637 419 644 413 c 128,-1,41
 651 407 651 407 653 398 c 0,42,43
 654 388 654 388 648 381 c 128,-1,44
 642 374 642 374 632 373 c 0,45,46
 621 372 621 372 591.5 369 c 128,-1,47
 562 366 562 366 538 363 c 0,48,49
 524 362 524 362 508 360 c 128,-1,50
 492 358 492 358 489 358 c 0,51,52
 488 316 488 316 483 280 c 1,53,54
 485 280 485 280 489 280.5 c 128,-1,55
 493 281 493 281 495 281 c 0,56,57
 569 290 569 290 633 284 c 0,58,59
 643 283 643 283 649 276 c 128,-1,60
 655 269 655 269 654 259 c 0,61,62
 650 237 650 237 629 239 c 0,63,64
 570 245 570 245 500 236 c 0,65,66
 492 236 492 236 476 234 c 1,67,68
 471 203 471 203 459 170 c 0,69,70
 422 63 422 63 335 2 c 0,71,72
 315 -13 315 -13 258 -13 c 0,73,74
 227 -13 227 -13 207 -11 c 0,75,76
 203 -11 203 -11 193.5 -10.5 c 128,-1,77
 184 -10 184 -10 178 -10 c 0,78,79
 175 -10 175 -10 162.5 -9 c 128,-1,80
 150 -8 150 -8 147 -7 c 0,81,82
 53 -1 53 -1 3 -2 c 0,83,84
 -6 -2 -6 -2 -12.5 4.5 c 128,-1,85
 -19 11 -19 11 -19 21 c 0,86,87
 -19 30 -19 30 -12.5 36.5 c 128,-1,88
 -6 43 -6 43 3 43 c 0,89,90
 60 44 60 44 150 37 c 0,91,92
 227 32 227 32 258 32 c 0,93,94
 301 32 301 32 309 39 c 0,95,96
 385 93 385 93 417 184 c 1,97,-1
 429 226 l 1,98,99
 382 218 382 218 369 215 c 0,100,101
 366 215 366 215 363.5 214.5 c 128,-1,102
 361 214 361 214 360 214 c 0,103,104
 339 210 339 210 311.5 205 c 128,-1,105
 284 200 284 200 282 200 c 0,106,107
 273 199 273 199 265.5 204.5 c 128,-1,108
 258 210 258 210 256 219 c 0,109,110
 255 228 255 228 260.5 235.5 c 128,-1,111
 266 243 266 243 275 245 c 0,112,113
 281 246 281 246 352 258 c 0,114,115
 353 258 353 258 361 260 c 0,116,117
 404 268 404 268 437 273 c 1,118,119
 440 302 440 302 444 353 c 1,120,121
 294 340 294 340 271 338 c 0,122,123
 262 337 262 337 255 343.5 c 128,-1,124
 248 350 248 350 247 359 c 128,-1,125
 246 368 246 368 252 375 c 128,-1,126
 258 382 258 382 268 383 c 0,127,128
 337 388 337 388 445 399 c 1,129,-1
 445 453 l 2,130,131
 445 509 445 509 447 561 c 1,132,-1
 446 560 l 2,133,134
 444 560 444 560 444 559 c 0,135,136
 416 546 416 546 384 524 c 0,137,138
 378 520 378 520 363 509.5 c 128,-1,139
 348 499 348 499 331 487 c 0,140,141
 275 447 275 447 239 427 c 0,142,143
 184 395 184 395 139 387 c 0,144,145
 59 369 59 369 10 406 c 0,146,147
 -34 438 -34 438 -39 503 c 0,148,149
 -42 562 -42 562 -8 613 c 0,150,151
 28 670 28 670 90 691 c 0,152,153
 148 710 148 710 231 684 c 0,154,155
 261 675 261 675 301 659 c 0,156,157
 320 651 320 651 325 649 c 0,158,159
 338 644 338 644 349 640 c 0,160,161
 369 632 369 632 391 627 c 0,162,163
 415 621 415 621 460 613 c 1,164,165
 465 617 465 617 475 617 c 0,166,167
 484 615 484 615 489 610 c 1,168,169
 612 595 612 595 708 620 c 0,170,171
 717 622 717 622 725.5 617 c 128,-1,172
 734 612 734 612 735 603 c 0,173,174
 740 581 740 581 719 576 c 0,28,29
EndSplineSet
Validated: 33
EndChar

StartChar: guillemotleft
Encoding: 171 171 64
Width: 590
GlyphClass: 2
Flags: W
LayerCount: 2
Fore
SplineSet
282 692 m 0,0,1
 253 652 253 652 226 570 c 0,2,3
 225 566 225 566 218.5 547 c 128,-1,4
 212 528 212 528 208 514 c 2,5,-1
 203 501 l 1,6,-1
 200 489 l 2,7,8
 197 481 197 481 188.5 476.5 c 128,-1,9
 180 472 180 472 171 475 c 0,10,11
 163 478 163 478 158.5 486.5 c 128,-1,12
 154 495 154 495 157 504 c 128,-1,13
 160 513 160 513 161 515 c 0,14,15
 178 569 178 569 183 585 c 0,16,17
 213 673 213 673 246 718 c 0,18,19
 251 726 251 726 260.5 727.5 c 128,-1,20
 270 729 270 729 278 723 c 0,21,22
 296 710 296 710 282 692 c 0,0,1
520 702 m 0,23,24
 509 673 509 673 479 615 c 0,25,26
 476 608 476 608 471.5 599 c 128,-1,27
 467 590 467 590 465 586 c 0,28,29
 439 535 439 535 433 501 c 0,30,31
 427 479 427 479 406 484 c 0,32,33
 397 485 397 485 391.5 493 c 128,-1,34
 386 501 386 501 388 510 c 0,35,36
 397 552 397 552 424 606 c 0,37,38
 429 618 429 618 439 636 c 0,39,40
 466 688 466 688 477 718 c 0,41,42
 486 739 486 739 506 731 c 0,43,44
 527 724 527 724 520 702 c 0,23,24
EndSplineSet
Validated: 33
EndChar

StartChar: logicalnot
Encoding: 172 172 65
Width: 968
GlyphClass: 2
Flags: W
LayerCount: 2
Fore
SplineSet
112 148 m 1,0,1
 180 142 180 142 410 114 c 1,2,-1
 413 114 l 1,3,-1
 437 111 l 1,4,5
 436 114 436 114 433 119 c 128,-1,6
 430 124 430 124 428 127 c 0,7,8
 425 132 425 132 422.5 137.5 c 128,-1,9
 420 143 420 143 418 146.5 c 128,-1,10
 416 150 416 150 414 153 c 128,-1,11
 412 156 412 156 411 158 c 128,-1,12
 410 160 410 160 410 161 c 0,13,14
 379 220 379 220 346 257 c 0,15,16
 301 308 301 308 264 311 c 0,17,18
 248 311 248 311 219 281 c 0,19,20
 200 262 200 262 153 200 c 0,21,22
 128 167 128 167 112 148 c 1,0,1
657 660 m 0,23,24
 643 624 643 624 624 550 c 0,25,26
 612 499 612 499 606 475 c 0,27,28
 597 430 597 430 588 394 c 0,29,30
 559 267 559 267 539 204 c 0,31,32
 518 133 518 133 497 104 c 1,33,34
 590 92 590 92 688 83 c 0,35,36
 822 71 822 71 873 77 c 0,37,38
 883 78 883 78 890 72.5 c 128,-1,39
 897 67 897 67 898 57 c 0,40,41
 899 48 899 48 893.5 41 c 128,-1,42
 888 34 888 34 879 32 c 0,43,44
 828 25 828 25 684 38 c 0,45,46
 624 43 624 43 407 69 c 0,47,48
 406 70 406 70 405 70 c 0,49,50
 174 98 174 98 83 105 c 0,51,52
 81 105 81 105 77.5 105.5 c 128,-1,53
 74 106 74 106 72 106 c 0,54,55
 52 88 52 88 33 79 c 0,56,57
 6 67 6 67 -22 64 c 0,58,59
 -42 62 -42 62 -75 73 c 0,60,61
 -97 79 -97 79 -106 88 c 0,62,63
 -117 99 -117 99 -116.5 112 c 128,-1,64
 -116 125 -116 125 -104 136 c 0,65,66
 -86 153 -86 153 -31 154 c 0,67,68
 -1 155 -1 155 55 152 c 1,69,70
 70 167 70 167 77 177 c 0,71,72
 83 183 83 183 117 227 c 0,73,74
 149 268 149 268 152 272 c 0,75,76
 172 298 172 298 187 313 c 0,77,78
 206 332 206 332 223 343 c 0,79,80
 245 356 245 356 267 355 c 0,81,82
 323 352 323 352 380 287 c 0,83,84
 416 246 416 246 450 182 c 0,85,86
 450 181 450 181 452.5 177 c 128,-1,87
 455 173 455 173 459.5 164 c 128,-1,88
 464 155 464 155 468 148 c 1,89,-1
 468 147 l 2,90,91
 469 146 469 146 469 145 c 1,92,-1
 472 151 l 2,93,94
 484 175 484 175 496 217 c 0,95,96
 516 284 516 284 544 404 c 0,97,98
 545 408 545 408 553 442 c 128,-1,99
 561 476 561 476 563 485 c 0,100,101
 578 550 578 550 581 560 c 0,102,103
 601 643 601 643 616 677 c 0,104,105
 619 685 619 685 628 689 c 128,-1,106
 637 693 637 693 645 689 c 128,-1,107
 653 685 653 685 657 676.5 c 128,-1,108
 661 668 661 668 657 660 c 0,23,24
EndSplineSet
Validated: 33
EndChar

StartChar: registered
Encoding: 174 174 66
Width: 803
GlyphClass: 2
Flags: W
LayerCount: 2
Fore
SplineSet
129 424 m 0,0,1
 234 411 234 411 378 420 c 0,2,3
 403 421 403 421 488 427 c 0,4,5
 628 437 628 437 711 437 c 0,6,7
 720 437 720 437 726.5 430.5 c 128,-1,8
 733 424 733 424 733 415 c 0,9,10
 733 405 733 405 726.5 398.5 c 128,-1,11
 720 392 720 392 711 392 c 0,12,13
 630 392 630 392 491 382 c 0,14,15
 406 376 406 376 381 375 c 0,16,17
 232 366 232 366 124 379 c 0,18,19
 114 380 114 380 108.5 387.5 c 128,-1,20
 103 395 103 395 104 404 c 128,-1,21
 105 413 105 413 112.5 419 c 128,-1,22
 120 425 120 425 129 424 c 0,0,1
EndSplineSet
Validated: 33
EndChar

StartChar: macron
Encoding: 175 175 67
Width: 652
GlyphClass: 2
Flags: W
LayerCount: 2
Fore
SplineSet
461 809 m 0,0,1
 461 784 461 784 457 733 c 0,2,3
 453 684 453 684 453 660 c 0,4,5
 453 651 453 651 446.5 644.5 c 128,-1,6
 440 638 440 638 431 638 c 0,7,8
 421 638 421 638 414.5 644.5 c 128,-1,9
 408 651 408 651 408 660 c 0,10,11
 408 687 408 687 412 736 c 128,-1,12
 416 785 416 785 416 809 c 0,13,14
 416 819 416 819 422.5 825.5 c 128,-1,15
 429 832 429 832 438 832 c 0,16,17
 448 832 448 832 454.5 825.5 c 128,-1,18
 461 819 461 819 461 809 c 0,0,1
422 83 m 2,19,20
 422 72 422 72 420 8 c 2,21,-1
 420 -4 l 2,22,23
 418 -46 418 -46 418 -88 c 0,24,25
 418 -98 418 -98 411.5 -104.5 c 128,-1,26
 405 -111 405 -111 395 -111 c 0,27,28
 386 -111 386 -111 379.5 -104.5 c 128,-1,29
 373 -98 373 -98 373 -88 c 0,30,31
 373 -45 373 -45 375 -2 c 2,32,-1
 375 10 l 2,33,34
 377 72 377 72 377 82 c 1,35,-1
 335 82 l 2,36,37
 214 82 214 82 156 133 c 0,38,39
 101 179 101 179 111 250 c 0,40,41
 119 306 119 306 161 345 c 1,42,43
 158 347 158 347 154 351.5 c 128,-1,44
 150 356 150 356 147 358 c 0,45,46
 106 406 106 406 141 473 c 0,47,48
 165 521 165 521 226 559 c 128,-1,49
 287 597 287 597 358 611 c 0,50,51
 434 625 434 625 487 603 c 0,52,53
 552 578 552 578 569 507 c 0,54,55
 574 485 574 485 553 480 c 0,56,57
 544 478 544 478 535.5 482.5 c 128,-1,58
 527 487 527 487 526 496 c 0,59,60
 514 544 514 544 470 562 c 0,61,62
 430 578 430 578 366 567 c 0,63,64
 306 555 306 555 253 522.5 c 128,-1,65
 200 490 200 490 181 452 c 0,66,67
 159 411 159 411 181 388 c 0,68,69
 188 380 188 380 203 373 c 1,70,71
 252 394 252 394 300 381 c 0,72,73
 310 380 310 380 321 375 c 0,74,75
 326 373 326 373 334 369 c 0,76,77
 345 361 345 361 348 350 c 0,78,79
 352 335 352 335 341 326 c 0,80,81
 339 324 339 324 331 320 c 0,82,83
 329 319 329 319 324.5 318.5 c 128,-1,84
 320 318 320 318 318 318 c 0,85,86
 311 317 311 317 290 317 c 2,87,-1
 264 317 l 2,88,89
 258 317 258 317 256 318 c 2,90,-1
 252 318 l 2,91,92
 228 318 228 318 207 324 c 0,93,94
 203 322 203 322 200 319 c 0,95,96
 161 290 161 290 155 244 c 0,97,98
 149 197 149 197 185 167 c 0,99,100
 231 127 231 127 335 127 c 0,101,102
 471 127 471 127 551 160 c 0,103,104
 573 167 573 167 581 147 c 0,105,106
 588 127 588 127 568 118 c 0,107,108
 511 94 511 94 422 86 c 1,109,-1
 422 83 l 2,19,20
EndSplineSet
Validated: 33
EndChar

StartChar: Euro
Encoding: 8364 8364 68
Width: 908
GlyphClass: 2
Flags: W
LayerCount: 2
Fore
SplineSet
452 474 m 1,0,1
 486 564 486 564 483 632 c 0,2,3
 480 740 480 740 385 762 c 0,4,5
 309 780 309 780 255 729 c 0,6,7
 202 683 202 683 204 613 c 0,8,9
 207 542 207 542 275 504 c 0,10,11
 341 467 341 467 452 474 c 1,0,1
-5 42 m 0,12,13
 87 42 87 42 192 121 c 1,14,-1
 192 126 l 2,15,16
 192 187 192 187 203 228 c 0,17,18
 208 249 208 249 230 244 c 0,19,20
 251 239 251 239 246 217 c 0,21,22
 239 189 239 189 238 159 c 1,23,24
 340 252 340 252 411 384 c 0,25,26
 423 406 423 406 433 428 c 1,27,28
 325 425 325 425 253 464 c 0,29,30
 162 515 162 515 159 612 c 0,31,32
 157 701 157 701 224 763 c 0,33,34
 298 829 298 829 395 806 c 0,35,36
 523 776 523 776 528 634 c 0,37,38
 531 564 531 564 502 478 c 1,39,40
 505 478 505 478 514 479.5 c 128,-1,41
 523 481 523 481 529 482 c 0,42,43
 579 492 579 492 613 503 c 0,44,45
 632 509 632 509 696 531 c 0,46,47
 699 532 699 532 706 535 c 0,48,49
 786 564 786 564 810 571 c 0,50,51
 831 576 831 576 838 555 c 0,52,53
 843 534 843 534 823 527 c 0,54,55
 791 518 791 518 721 493 c 0,56,57
 714 490 714 490 712 489 c 0,58,59
 650 467 650 467 626 460 c 0,60,61
 580 446 580 446 536 438 c 0,62,63
 524 436 524 436 484 431 c 1,64,65
 472 402 472 402 451 363 c 0,66,67
 372 213 372 213 252 111 c 0,68,69
 250 109 250 109 245 105 c 128,-1,70
 240 101 240 101 238 99 c 0,71,72
 239 71 239 71 244 22 c 0,73,74
 246 4 246 4 248 -11 c 0,75,76
 258 -104 258 -104 258 -152 c 0,77,78
 258 -161 258 -161 251.5 -167.5 c 128,-1,79
 245 -174 245 -174 236 -174 c 0,80,81
 226 -174 226 -174 219.5 -167.5 c 128,-1,82
 213 -161 213 -161 213 -152 c 0,83,84
 213 -106 213 -106 203 -16 c 0,85,86
 200 8 200 8 199 18 c 0,87,88
 197 34 197 34 195 67 c 1,89,90
 89 -3 89 -3 -6 -3 c 0,91,92
 -15 -3 -15 -3 -21.5 4 c 128,-1,93
 -28 11 -28 11 -28 20 c 128,-1,94
 -28 29 -28 29 -21.5 35.5 c 128,-1,95
 -15 42 -15 42 -5 42 c 0,12,13
EndSplineSet
Validated: 33
EndChar

StartChar: period
Encoding: 46 46 70
Width: 569
VWidth: 2048
Flags: W
LayerCount: 2
Fore
SplineSet
249.549804688 63.5498046875 m 1,0,-1
 249.549804688 141.450195312 l 1,1,-1
 327.450195312 141.450195312 l 1,2,-1
 327.450195312 63.5498046875 l 1,3,-1
 249.549804688 63.5498046875 l 1,0,-1
EndSplineSet
Validated: 524289
EndChar

StartChar: question
Encoding: 63 63 71
Width: 1139
VWidth: 2048
Flags: W
LayerCount: 2
Fore
SplineSet
528.419921875 199.389648438 m 1,0,1
 528.040039062 213.0703125 528.040039062 213.0703125 528.040039062 219.91015625 c 0,2,3
 528.040039062 260.190429688 528.040039062 260.190429688 539.440429688 289.450195312 c 0,4,5
 547.799804688 311.490234375 547.799804688 311.490234375 566.419921875 333.91015625 c 0,6,7
 580.099609375 350.25 580.099609375 350.25 615.629882812 381.599609375 c 128,-1,8
 651.16015625 412.950195312 651.16015625 412.950195312 661.799804688 431.5703125 c 128,-1,9
 672.440429688 450.190429688 672.440429688 450.190429688 672.440429688 472.23046875 c 0,10,11
 672.440429688 512.129882812 672.440429688 512.129882812 641.280273438 542.33984375 c 128,-1,12
 610.120117188 572.549804688 610.120117188 572.549804688 564.900390625 572.549804688 c 0,13,14
 521.200195312 572.549804688 521.200195312 572.549804688 491.940429688 545.190429688 c 128,-1,15
 462.6796875 517.830078125 462.6796875 517.830078125 453.559570312 459.690429688 c 1,16,-1
 383.259765625 468.049804688 l 1,17,18
 392.759765625 545.950195312 392.759765625 545.950195312 439.690429688 587.370117188 c 128,-1,19
 486.620117188 628.790039062 486.620117188 628.790039062 563.759765625 628.790039062 c 0,20,21
 645.459960938 628.790039062 645.459960938 628.790039062 694.099609375 584.330078125 c 128,-1,22
 742.740234375 539.870117188 742.740234375 539.870117188 742.740234375 476.790039062 c 0,23,24
 742.740234375 440.309570312 742.740234375 440.309570312 725.639648438 409.530273438 c 128,-1,25
 708.540039062 378.75 708.540039062 378.75 658.759765625 334.669921875 c 0,26,27
 625.3203125 305.030273438 625.3203125 305.030273438 615.059570312 290.969726562 c 128,-1,28
 604.799804688 276.91015625 604.799804688 276.91015625 599.860351562 258.669921875 c 128,-1,29
 594.919921875 240.4296875 594.919921875 240.4296875 594.16015625 199.389648438 c 1,30,-1
 528.419921875 199.389648438 l 1,0,1
524.240234375 62.2099609375 m 1,31,-1
 524.240234375 140.110351562 l 1,32,-1
 602.139648438 140.110351562 l 1,33,-1
 602.139648438 62.2099609375 l 1,34,-1
 524.240234375 62.2099609375 l 1,31,-1
EndSplineSet
Validated: 524289
EndChar

StartChar: quotedbl
Encoding: 34 34 72
Width: 727
VWidth: 2048
Flags: W
LayerCount: 2
Fore
SplineSet
277.28515625 455.294921875 m 1,0,-1
 257.78515625 564.10546875 l 1,1,-1
 257.78515625 657.705078125 l 1,2,-1
 337.735351562 657.705078125 l 1,3,-1
 337.735351562 564.10546875 l 1,4,-1
 320.184570312 455.294921875 l 1,5,-1
 277.28515625 455.294921875 l 1,0,-1
406.375 455.294921875 m 1,6,-1
 387.264648438 564.10546875 l 1,7,-1
 387.264648438 657.705078125 l 1,8,-1
 467.21484375 657.705078125 l 1,9,-1
 467.21484375 564.10546875 l 1,10,-1
 448.495117188 455.294921875 l 1,11,-1
 406.375 455.294921875 l 1,6,-1
EndSplineSet
Validated: 524289
EndChar

StartChar: numbersign
Encoding: 35 35 73
Width: 1139
VWidth: 2048
Flags: W
LayerCount: 2
Fore
SplineSet
386.040039062 -12.6201171875 m 1,0,-1
 419.969726562 153.51953125 l 1,1,-1
 354.059570312 153.51953125 l 1,2,-1
 354.059570312 211.629882812 l 1,3,-1
 431.669921875 211.629882812 l 1,4,-1
 460.530273438 353.200195312 l 1,5,-1
 354.059570312 353.200195312 l 1,6,-1
 354.059570312 411.309570312 l 1,7,-1
 472.23046875 411.309570312 l 1,8,-1
 506.16015625 578.620117188 l 1,9,-1
 564.66015625 578.620117188 l 1,10,-1
 530.73046875 411.309570312 l 1,11,-1
 653.580078125 411.309570312 l 1,12,-1
 687.509765625 578.620117188 l 1,13,-1
 746.400390625 578.620117188 l 1,14,-1
 712.469726562 411.309570312 l 1,15,-1
 779.940429688 411.309570312 l 1,16,-1
 779.940429688 353.200195312 l 1,17,-1
 700.76953125 353.200195312 l 1,18,-1
 671.51953125 211.629882812 l 1,19,-1
 779.940429688 211.629882812 l 1,20,-1
 779.940429688 153.51953125 l 1,21,-1
 659.8203125 153.51953125 l 1,22,-1
 625.889648438 -12.6201171875 l 1,23,-1
 567.389648438 -12.6201171875 l 1,24,-1
 600.9296875 153.51953125 l 1,25,-1
 478.469726562 153.51953125 l 1,26,-1
 444.540039062 -12.6201171875 l 1,27,-1
 386.040039062 -12.6201171875 l 1,0,-1
490.169921875 211.629882812 m 1,28,-1
 612.629882812 211.629882812 l 1,29,-1
 641.879882812 353.200195312 l 1,30,-1
 519.030273438 353.200195312 l 1,31,-1
 490.169921875 211.629882812 l 1,28,-1
EndSplineSet
Validated: 524289
EndChar

StartChar: dollar
Encoding: 36 36 74
Width: 1139
VWidth: 2048
Flags: W
LayerCount: 2
Fore
SplineSet
539.280273438 -108.33984375 m 1,0,-1
 539.280273438 -38.1396484375 l 1,1,2
 486.629882812 -31.509765625 486.629882812 -31.509765625 453.674804688 -14.544921875 c 128,-1,3
 420.719726562 2.419921875 420.719726562 2.419921875 396.735351562 40.25 c 128,-1,4
 372.75 78.080078125 372.75 78.080078125 368.849609375 132.6796875 c 1,5,-1
 439.440429688 145.940429688 l 1,6,7
 447.629882812 89.3896484375 447.629882812 89.3896484375 468.299804688 62.8701171875 c 0,8,9
 497.940429688 25.4296875 497.940429688 25.4296875 539.280273438 21.1396484375 c 1,10,-1
 539.280273438 244.610351562 l 1,11,12
 495.990234375 252.799804688 495.990234375 252.799804688 450.75 278.150390625 c 0,13,14
 417.209960938 296.870117188 417.209960938 296.870117188 399.075195312 330.01953125 c 128,-1,15
 380.940429688 363.169921875 380.940429688 363.169921875 380.940429688 405.290039062 c 0,16,17
 380.940429688 480.169921875 380.940429688 480.169921875 433.98046875 526.580078125 c 0,18,19
 469.469726562 557.780273438 469.469726562 557.780273438 539.280273438 564.799804688 c 1,20,-1
 539.280273438 598.33984375 l 1,21,-1
 580.620117188 598.33984375 l 1,22,-1
 580.620117188 564.799804688 l 1,23,24
 641.849609375 558.950195312 641.849609375 558.950195312 677.73046875 528.919921875 c 0,25,26
 723.75 490.700195312 723.75 490.700195312 733.110351562 424.009765625 c 1,27,-1
 660.5703125 413.08984375 l 1,28,29
 654.330078125 454.4296875 654.330078125 454.4296875 634.634765625 476.46484375 c 128,-1,30
 614.940429688 498.5 614.940429688 498.5 580.620117188 505.51953125 c 1,31,-1
 580.620117188 303.110351562 l 1,32,33
 633.66015625 289.849609375 633.66015625 289.849609375 650.8203125 282.440429688 c 0,34,35
 683.580078125 268.009765625 683.580078125 268.009765625 704.25 247.33984375 c 128,-1,36
 724.919921875 226.669921875 724.919921875 226.669921875 736.03515625 198.200195312 c 128,-1,37
 747.150390625 169.73046875 747.150390625 169.73046875 747.150390625 136.580078125 c 0,38,39
 747.150390625 63.650390625 747.150390625 63.650390625 700.740234375 14.900390625 c 128,-1,40
 654.330078125 -33.849609375 654.330078125 -33.849609375 580.620117188 -37.3603515625 c 1,41,-1
 580.620117188 -108.33984375 l 1,42,-1
 539.280273438 -108.33984375 l 1,0,-1
539.280273438 506.299804688 m 1,43,44
 498.330078125 500.059570312 498.330078125 500.059570312 474.735351562 473.540039062 c 128,-1,45
 451.139648438 447.01953125 451.139648438 447.01953125 451.139648438 410.75 c 0,46,47
 451.139648438 374.870117188 451.139648438 374.870117188 471.224609375 350.690429688 c 128,-1,48
 491.309570312 326.509765625 491.309570312 326.509765625 539.280273438 312.080078125 c 1,49,-1
 539.280273438 506.299804688 l 1,43,44
580.620117188 21.1396484375 m 1,50,51
 621.5703125 26.2099609375 621.5703125 26.2099609375 648.28515625 56.6298828125 c 128,-1,52
 675 87.0498046875 675 87.0498046875 675 131.900390625 c 0,53,54
 675 170.120117188 675 170.120117188 656.084960938 193.325195312 c 128,-1,55
 637.169921875 216.530273438 637.169921875 216.530273438 580.620117188 234.860351562 c 1,56,-1
 580.620117188 21.1396484375 l 1,50,51
EndSplineSet
Validated: 524289
EndChar

StartChar: percent
Encoding: 37 37 75
Width: 1821
VWidth: 2048
Flags: W
LayerCount: 2
Fore
SplineSet
599.6796875 422.745117188 m 0,0,1
 599.6796875 483.974609375 599.6796875 483.974609375 630.490234375 526.875 c 128,-1,2
 661.299804688 569.775390625 661.299804688 569.775390625 719.799804688 569.775390625 c 0,3,4
 773.620117188 569.775390625 773.620117188 569.775390625 808.915039062 531.360351562 c 128,-1,5
 844.209960938 492.9453125 844.209960938 492.9453125 844.209960938 418.455078125 c 0,6,7
 844.209960938 345.915039062 844.209960938 345.915039062 808.525390625 306.719726562 c 128,-1,8
 772.83984375 267.525390625 772.83984375 267.525390625 720.580078125 267.525390625 c 0,9,10
 668.709960938 267.525390625 668.709960938 267.525390625 634.1953125 306.134765625 c 128,-1,11
 599.6796875 344.745117188 599.6796875 344.745117188 599.6796875 422.745117188 c 0,0,1
721.75 521.415039062 m 256,12,13
 695.620117188 521.415039062 695.620117188 521.415039062 678.264648438 498.794921875 c 128,-1,14
 660.91015625 476.174804688 660.91015625 476.174804688 660.91015625 415.724609375 c 0,15,16
 660.91015625 360.735351562 660.91015625 360.735351562 678.459960938 338.309570312 c 128,-1,17
 696.009765625 315.884765625 696.009765625 315.884765625 721.75 315.884765625 c 0,18,19
 748.26953125 315.884765625 748.26953125 315.884765625 765.625 338.504882812 c 128,-1,20
 782.98046875 361.125 782.98046875 361.125 782.98046875 421.184570312 c 0,21,22
 782.98046875 476.565429688 782.98046875 476.565429688 765.4296875 498.990234375 c 128,-1,23
 747.879882812 521.415039062 747.879882812 521.415039062 721.75 521.415039062 c 256,12,13
722.139648438 -32.775390625 m 1,24,-1
 1034.91992188 569.775390625 l 1,25,-1
 1091.86035156 569.775390625 l 1,26,-1
 780.25 -32.775390625 l 1,27,-1
 722.139648438 -32.775390625 l 1,24,-1
969.400390625 122.4453125 m 0,28,29
 969.400390625 184.065429688 969.400390625 184.065429688 1000.20996094 226.76953125 c 128,-1,30
 1031.01953125 269.474609375 1031.01953125 269.474609375 1089.91015625 269.474609375 c 0,31,32
 1143.73046875 269.474609375 1143.73046875 269.474609375 1179.02539062 231.059570312 c 128,-1,33
 1214.3203125 192.64453125 1214.3203125 192.64453125 1214.3203125 118.155273438 c 0,34,35
 1214.3203125 45.615234375 1214.3203125 45.615234375 1178.63476562 6.419921875 c 128,-1,36
 1142.95019531 -32.775390625 1142.95019531 -32.775390625 1090.29980469 -32.775390625 c 0,37,38
 1038.4296875 -32.775390625 1038.4296875 -32.775390625 1003.91503906 6.0302734375 c 128,-1,39
 969.400390625 44.8349609375 969.400390625 44.8349609375 969.400390625 122.4453125 c 0,28,29
1091.86035156 221.115234375 m 0,40,41
 1065.33984375 221.115234375 1065.33984375 221.115234375 1047.98535156 198.495117188 c 128,-1,42
 1030.62988281 175.875 1030.62988281 175.875 1030.62988281 115.424804688 c 0,43,44
 1030.62988281 60.8251953125 1030.62988281 60.8251953125 1048.1796875 38.205078125 c 128,-1,45
 1065.73046875 15.5849609375 1065.73046875 15.5849609375 1091.46972656 15.5849609375 c 0,46,47
 1118.37988281 15.5849609375 1118.37988281 15.5849609375 1135.73535156 38.205078125 c 128,-1,48
 1153.08984375 60.8251953125 1153.08984375 60.8251953125 1153.08984375 120.884765625 c 0,49,50
 1153.08984375 176.264648438 1153.08984375 176.264648438 1135.54003906 198.690429688 c 128,-1,51
 1117.99023438 221.115234375 1117.99023438 221.115234375 1091.86035156 221.115234375 c 0,40,41
EndSplineSet
Validated: 526337
EndChar

StartChar: ampersand
Encoding: 38 38 76
Width: 1366
VWidth: 2048
Flags: W
LayerCount: 2
Fore
SplineSet
808.60546875 61.85546875 m 1,0,1
 773.89453125 23.2451171875 773.89453125 23.2451171875 732.9453125 3.9404296875 c 128,-1,2
 691.995117188 -15.365234375 691.995117188 -15.365234375 644.415039062 -15.365234375 c 0,3,4
 556.665039062 -15.365234375 556.665039062 -15.365234375 505.184570312 43.9150390625 c 0,5,6
 463.455078125 92.275390625 463.455078125 92.275390625 463.455078125 151.9453125 c 0,7,8
 463.455078125 204.985351562 463.455078125 204.985351562 497.580078125 247.690429688 c 128,-1,9
 531.705078125 290.39453125 531.705078125 290.39453125 599.565429688 322.764648438 c 1,10,11
 560.955078125 367.224609375 560.955078125 367.224609375 548.084960938 394.915039062 c 128,-1,12
 535.21484375 422.60546875 535.21484375 422.60546875 535.21484375 448.344726562 c 0,13,14
 535.21484375 499.825195312 535.21484375 499.825195312 575.580078125 537.849609375 c 128,-1,15
 615.9453125 575.875 615.9453125 575.875 677.174804688 575.875 c 0,16,17
 735.674804688 575.875 735.674804688 575.875 772.919921875 539.995117188 c 128,-1,18
 810.165039062 504.115234375 810.165039062 504.115234375 810.165039062 453.8046875 c 0,19,20
 810.165039062 372.294921875 810.165039062 372.294921875 702.134765625 314.575195312 c 1,21,-1
 804.705078125 183.924804688 l 1,22,23
 822.254882812 218.245117188 822.254882812 218.245117188 832.004882812 263.485351562 c 1,24,-1
 904.934570312 247.884765625 l 1,25,26
 886.21484375 173.004882812 886.21484375 173.004882812 854.235351562 124.64453125 c 1,27,28
 893.625 72.384765625 893.625 72.384765625 943.544921875 36.89453125 c 1,29,-1
 896.35546875 -18.875 l 1,30,31
 853.844726562 8.4248046875 853.844726562 8.4248046875 808.60546875 61.85546875 c 1,0,1
665.865234375 359.815429688 m 1,32,33
 711.495117188 386.724609375 711.495117188 386.724609375 724.950195312 407.004882812 c 128,-1,34
 738.405273438 427.28515625 738.405273438 427.28515625 738.405273438 451.85546875 c 0,35,36
 738.405273438 481.10546875 738.405273438 481.10546875 719.879882812 499.629882812 c 128,-1,37
 701.35546875 518.155273438 701.35546875 518.155273438 673.665039062 518.155273438 c 0,38,39
 645.1953125 518.155273438 645.1953125 518.155273438 626.280273438 499.825195312 c 128,-1,40
 607.365234375 481.495117188 607.365234375 481.495117188 607.365234375 454.974609375 c 0,41,42
 607.365234375 441.71484375 607.365234375 441.71484375 614.190429688 427.08984375 c 128,-1,43
 621.014648438 412.46484375 621.014648438 412.46484375 634.665039062 396.084960938 c 2,44,-1
 665.865234375 359.815429688 l 1,32,33
764.53515625 117.235351562 m 1,45,-1
 635.834960938 276.745117188 l 1,46,47
 578.89453125 242.815429688 578.89453125 242.815429688 559.004882812 213.759765625 c 128,-1,48
 539.115234375 184.705078125 539.115234375 184.705078125 539.115234375 156.235351562 c 0,49,50
 539.115234375 121.525390625 539.115234375 121.525390625 566.8046875 84.0849609375 c 128,-1,51
 594.495117188 46.64453125 594.495117188 46.64453125 645.1953125 46.64453125 c 0,52,53
 676.78515625 46.64453125 676.78515625 46.64453125 710.51953125 66.33984375 c 128,-1,54
 744.254882812 86.03515625 744.254882812 86.03515625 764.53515625 117.235351562 c 1,45,-1
EndSplineSet
Validated: 524289
EndChar

StartChar: quotesingle
Encoding: 39 39 77
Width: 391
VWidth: 2048
Flags: W
LayerCount: 2
Fore
SplineSet
170.46484375 455.294921875 m 1,0,-1
 152.525390625 562.155273438 l 1,1,-1
 152.525390625 657.705078125 l 1,2,-1
 232.474609375 657.705078125 l 1,3,-1
 232.474609375 562.155273438 l 1,4,-1
 213.754882812 455.294921875 l 1,5,-1
 170.46484375 455.294921875 l 1,0,-1
EndSplineSet
Validated: 524289
EndChar

StartChar: parenleft
Encoding: 40 40 78
Width: 682
VWidth: 2048
Flags: W
LayerCount: 2
Fore
SplineSet
410.0703125 -74.7900390625 m 1,0,1
 351.959960938 -1.4697265625 351.959960938 -1.4697265625 311.790039062 96.8095703125 c 128,-1,2
 271.620117188 195.08984375 271.620117188 195.08984375 271.620117188 300.389648438 c 0,3,4
 271.620117188 393.209960938 271.620117188 393.209960938 301.650390625 478.23046875 c 0,5,6
 336.75 576.900390625 336.75 576.900390625 410.0703125 674.790039062 c 1,7,-1
 460.379882812 674.790039062 l 1,8,9
 413.190429688 593.669921875 413.190429688 593.669921875 397.98046875 558.959960938 c 0,10,11
 374.190429688 505.139648438 374.190429688 505.139648438 360.540039062 446.639648438 c 0,12,13
 343.76953125 373.709960938 343.76953125 373.709960938 343.76953125 300 c 0,14,15
 343.76953125 112.41015625 343.76953125 112.41015625 460.379882812 -74.7900390625 c 1,16,-1
 410.0703125 -74.7900390625 l 1,0,1
EndSplineSet
Validated: 524289
EndChar

StartChar: parenright
Encoding: 41 41 79
Width: 682
VWidth: 2048
Flags: W
LayerCount: 2
Fore
SplineSet
321.9296875 -74.7900390625 m 1,0,-1
 271.620117188 -74.7900390625 l 1,1,2
 388.23046875 112.41015625 388.23046875 112.41015625 388.23046875 300 c 0,3,4
 388.23046875 373.3203125 388.23046875 373.3203125 371.459960938 445.469726562 c 0,5,6
 358.200195312 503.969726562 358.200195312 503.969726562 334.41015625 557.790039062 c 0,7,8
 319.200195312 592.889648438 319.200195312 592.889648438 271.620117188 674.790039062 c 1,9,-1
 321.9296875 674.790039062 l 1,10,11
 395.25 576.900390625 395.25 576.900390625 430.349609375 478.23046875 c 0,12,13
 460.379882812 393.209960938 460.379882812 393.209960938 460.379882812 300.389648438 c 0,14,15
 460.379882812 195.08984375 460.379882812 195.08984375 420.014648438 96.8095703125 c 128,-1,16
 379.650390625 -1.4697265625 379.650390625 -1.4697265625 321.9296875 -74.7900390625 c 1,0,-1
EndSplineSet
Validated: 524289
EndChar

StartChar: asterisk
Encoding: 42 42 80
Width: 797
VWidth: 2048
Flags: W
LayerCount: 2
Fore
SplineSet
265.60546875 536.01953125 m 1,0,-1
 283.544921875 591.400390625 l 1,1,2
 345.5546875 569.559570312 345.5546875 569.559570312 373.634765625 553.5703125 c 1,3,4
 366.224609375 624.16015625 366.224609375 624.16015625 365.834960938 650.6796875 c 1,5,-1
 422.384765625 650.6796875 l 1,6,7
 421.21484375 612.0703125 421.21484375 612.0703125 413.415039062 553.959960938 c 1,8,9
 453.584960938 574.240234375 453.584960938 574.240234375 505.455078125 591.400390625 c 1,10,-1
 523.39453125 536.01953125 l 1,11,12
 473.865234375 519.639648438 473.865234375 519.639648438 426.28515625 514.1796875 c 1,13,14
 450.075195312 493.509765625 450.075195312 493.509765625 493.365234375 440.469726562 c 1,15,-1
 446.565429688 407.3203125 l 1,16,17
 423.9453125 438.129882812 423.9453125 438.129882812 393.134765625 491.169921875 c 1,18,19
 364.275390625 436.1796875 364.275390625 436.1796875 342.434570312 407.3203125 c 1,20,-1
 296.415039062 440.469726562 l 1,21,22
 341.655273438 496.240234375 341.655273438 496.240234375 361.155273438 514.1796875 c 1,23,24
 310.844726562 523.9296875 310.844726562 523.9296875 265.60546875 536.01953125 c 1,0,-1
EndSplineSet
Validated: 524289
EndChar

StartChar: plus
Encoding: 43 43 81
Width: 1196
VWidth: 2048
Flags: W
LayerCount: 2
Fore
SplineSet
564.849609375 82.544921875 m 1,0,-1
 564.849609375 239.325195312 l 1,1,-1
 409.240234375 239.325195312 l 1,2,-1
 409.240234375 304.844726562 l 1,3,-1
 564.849609375 304.844726562 l 1,4,-1
 564.849609375 460.455078125 l 1,5,-1
 631.150390625 460.455078125 l 1,6,-1
 631.150390625 304.844726562 l 1,7,-1
 786.759765625 304.844726562 l 1,8,-1
 786.759765625 239.325195312 l 1,9,-1
 631.150390625 239.325195312 l 1,10,-1
 631.150390625 82.544921875 l 1,11,-1
 564.849609375 82.544921875 l 1,0,-1
EndSplineSet
Validated: 524289
EndChar

StartChar: comma
Encoding: 44 44 82
Width: 569
VWidth: 2048
Flags: W
LayerCount: 2
Fore
SplineSet
240.865234375 -475.924804688 m 1,0,-1
 240.865234375 -395.974609375 l 1,1,-1
 320.815429688 -395.974609375 l 1,2,-1
 320.815429688 -475.924804688 l 2,3,4
 320.815429688 -519.995117188 320.815429688 -519.995117188 305.21484375 -547.099609375 c 128,-1,5
 289.615234375 -574.205078125 289.615234375 -574.205078125 255.684570312 -589.025390625 c 1,6,-1
 236.184570312 -558.995117188 l 1,7,8
 258.415039062 -549.245117188 258.415039062 -549.245117188 268.9453125 -530.330078125 c 128,-1,9
 279.474609375 -511.415039062 279.474609375 -511.415039062 280.64453125 -475.924804688 c 1,10,-1
 240.865234375 -475.924804688 l 1,0,-1
EndSplineSet
Validated: 524289
EndChar

StartChar: hyphen
Encoding: 45 45 83
Width: 682
VWidth: 2048
Flags: W
LayerCount: 2
Fore
SplineSet
233.665039062 265.205078125 m 1,0,-1
 233.665039062 335.794921875 l 1,1,-1
 449.334960938 335.794921875 l 1,2,-1
 449.334960938 265.205078125 l 1,3,-1
 233.665039062 265.205078125 l 1,0,-1
EndSplineSet
Validated: 524289
EndChar

StartChar: slash
Encoding: 47 47 84
Width: 569
VWidth: 2048
Flags: W
LayerCount: 2
Fore
SplineSet
173.544921875 -12.6201171875 m 1,0,-1
 339.294921875 578.620117188 l 1,1,-1
 395.455078125 578.620117188 l 1,2,-1
 230.094726562 -12.6201171875 l 1,3,-1
 173.544921875 -12.6201171875 l 1,0,-1
EndSplineSet
Validated: 524289
EndChar

StartChar: colon
Encoding: 58 58 85
Width: 569
VWidth: 2048
Flags: W
LayerCount: 2
Fore
SplineSet
248.549804688 354.879882812 m 1,0,-1
 248.549804688 432.780273438 l 1,1,-1
 326.450195312 432.780273438 l 1,2,-1
 326.450195312 354.879882812 l 1,3,-1
 248.549804688 354.879882812 l 1,0,-1
248.549804688 29.2197265625 m 1,4,-1
 248.549804688 107.120117188 l 1,5,-1
 326.450195312 107.120117188 l 1,6,-1
 326.450195312 29.2197265625 l 1,7,-1
 248.549804688 29.2197265625 l 1,4,-1
EndSplineSet
Validated: 524289
EndChar

StartChar: semicolon
Encoding: 59 59 86
Width: 569
VWidth: 2048
Flags: W
LayerCount: 2
Fore
SplineSet
241.830078125 314.98046875 m 1,0,-1
 241.830078125 392.879882812 l 1,1,-1
 319.73046875 392.879882812 l 1,2,-1
 319.73046875 314.98046875 l 1,3,-1
 241.830078125 314.98046875 l 1,0,-1
241.830078125 -10.6796875 m 1,4,-1
 241.830078125 67.2197265625 l 1,5,-1
 319.73046875 67.2197265625 l 1,6,-1
 319.73046875 -10.6796875 l 2,7,8
 319.73046875 -53.6201171875 319.73046875 -53.6201171875 304.530273438 -80.0302734375 c 128,-1,9
 289.330078125 -106.440429688 289.330078125 -106.440429688 256.26953125 -120.879882812 c 1,10,-1
 237.26953125 -91.6201171875 l 1,11,12
 258.9296875 -82.1201171875 258.9296875 -82.1201171875 269.190429688 -63.6904296875 c 128,-1,13
 279.450195312 -45.259765625 279.450195312 -45.259765625 280.58984375 -10.6796875 c 1,14,-1
 241.830078125 -10.6796875 l 1,4,-1
EndSplineSet
Validated: 524289
EndChar

StartChar: less
Encoding: 60 60 87
Width: 1196
VWidth: 2048
Flags: W
LayerCount: 2
Fore
SplineSet
413.009765625 291.530273438 m 1,0,-1
 413.009765625 355.370117188 l 1,1,-1
 781.990234375 511.169921875 l 1,2,-1
 781.990234375 443.150390625 l 1,3,-1
 489.389648438 323.0703125 l 1,4,-1
 781.990234375 201.849609375 l 1,5,-1
 781.990234375 133.830078125 l 1,6,-1
 413.009765625 291.530273438 l 1,0,-1
EndSplineSet
Validated: 524289
EndChar

StartChar: equal
Encoding: 61 61 88
Width: 1196
VWidth: 2048
Flags: W
LayerCount: 2
Fore
SplineSet
781.919921875 376.129882812 m 1,0,-1
 414.080078125 376.129882812 l 1,1,-1
 414.080078125 439.969726562 l 1,2,-1
 781.919921875 439.969726562 l 1,3,-1
 781.919921875 376.129882812 l 1,0,-1
781.919921875 207.030273438 m 1,4,-1
 414.080078125 207.030273438 l 1,5,-1
 414.080078125 270.870117188 l 1,6,-1
 781.919921875 270.870117188 l 1,7,-1
 781.919921875 207.030273438 l 1,4,-1
EndSplineSet
Validated: 524289
EndChar

StartChar: greater
Encoding: 62 62 89
Width: 1196
VWidth: 2048
Flags: W
LayerCount: 2
Fore
SplineSet
781.990234375 291.530273438 m 1,0,-1
 413.009765625 133.830078125 l 1,1,-1
 413.009765625 201.849609375 l 1,2,-1
 705.23046875 323.0703125 l 1,3,-1
 413.009765625 443.150390625 l 1,4,-1
 413.009765625 511.169921875 l 1,5,-1
 781.990234375 355.370117188 l 1,6,-1
 781.990234375 291.530273438 l 1,0,-1
EndSplineSet
Validated: 524289
EndChar

StartChar: at
Encoding: 64 64 90
Width: 2079
VWidth: 2048
Flags: W
LayerCount: 2
Fore
SplineSet
1097.13964844 91.16015625 m 1,0,1
 1072.44042969 62.66015625 1072.44042969 62.66015625 1041.84960938 45.3701171875 c 128,-1,2
 1011.25976562 28.080078125 1011.25976562 28.080078125 980.48046875 28.080078125 c 0,3,4
 946.66015625 28.080078125 946.66015625 28.080078125 914.740234375 47.83984375 c 128,-1,5
 882.8203125 67.599609375 882.8203125 67.599609375 862.870117188 108.639648438 c 128,-1,6
 842.919921875 149.6796875 842.919921875 149.6796875 842.919921875 198.700195312 c 0,7,8
 842.919921875 259.120117188 842.919921875 259.120117188 873.889648438 319.73046875 c 128,-1,9
 904.860351562 380.33984375 904.860351562 380.33984375 950.83984375 410.740234375 c 128,-1,10
 996.8203125 441.139648438 996.8203125 441.139648438 1040.13964844 441.139648438 c 0,11,12
 1073.20019531 441.139648438 1073.20019531 441.139648438 1103.21972656 423.849609375 c 128,-1,13
 1133.24023438 406.559570312 1133.24023438 406.559570312 1154.90039062 371.219726562 c 1,14,-1
 1167.8203125 430.120117188 l 1,15,-1
 1235.83984375 430.120117188 l 1,16,-1
 1181.12011719 175.139648438 l 2,17,18
 1169.71972656 121.940429688 1169.71972656 121.940429688 1169.71972656 116.240234375 c 0,19,20
 1169.71972656 105.98046875 1169.71972656 105.98046875 1177.50976562 98.5703125 c 128,-1,21
 1185.29980469 91.16015625 1185.29980469 91.16015625 1196.3203125 91.16015625 c 0,22,23
 1216.45996094 91.16015625 1216.45996094 91.16015625 1249.13964844 114.33984375 c 0,24,25
 1292.45996094 144.740234375 1292.45996094 144.740234375 1317.73046875 195.849609375 c 128,-1,26
 1343 246.959960938 1343 246.959960938 1343 301.299804688 c 0,27,28
 1343 364.759765625 1343 364.759765625 1310.50976562 419.860351562 c 128,-1,29
 1278.01953125 474.959960938 1278.01953125 474.959960938 1213.61035156 508.01953125 c 128,-1,30
 1149.20019531 541.080078125 1149.20019531 541.080078125 1071.29980469 541.080078125 c 0,31,32
 982.379882812 541.080078125 982.379882812 541.080078125 908.849609375 499.469726562 c 128,-1,33
 835.3203125 457.860351562 835.3203125 457.860351562 794.849609375 380.150390625 c 128,-1,34
 754.379882812 302.440429688 754.379882812 302.440429688 754.379882812 213.51953125 c 0,35,36
 754.379882812 120.419921875 754.379882812 120.419921875 794.849609375 53.16015625 c 128,-1,37
 835.3203125 -14.099609375 835.3203125 -14.099609375 911.889648438 -46.2099609375 c 128,-1,38
 988.459960938 -78.3203125 988.459960938 -78.3203125 1081.55957031 -78.3203125 c 0,39,40
 1181.12011719 -78.3203125 1181.12011719 -78.3203125 1248.37988281 -44.8798828125 c 128,-1,41
 1315.63964844 -11.4404296875 1315.63964844 -11.4404296875 1349.08007812 36.4404296875 c 1,42,-1
 1417.86035156 36.4404296875 l 1,43,44
 1398.48046875 -3.4599609375 1398.48046875 -3.4599609375 1351.36035156 -44.8798828125 c 128,-1,45
 1304.24023438 -86.2998046875 1304.24023438 -86.2998046875 1239.25976562 -110.4296875 c 128,-1,46
 1174.28027344 -134.559570312 1174.28027344 -134.559570312 1082.70019531 -134.559570312 c 0,47,48
 998.33984375 -134.559570312 998.33984375 -134.559570312 927.08984375 -112.900390625 c 128,-1,49
 855.83984375 -91.240234375 855.83984375 -91.240234375 805.6796875 -47.73046875 c 128,-1,50
 755.51953125 -4.2197265625 755.51953125 -4.2197265625 730.059570312 52.400390625 c 0,51,52
 698.139648438 124.219726562 698.139648438 124.219726562 698.139648438 207.440429688 c 0,53,54
 698.139648438 300.16015625 698.139648438 300.16015625 736.139648438 384.139648438 c 0,55,56
 782.5 487.120117188 782.5 487.120117188 867.809570312 541.83984375 c 128,-1,57
 953.120117188 596.559570312 953.120117188 596.559570312 1074.71972656 596.559570312 c 0,58,59
 1168.95996094 596.559570312 1168.95996094 596.559570312 1244.00976562 557.990234375 c 128,-1,60
 1319.05957031 519.419921875 1319.05957031 519.419921875 1362.37988281 443.040039062 c 0,61,62
 1399.24023438 377.299804688 1399.24023438 377.299804688 1399.24023438 300.16015625 c 0,63,64
 1399.24023438 189.959960938 1399.24023438 189.959960938 1321.71972656 104.459960938 c 0,65,66
 1252.55957031 27.7001953125 1252.55957031 27.7001953125 1170.48046875 27.7001953125 c 0,67,68
 1144.25976562 27.7001953125 1144.25976562 27.7001953125 1128.11035156 35.6796875 c 128,-1,69
 1111.95996094 43.66015625 1111.95996094 43.66015625 1104.36035156 58.48046875 c 0,70,71
 1099.41992188 67.98046875 1099.41992188 67.98046875 1097.13964844 91.16015625 c 1,0,1
913.219726562 194.139648438 m 0,72,73
 913.219726562 142.080078125 913.219726562 142.080078125 937.919921875 113.200195312 c 128,-1,74
 962.620117188 84.3203125 962.620117188 84.3203125 994.540039062 84.3203125 c 0,75,76
 1015.8203125 84.3203125 1015.8203125 84.3203125 1039.37988281 97.0498046875 c 128,-1,77
 1062.94042969 109.780273438 1062.94042969 109.780273438 1084.41015625 134.860351562 c 128,-1,78
 1105.87988281 159.940429688 1105.87988281 159.940429688 1119.55957031 198.509765625 c 128,-1,79
 1133.24023438 237.080078125 1133.24023438 237.080078125 1133.24023438 275.83984375 c 0,80,81
 1133.24023438 327.51953125 1133.24023438 327.51953125 1107.58984375 356.01953125 c 128,-1,82
 1081.94042969 384.51953125 1081.94042969 384.51953125 1045.08007812 384.51953125 c 0,83,84
 1020.75976562 384.51953125 1020.75976562 384.51953125 999.290039062 372.169921875 c 128,-1,85
 977.8203125 359.8203125 977.8203125 359.8203125 957.6796875 332.459960938 c 128,-1,86
 937.540039062 305.099609375 937.540039062 305.099609375 925.379882812 265.959960938 c 128,-1,87
 913.219726562 226.8203125 913.219726562 226.8203125 913.219726562 194.139648438 c 0,72,73
EndSplineSet
Validated: 524289
EndChar

StartChar: braceleft
Encoding: 123 123 91
Width: 684
VWidth: 2048
Flags: W
LayerCount: 2
Fore
SplineSet
116.490234375 261.16015625 m 1,0,1
 145.75 261.919921875 145.75 261.919921875 164.1796875 276.9296875 c 128,-1,2
 182.610351562 291.940429688 182.610351562 291.940429688 188.690429688 318.16015625 c 128,-1,3
 194.76953125 344.379882812 194.76953125 344.379882812 195.150390625 407.83984375 c 128,-1,4
 195.530273438 471.299804688 195.530273438 471.299804688 197.4296875 491.440429688 c 0,5,6
 200.849609375 523.360351562 200.849609375 523.360351562 210.16015625 542.740234375 c 128,-1,7
 219.469726562 562.120117188 219.469726562 562.120117188 233.150390625 573.709960938 c 128,-1,8
 246.830078125 585.299804688 246.830078125 585.299804688 268.110351562 591.379882812 c 0,9,10
 282.549804688 595.1796875 282.549804688 595.1796875 315.23046875 595.1796875 c 2,11,-1
 336.509765625 595.1796875 l 1,12,-1
 336.509765625 535.51953125 l 1,13,-1
 324.73046875 535.51953125 l 2,14,15
 285.209960938 535.51953125 285.209960938 535.51953125 272.290039062 521.26953125 c 128,-1,16
 259.370117188 507.01953125 259.370117188 507.01953125 259.370117188 457.620117188 c 0,17,18
 259.370117188 358.059570312 259.370117188 358.059570312 255.190429688 331.83984375 c 0,19,20
 248.349609375 291.1796875 248.349609375 291.1796875 231.8203125 269.139648438 c 128,-1,21
 215.290039062 247.099609375 215.290039062 247.099609375 179.950195312 230 c 1,22,23
 221.75 212.51953125 221.75 212.51953125 240.559570312 176.610351562 c 128,-1,24
 259.370117188 140.700195312 259.370117188 140.700195312 259.370117188 59 c 0,25,26
 259.370117188 -15.099609375 259.370117188 -15.099609375 260.889648438 -29.16015625 c 0,27,28
 263.9296875 -55 263.9296875 -55 276.280273438 -65.259765625 c 128,-1,29
 288.629882812 -75.51953125 288.629882812 -75.51953125 324.73046875 -75.51953125 c 2,30,-1
 336.509765625 -75.51953125 l 1,31,-1
 336.509765625 -135.1796875 l 1,32,-1
 315.23046875 -135.1796875 l 2,33,34
 277.990234375 -135.1796875 277.990234375 -135.1796875 261.26953125 -129.099609375 c 0,35,36
 236.950195312 -120.360351562 236.950195312 -120.360351562 220.990234375 -100.790039062 c 128,-1,37
 205.030273438 -81.2197265625 205.030273438 -81.2197265625 200.280273438 -51.2001953125 c 128,-1,38
 195.530273438 -21.1796875 195.530273438 -21.1796875 195.150390625 47.2197265625 c 128,-1,39
 194.76953125 115.620117188 194.76953125 115.620117188 188.690429688 141.83984375 c 128,-1,40
 182.610351562 168.059570312 182.610351562 168.059570312 164.1796875 183.259765625 c 128,-1,41
 145.75 198.459960938 145.75 198.459960938 116.490234375 199.219726562 c 1,42,-1
 116.490234375 261.16015625 l 1,0,1
EndSplineSet
Validated: 524289
EndChar

StartChar: bar
Encoding: 124 124 92
Width: 532
VWidth: 2048
Flags: W
LayerCount: 2
Fore
SplineSet
116.669921875 -135.1796875 m 1,0,-1
 116.669921875 595.1796875 l 1,1,-1
 176.330078125 595.1796875 l 1,2,-1
 176.330078125 -135.1796875 l 1,3,-1
 116.669921875 -135.1796875 l 1,0,-1
EndSplineSet
Validated: 524289
EndChar

StartChar: braceright
Encoding: 125 125 93
Width: 684
VWidth: 2048
Flags: W
LayerCount: 2
Fore
SplineSet
326.509765625 261.16015625 m 1,0,-1
 326.509765625 199.219726562 l 1,1,2
 297.25 198.459960938 297.25 198.459960938 278.8203125 183.259765625 c 128,-1,3
 260.389648438 168.059570312 260.389648438 168.059570312 254.309570312 142.030273438 c 128,-1,4
 248.23046875 116 248.23046875 116 247.849609375 52.5400390625 c 128,-1,5
 247.469726562 -10.919921875 247.469726562 -10.919921875 245.5703125 -31.0595703125 c 0,6,7
 242.150390625 -63.3603515625 242.150390625 -63.3603515625 232.83984375 -82.5498046875 c 128,-1,8
 223.530273438 -101.740234375 223.530273438 -101.740234375 209.849609375 -113.330078125 c 128,-1,9
 196.169921875 -124.919921875 196.169921875 -124.919921875 174.889648438 -131 c 0,10,11
 160.450195312 -135.1796875 160.450195312 -135.1796875 127.76953125 -135.1796875 c 2,12,-1
 106.490234375 -135.1796875 l 1,13,-1
 106.490234375 -75.51953125 l 1,14,-1
 118.26953125 -75.51953125 l 2,15,16
 157.790039062 -75.51953125 157.790039062 -75.51953125 170.709960938 -61.26953125 c 128,-1,17
 183.629882812 -47.01953125 183.629882812 -47.01953125 183.629882812 2.759765625 c 0,18,19
 183.629882812 97.759765625 183.629882812 97.759765625 187.049804688 123.219726562 c 0,20,21
 193.129882812 165.400390625 193.129882812 165.400390625 211.370117188 190.669921875 c 128,-1,22
 229.610351562 215.940429688 229.610351562 215.940429688 263.049804688 230 c 1,23,24
 219.349609375 250.900390625 219.349609375 250.900390625 201.490234375 285.290039062 c 128,-1,25
 183.629882812 319.6796875 183.629882812 319.6796875 183.629882812 401.379882812 c 0,26,27
 183.629882812 475.48046875 183.629882812 475.48046875 181.73046875 489.919921875 c 0,28,29
 179.0703125 515.379882812 179.0703125 515.379882812 166.719726562 525.450195312 c 128,-1,30
 154.370117188 535.51953125 154.370117188 535.51953125 118.26953125 535.51953125 c 2,31,-1
 106.490234375 535.51953125 l 1,32,-1
 106.490234375 595.1796875 l 1,33,-1
 127.76953125 595.1796875 l 2,34,35
 165.009765625 595.1796875 165.009765625 595.1796875 181.73046875 589.099609375 c 0,36,37
 206.049804688 580.740234375 206.049804688 580.740234375 222.009765625 560.98046875 c 128,-1,38
 237.969726562 541.219726562 237.969726562 541.219726562 242.719726562 511.200195312 c 128,-1,39
 247.469726562 481.1796875 247.469726562 481.1796875 247.849609375 412.780273438 c 128,-1,40
 248.23046875 344.379882812 248.23046875 344.379882812 254.309570312 318.349609375 c 128,-1,41
 260.389648438 292.3203125 260.389648438 292.3203125 278.8203125 277.120117188 c 128,-1,42
 297.25 261.919921875 297.25 261.919921875 326.509765625 261.16015625 c 1,0,-1
EndSplineSet
Validated: 524289
EndChar

StartChar: asciitilde
Encoding: 126 126 94
Width: 1196
VWidth: 2048
Flags: W
LayerCount: 2
Fore
SplineSet
434.129882812 218.6796875 m 1,0,-1
 434.129882812 296.580078125 l 1,1,2
 474.41015625 342.1796875 474.41015625 342.1796875 539.76953125 342.1796875 c 0,3,4
 562.5703125 342.1796875 562.5703125 342.1796875 587.650390625 335.530273438 c 128,-1,5
 612.73046875 328.879882812 612.73046875 328.879882812 659.08984375 309.120117188 c 0,6,7
 685.309570312 298.099609375 685.309570312 298.099609375 698.419921875 294.6796875 c 128,-1,8
 711.530273438 291.259765625 711.530273438 291.259765625 724.830078125 291.259765625 c 0,9,10
 749.530273438 291.259765625 749.530273438 291.259765625 775.940429688 306.080078125 c 128,-1,11
 802.349609375 320.900390625 802.349609375 320.900390625 822.870117188 343.3203125 c 1,12,-1
 822.870117188 262.759765625 l 1,13,14
 798.549804688 239.959960938 798.549804688 239.959960938 773.66015625 229.700195312 c 128,-1,15
 748.76953125 219.440429688 748.76953125 219.440429688 717.610351562 219.440429688 c 0,16,17
 694.809570312 219.440429688 694.809570312 219.440429688 674.099609375 224.759765625 c 128,-1,18
 653.389648438 230.080078125 653.389648438 230.080078125 608.360351562 250.219726562 c 128,-1,19
 563.330078125 270.360351562 563.330078125 270.360351562 533.309570312 270.360351562 c 0,20,21
 508.990234375 270.360351562 508.990234375 270.360351562 487.51953125 259.91015625 c 128,-1,22
 466.049804688 249.459960938 466.049804688 249.459960938 434.129882812 218.6796875 c 1,0,-1
EndSplineSet
Validated: 524289
EndChar

StartChar: uni02C4
Encoding: 708 708 95
Width: 1196
VWidth: 2048
Flags: W
LayerCount: 2
Fore
SplineSet
786.169921875 138.009765625 m 1,0,-1
 718.150390625 138.009765625 l 1,1,-1
 596.9296875 430.610351562 l 1,2,-1
 476.849609375 138.009765625 l 1,3,-1
 408.830078125 138.009765625 l 1,4,-1
 564.629882812 506.990234375 l 1,5,-1
 628.469726562 506.990234375 l 1,6,-1
 786.169921875 138.009765625 l 1,0,-1
EndSplineSet
Validated: 524289
EndChar

StartChar: B
Encoding: 66 66 96
Width: 758
Flags: W
LayerCount: 2
Fore
SplineSet
387 -2 m 1,0,1
 424 -1 424 -1 504 16 c 0,2,3
 508 17 508 17 516.5 18.5 c 128,-1,4
 525 20 525 20 527 21 c 0,5,6
 550 25 550 25 568 30 c 0,7,8
 576 32 576 32 589 34.5 c 128,-1,9
 602 37 602 37 607 38 c 0,10,11
 650 46 650 46 665 46 c 0,12,13
 675 46 675 46 681.5 39.5 c 128,-1,14
 688 33 688 33 688 23 c 0,15,16
 688 14 688 14 681.5 7.5 c 128,-1,17
 675 1 675 1 666 1 c 0,18,19
 655 1 655 1 615 -7 c 0,20,21
 611 -8 611 -8 598.5 -10 c 128,-1,22
 586 -12 586 -12 578 -14 c 0,23,24
 557 -20 557 -20 536 -23 c 0,25,26
 532 -24 532 -24 524.5 -25.5 c 128,-1,27
 517 -27 517 -27 513 -28 c 0,28,29
 411 -48 411 -48 374 -48 c 1,30,31
 362 -90 362 -90 353 -123 c 0,32,33
 349 -137 349 -137 343.5 -156.5 c 128,-1,34
 338 -176 338 -176 337 -180 c 0,35,36
 336 -188 336 -188 334 -192 c 2,37,-1
 334 -195 l 1,38,-1
 333 -196 l 1,39,40
 328 -217 328 -217 306 -212 c 0,41,42
 285 -207 285 -207 290 -185 c 0,43,44
 290 -183 290 -183 291 -181 c 0,45,46
 292 -176 292 -176 294 -169 c 128,-1,47
 296 -162 296 -162 301 -142.5 c 128,-1,48
 306 -123 306 -123 310 -111 c 0,49,50
 321 -70 321 -70 393 186 c 0,51,52
 396 195 396 195 404 199.5 c 128,-1,53
 412 204 412 204 421 201 c 0,54,55
 430 199 430 199 434.5 190.5 c 128,-1,56
 439 182 439 182 437 173 c 0,57,58
 421 119 421 119 387 -2 c 1,0,1
334 189 m 0,59,60
 312 123 312 123 299 82 c 0,61,62
 298 77 298 77 293 61.5 c 128,-1,63
 288 46 288 46 286 38 c 0,64,65
 258 -53 258 -53 237 -131 c 0,66,67
 234 -140 234 -140 229 -158.5 c 128,-1,68
 224 -177 224 -177 221 -186 c 0,69,70
 219 -192 219 -192 217 -202 c 0,71,72
 216 -202 216 -202 216 -204 c 128,-1,73
 216 -206 216 -206 215 -206 c 1,74,-1
 215 -207 l 2,75,76
 213 -216 213 -216 204.5 -220.5 c 128,-1,77
 196 -225 196 -225 187 -223 c 0,78,79
 165 -217 165 -217 172 -196 c 1,80,-1
 172 -194 l 1,81,-1
 172 -192 l 2,82,83
 173 -191 173 -191 173 -190 c 0,84,85
 174 -188 174 -188 178 -174 c 0,86,87
 183 -154 183 -154 193 -118 c 0,88,89
 240 41 240 41 243 52 c 2,90,-1
 246 61 l 1,91,92
 243 58 243 58 242 56 c 0,93,94
 204 15 204 15 151 7 c 0,95,96
 109 -1 109 -1 -1 3 c 0,97,98
 -10 4 -10 4 -16.5 10.5 c 128,-1,99
 -23 17 -23 17 -23 26 c 0,100,101
 -22 36 -22 36 -15.5 42.5 c 128,-1,102
 -9 49 -9 49 0 48 c 0,103,104
 112 45 112 45 143 51 c 0,105,106
 181 58 181 58 208 87 c 0,107,108
 224 104 224 104 244 134 c 0,109,110
 292 203 292 203 292 209 c 0,111,112
 298 219 298 219 312 219 c 0,113,114
 317 219 317 219 320 218 c 0,115,116
 341 211 341 211 334 189 c 0,59,60
EndSplineSet
Validated: 33
EndChar

StartChar: C
Encoding: 67 67 97
Width: 677
Flags: W
LayerCount: 2
Fore
SplineSet
-1 45 m 0,0,1
 53 45 53 45 98 93 c 0,2,3
 117 112 117 112 139 145 c 0,4,5
 155 170 155 170 176 208 c 0,6,7
 179 211 179 211 179 213 c 0,8,9
 206 261 206 261 221 282 c 0,10,11
 244 318 244 318 269 343 c 0,12,13
 334 405 334 405 415 392 c 0,14,15
 430 391 430 391 440 376 c 0,16,17
 442 374 442 374 446 368 c 2,18,-1
 447 367 l 2,19,20
 448 366 448 366 448 365 c 2,21,-1
 448 364 l 1,22,23
 453 354 453 354 448 344 c 128,-1,24
 443 334 443 334 432 332 c 0,25,26
 360 319 360 319 333 253 c 0,27,28
 323 227 323 227 323 200.5 c 128,-1,29
 323 174 323 174 334 159 c 0,30,31
 366 111 366 111 460 74 c 0,32,33
 538 43 538 43 585 43 c 0,34,35
 594 43 594 43 601 36.5 c 128,-1,36
 608 30 608 30 608 20 c 0,37,38
 608 11 608 11 601 4.5 c 128,-1,39
 594 -2 594 -2 585 -2 c 0,40,41
 528 -2 528 -2 444 32 c 0,42,43
 336 74 336 74 297 134 c 0,44,45
 279 159 279 159 278 196.5 c 128,-1,46
 277 234 277 234 292 270 c 0,47,48
 309 314 309 314 345 341 c 1,49,50
 325 334 325 334 301 311 c 0,51,52
 282 292 282 292 258 257 c 0,53,54
 240 229 240 229 218 191 c 0,55,56
 218 189 218 189 215 186 c 0,57,58
 192 144 192 144 176 121 c 0,59,60
 153 84 153 84 131 62 c 0,61,62
 72 0 72 0 -1 0 c 0,63,64
 -10 0 -10 0 -16.5 6.5 c 128,-1,65
 -23 13 -23 13 -23 23 c 0,66,67
 -23 32 -23 32 -16.5 38.5 c 128,-1,68
 -10 45 -10 45 -1 45 c 0,0,1
EndSplineSet
Validated: 33
EndChar

StartChar: D
Encoding: 68 68 98
Width: 670
Flags: W
LayerCount: 2
Fore
SplineSet
2 73 m 0,0,1
 38 72 38 72 72 96 c 0,2,3
 101 117 101 117 135 161 c 0,4,5
 137 164 137 164 144 172 c 128,-1,6
 151 180 151 180 157 187.5 c 128,-1,7
 163 195 163 195 164 196 c 0,8,9
 189 229 189 229 214 254 c 0,10,11
 219 259 219 259 236 276.5 c 128,-1,12
 253 294 253 294 256 297 c 0,13,14
 287 328 287 328 325 345 c 0,15,16
 360 360 360 360 415 358.5 c 128,-1,17
 470 357 470 357 505 340 c 0,18,19
 587 299 587 299 578 240 c 0,20,21
 571 193 571 193 511 163 c 0,22,23
 492 154 492 154 472 153 c 0,24,25
 461 152 461 152 433 152 c 2,26,-1
 428 152 l 2,27,28
 390 152 390 152 375 147 c 0,29,30
 356 139 356 139 351 116 c 0,31,32
 346 91 346 91 355 77 c 0,33,34
 364 64 364 64 391 56 c 0,35,36
 420 47 420 47 459 46 c 0,37,38
 505 44 505 44 546 44 c 2,39,-1
 550 44 l 1,40,-1
 578 44 l 2,41,42
 588 44 588 44 594.5 37.5 c 128,-1,43
 601 31 601 31 601 21 c 0,44,45
 600 12 600 12 593.5 5.5 c 128,-1,46
 587 -1 587 -1 578 -1 c 2,47,-1
 550 -1 l 1,48,-1
 546 -1 l 2,49,50
 503 -1 503 -1 457 1 c 0,51,52
 404 4 404 4 378 13 c 0,53,54
 288 40 288 40 307 126 c 0,55,56
 319 173 319 173 359 189 c 0,57,58
 374 194 374 194 394 196 c 0,59,60
 404 197 404 197 429 197 c 2,61,-1
 433 197 l 2,62,63
 478 197 478 197 491 203 c 0,64,65
 529 224 529 224 534 247 c 0,66,67
 535 257 535 257 527 268 c 0,68,69
 516 284 516 284 485 300 c 0,70,71
 459 313 459 313 414.5 314 c 128,-1,72
 370 315 370 315 344 303 c 0,73,74
 313 290 313 290 288 265 c 0,75,76
 285 263 285 263 277 254.5 c 128,-1,77
 269 246 269 246 259.5 236 c 128,-1,78
 250 226 250 226 246 222 c 0,79,80
 226 202 226 202 199 168 c 0,81,82
 191 160 191 160 170 132 c 0,83,84
 129 82 129 82 99 60 c 0,85,86
 52 27 52 27 0 28 c 0,87,88
 -9 28 -9 28 -15.5 35 c 128,-1,89
 -22 42 -22 42 -21 51 c 0,90,91
 -21 60 -21 60 -14.5 66.5 c 128,-1,92
 -8 73 -8 73 2 73 c 0,0,1
EndSplineSet
Validated: 33
EndChar

StartChar: I
Encoding: 73 73 99
Width: 591
Flags: W
LayerCount: 2
Fore
SplineSet
366 535 m 128,-1,1
 380 535 380 535 389.5 525.5 c 128,-1,2
 399 516 399 516 399 502 c 128,-1,3
 399 488 399 488 389.5 478.5 c 128,-1,4
 380 469 380 469 366 469 c 128,-1,5
 352 469 352 469 342 478.5 c 128,-1,6
 332 488 332 488 332 502 c 128,-1,7
 332 516 332 516 342 525.5 c 128,-1,0
 352 535 352 535 366 535 c 128,-1,1
3 53 m 0,8,9
 153 46 153 46 238 118 c 0,10,11
 267 143 267 143 289 180 c 2,12,-1
 295 192 l 2,13,14
 318 243 318 243 327 288 c 0,15,16
 327 293 327 293 331 299 c 0,17,18
 340 313 340 313 355 310 c 0,19,20
 364 308 364 308 369.5 300.5 c 128,-1,21
 375 293 375 293 373 284 c 0,22,23
 361 216 361 216 329 159 c 0,24,25
 326 151 326 151 318.5 136 c 128,-1,26
 311 121 311 121 310 118 c 0,27,28
 301 97 301 97 299 82 c 0,29,30
 299 72 299 72 305 67 c 0,31,32
 315 57 315 57 345 50 c 0,33,34
 357 47 357 47 390 45 c 2,35,-1
 453 45 l 2,36,37
 475 46 475 46 499 46 c 0,38,39
 509 46 509 46 515.5 39.5 c 128,-1,40
 522 33 522 33 522 23 c 0,41,42
 522 14 522 14 515.5 7.5 c 128,-1,43
 509 1 509 1 499 1 c 0,44,45
 475 1 475 1 453 0 c 2,46,-1
 389 0 l 2,47,48
 350 2 350 2 334 6 c 0,49,50
 292 17 292 17 274 35 c 0,51,52
 257 51 257 51 255 74 c 1,53,54
 159 1 159 1 1 8 c 0,55,56
 -21 10 -21 10 -21 32 c 0,57,58
 -20 41 -20 41 -13.5 47.5 c 128,-1,59
 -7 54 -7 54 3 53 c 0,8,9
EndSplineSet
Validated: 33
EndChar

StartChar: J
Encoding: 74 74 100
Width: 455
Flags: W
LayerCount: 2
Fore
SplineSet
-107 -279 m 0,0,1
 -84 -215 -84 -215 -19 -69 c 0,2,3
 -4 -35 -4 -35 114 224 c 1,4,-1
 115 225 l 1,5,6
 208 427 208 427 256 535 c 0,7,8
 323 685 323 685 341 741 c 0,9,10
 348 762 348 762 370 755 c 0,11,12
 379 752 379 752 383 743.5 c 128,-1,13
 387 735 387 735 384 727 c 0,14,15
 367 675 367 675 297 517 c 0,16,17
 253 419 253 419 156 206 c 0,18,19
 155 206 155 206 155 205 c 0,20,21
 26 -78 26 -78 22 -87 c 0,22,23
 -42 -231 -42 -231 -65 -294 c 0,24,25
 -72 -315 -72 -315 -94 -308 c 0,26,27
 -103 -304 -103 -304 -107 -295.5 c 128,-1,28
 -111 -287 -111 -287 -107 -279 c 0,0,1
EndSplineSet
Validated: 33
EndChar

StartChar: M
Encoding: 77 77 101
Width: 750
Flags: W
LayerCount: 2
Fore
SplineSet
352 -53 m 1,0,1
 272 -76 272 -76 229 -105 c 0,2,3
 183 -137 183 -137 195 -172 c 0,4,5
 206 -205 206 -205 246 -223 c 0,6,7
 302 -247 302 -247 386 -228 c 0,8,9
 434 -217 434 -217 455 -192 c 0,10,11
 481 -161 481 -161 454 -128 c 0,12,13
 416 -82 416 -82 352 -53 c 1,0,1
8 35 m 0,14,15
 78 36 78 36 128 35 c 0,16,17
 204 32 204 32 258 21 c 0,18,19
 312 12 312 12 355 -6 c 1,20,21
 435 15 435 15 530 26 c 0,22,23
 601 36 601 36 658 36 c 0,24,25
 668 36 668 36 674.5 29.5 c 128,-1,26
 681 23 681 23 681 14 c 0,27,28
 681 4 681 4 674.5 -2.5 c 128,-1,29
 668 -9 668 -9 658 -9 c 0,30,31
 608 -9 608 -9 535 -18 c 0,32,33
 486 -24 486 -24 418 -37 c 1,34,35
 457 -61 457 -61 488 -99 c 0,36,37
 539 -160 539 -160 490 -220 c 0,38,39
 460 -257 460 -257 396 -272 c 0,40,41
 296 -295 296 -295 228 -264 c 0,42,43
 168 -238 168 -238 152 -185 c 0,44,45
 142 -151 142 -151 157 -118 c 0,46,47
 171 -90 171 -90 203 -69 c 0,48,49
 231 -48 231 -48 280 -29 c 1,50,-1
 250 -23 l 2,51,52
 196 -13 196 -13 126 -10 c 0,53,54
 78 -9 78 -9 9 -10 c 0,55,56
 -1 -10 -1 -10 -7.5 -3.5 c 128,-1,57
 -14 3 -14 3 -14 12 c 0,58,59
 -15 22 -15 22 -8.5 28.5 c 128,-1,60
 -2 35 -2 35 8 35 c 0,14,15
EndSplineSet
Validated: 33
EndChar

StartChar: N
Encoding: 78 78 102
Width: 582
Flags: W
LayerCount: 2
Fore
SplineSet
1 47 m 0,0,1
 79 48 79 48 104 54 c 0,2,3
 139 62 139 62 171 90 c 0,4,5
 178 96 178 96 195 121 c 0,6,7
 201 129 201 129 204 134 c 0,8,9
 207 138 207 138 213 147.5 c 128,-1,10
 219 157 219 157 222 161 c 0,11,12
 226 169 226 169 234 181 c 2,13,-1
 238 187 l 1,14,-1
 241 190 l 1,15,-1
 244 193 l 2,16,17
 248 195 248 195 249 195 c 0,18,19
 254 198 254 198 261 196 c 0,20,21
 270 194 270 194 276 187 c 0,22,23
 279 181 279 181 279 177 c 2,24,-1
 279 170 l 2,25,26
 279 169 279 169 278 168 c 2,27,-1
 278 166 l 2,28,29
 277 163 277 163 268 145 c 0,30,31
 262 133 262 133 261 130 c 0,32,33
 251 112 251 112 249 103 c 0,34,35
 241 79 241 79 257 68 c 0,36,37
 281 51 281 51 297 55 c 0,38,39
 309 58 309 58 318 74 c 0,40,41
 341 114 341 114 334 169 c 0,42,43
 334 179 334 179 325 199 c 0,44,45
 314 222 314 222 297 244 c 0,46,47
 286 260 286 260 270 277 c 0,48,49
 267 281 267 281 261 287 c 0,50,51
 259 289 259 289 259 290 c 1,52,-1
 258 290 l 1,53,54
 244 304 244 304 256 320 c 0,55,56
 278 347 278 347 305 371 c 0,57,58
 330 393 330 393 358 414 c 0,59,60
 361 417 361 417 362 417 c 0,61,62
 407 453 407 453 422 468 c 0,63,64
 454 495 454 495 471 524 c 0,65,66
 484 542 484 542 503 530 c 0,67,68
 511 525 511 525 512.5 516 c 128,-1,69
 514 507 514 507 509 499 c 0,70,71
 488 467 488 467 453 435 c 0,72,73
 428 411 428 411 390 382 c 2,74,-1
 386 379 l 2,75,76
 345 346 345 346 335 337 c 0,77,78
 319 324 319 324 304 307 c 1,79,80
 324 283 324 283 334 270 c 0,81,82
 354 244 354 244 366 218 c 0,83,84
 378 191 378 191 379 173 c 0,85,86
 386 101 386 101 357 52 c 0,87,88
 337 17 337 17 304.5 10.5 c 128,-1,89
 272 4 272 4 232 30 c 0,90,91
 213 44 213 44 206 61 c 1,92,93
 204 60 204 60 201 57 c 0,94,95
 159 21 159 21 114 11 c 0,96,97
 80 3 80 3 1 2 c 0,98,99
 -8 2 -8 2 -14.5 8 c 128,-1,100
 -21 14 -21 14 -21 24 c 0,101,102
 -22 33 -22 33 -15.5 40 c 128,-1,103
 -9 47 -9 47 1 47 c 0,0,1
EndSplineSet
Validated: 33
EndChar

StartChar: O
Encoding: 79 79 103
Width: 274
Flags: W
LayerCount: 2
Fore
SplineSet
102 584 m 0,0,1
 107 586 107 586 116 586 c 0,2,3
 147 582 147 582 170 559 c 128,-1,4
 193 536 193 536 201 503 c 0,5,6
 209 468 209 468 196.5 438 c 128,-1,7
 184 408 184 408 152 395 c 0,8,9
 100 373 100 373 55 398 c 0,10,11
 16 420 16 420 2 464 c 0,12,13
 -11 510 -11 510 12 544 c 0,14,15
 35 573 35 573 74 576 c 1,16,17
 83 590 83 590 98 585 c 0,18,19
 100 585 100 585 102 584 c 0,0,1
97 531 m 0,20,21
 62 535 62 535 49 517 c 0,22,23
 38 503 38 503 45 477 c 0,24,25
 55 449 55 449 77 437 c 0,26,27
 102 423 102 423 134 436 c 0,28,29
 168 450 168 450 158 493 c 0,30,31
 148 532 148 532 117 540 c 1,32,33
 110 531 110 531 97 531 c 0,20,21
EndSplineSet
Validated: 33
EndChar

StartChar: Q
Encoding: 81 81 104
Width: 516
Flags: W
LayerCount: 2
Fore
SplineSet
314 -8 m 1,0,1
 339 63 339 63 347 96 c 0,2,3
 354 130 354 130 353 143 c 0,4,5
 353 152 353 152 352 155 c 0,6,7
 352 156 352 156 352 157 c 2,8,-1
 351 158 l 2,9,10
 351 159 351 159 350 159 c 2,11,-1
 349 159 l 2,12,13
 348 160 348 160 344 159 c 0,14,15
 333 157 333 157 318 149 c 0,16,17
 282 125 282 125 253 87 c 0,18,19
 223 44 223 44 221 15 c 0,20,21
 219 -11 219 -11 249 -18 c 0,22,23
 283 -28 283 -28 314 -8 c 1,0,1
-7 38 m 0,24,25
 10 38 10 38 35 83 c 0,26,27
 39 89 39 89 54 117.5 c 128,-1,28
 69 146 69 146 71 149 c 0,29,30
 107 213 107 213 139 241 c 0,31,32
 201 297 201 297 266 324 c 0,33,34
 341 354 341 354 400 329 c 0,35,36
 422 319 422 319 434 291 c 0,37,38
 443 267 443 267 446 235 c 0,39,40
 451 171 451 171 429 98 c 0,41,42
 404 16 404 16 362 -25 c 0,43,44
 359 -29 359 -29 351 -35 c 1,45,46
 348 -47 348 -47 344 -54 c 0,47,48
 340 -69 340 -69 332 -84 c 0,49,50
 322 -118 322 -118 310 -141 c 0,51,52
 292 -189 292 -189 291 -191 c 0,53,54
 271 -242 271 -242 270 -259 c 0,55,56
 268 -269 268 -269 261 -274.5 c 128,-1,57
 254 -280 254 -280 245 -279 c 128,-1,58
 236 -278 236 -278 230 -271 c 128,-1,59
 224 -264 224 -264 225 -254 c 0,60,61
 228 -231 228 -231 249 -175 c 0,62,63
 255 -157 255 -157 268 -124 c 0,64,65
 269 -122 269 -122 273.5 -111 c 128,-1,66
 278 -100 278 -100 283.5 -86 c 128,-1,67
 289 -72 289 -72 291 -68 c 0,68,69
 291 -66 291 -66 292 -65 c 1,70,71
 265 -69 265 -69 237 -62 c 0,72,73
 173 -44 173 -44 176 17 c 0,74,75
 177 60 177 60 217 114 c 0,76,77
 250 158 250 158 295 187 c 0,78,79
 319 201 319 201 338 204 c 0,80,81
 366 207 366 207 382 191 c 0,82,83
 394 179 394 179 397 160 c 1,84,85
 403 196 403 196 401 232 c 0,86,87
 399 258 399 258 392 273 c 0,88,89
 388 285 388 285 382 287 c 0,90,91
 342 305 342 305 286 284 c 128,-1,92
 230 263 230 263 169 208 c 0,93,94
 142 184 142 184 110 127 c 0,95,96
 108 124 108 124 101 110.5 c 128,-1,97
 94 97 94 97 85 80.5 c 128,-1,98
 76 64 76 64 74 60 c 0,99,100
 58 32 58 32 42 16 c 0,101,102
 20 -6 20 -6 -6 -7 c 0,103,104
 -15 -7 -15 -7 -22 -0.5 c 128,-1,105
 -29 6 -29 6 -29 15 c 0,106,107
 -29 25 -29 25 -22.5 31.5 c 128,-1,108
 -16 38 -16 38 -7 38 c 0,24,25
EndSplineSet
Validated: 33
EndChar

StartChar: U
Encoding: 85 85 105
Width: 727
Flags: W
LayerCount: 2
Fore
SplineSet
-1 50 m 0,0,1
 38 50 38 50 91 81.5 c 128,-1,2
 144 113 144 113 195 166 c 0,3,4
 222 193 222 193 243 222 c 1,5,-1
 248 242 l 2,6,7
 248 244 248 244 249.5 248.5 c 128,-1,8
 251 253 251 253 253.5 261.5 c 128,-1,9
 256 270 256 270 259 279 c 1,10,-1
 260 280 l 1,11,12
 262 288 262 288 268 304 c 0,13,14
 268 307 268 307 270 311 c 2,15,-1
 270 312 l 1,16,-1
 271 314 l 2,17,18
 275 326 275 326 287.5 329 c 128,-1,19
 300 332 300 332 308 323 c 0,20,21
 325 307 325 307 320 279 c 0,22,23
 317 263 317 263 304 234 c 0,24,25
 292 214 292 214 285 204 c 1,26,27
 283 194 283 194 282 191 c 0,28,29
 276 162 276 162 273 137 c 0,30,31
 269 100 269 100 275 77 c 0,32,33
 281 59 281 59 295 56 c 0,34,35
 330 50 330 50 361.5 83 c 128,-1,36
 393 116 393 116 422 187 c 0,37,38
 438 228 438 228 451 268 c 0,39,40
 460 294 460 294 462 301 c 0,41,42
 467 316 467 316 471 324 c 0,43,44
 472 327 472 327 476 331 c 0,45,46
 488 343 488 343 503 335 c 0,47,48
 511 331 511 331 514 322 c 128,-1,49
 517 313 517 313 513 305 c 0,50,51
 507 294 507 294 505 286 c 0,52,53
 494 246 494 246 496 190 c 0,54,55
 496 152 496 152 502 127 c 0,56,57
 504 114 504 114 508 106 c 0,58,59
 509 103 509 103 511 99 c 2,60,-1
 512 97 l 1,61,62
 532 77 532 77 560 64 c 0,63,64
 590 52 590 52 634 54 c 0,65,66
 643 55 643 55 650 48.5 c 128,-1,67
 657 42 657 42 658 33 c 0,68,69
 658 11 658 11 636 9 c 0,70,71
 544 4 544 4 481 65 c 0,72,73
 459 85 459 85 453 146 c 1,74,75
 426 88 426 88 398 57 c 0,76,77
 349 2 349 2 287 12 c 0,78,79
 245 18 245 18 232 64 c 0,80,81
 224 91 224 91 227 134 c 1,82,83
 173 78 173 78 118 45 c 0,84,85
 53 5 53 5 -1 5 c 0,86,87
 -10 5 -10 5 -16.5 11.5 c 128,-1,88
 -23 18 -23 18 -23 27 c 0,89,90
 -23 37 -23 37 -16.5 43.5 c 128,-1,91
 -10 50 -10 50 -1 50 c 0,0,1
EndSplineSet
Validated: 33
EndChar

StartChar: V
Encoding: 86 86 106
Width: 868
Flags: W
LayerCount: 2
Fore
SplineSet
313 337 m 0,0,1
 313 274 313 274 299 257 c 1,2,-1
 298 255 l 1,3,-1
 297 254 l 1,4,-1
 296 253 l 2,5,6
 296 252 296 252 296 251 c 0,7,8
 269 158 269 158 265 111 c 0,9,10
 259 70 259 70 267 57 c 2,11,-1
 268 56 l 1,12,-1
 269 56 l 2,13,14
 270 56 270 56 274 58 c 0,15,16
 290 62 290 62 317 88 c 0,17,18
 373 140 373 140 422 220 c 0,19,20
 445 257 445 257 457 285 c 0,21,22
 463 304 463 304 464 309 c 0,23,24
 465 311 465 311 465 315 c 2,25,-1
 465 321 l 2,26,27
 463 342 463 342 483 346 c 0,28,29
 505 351 505 351 510 328 c 0,30,31
 510 327 510 327 510.5 323.5 c 128,-1,32
 511 320 511 320 511 318 c 0,33,34
 519 277 519 277 513 254 c 0,35,36
 512 246 512 246 506 232 c 0,37,38
 504 230 504 230 501.5 225 c 128,-1,39
 499 220 499 220 497 218 c 0,40,41
 491 211 491 211 488 202 c 0,42,43
 482 177 482 177 480 171 c 0,44,45
 472 141 472 141 467 118 c 0,46,47
 467 117 467 117 466.5 115 c 128,-1,48
 466 113 466 113 466 111 c 0,49,50
 460 72 460 72 465 57 c 1,51,52
 474 61 474 61 489 74 c 0,53,54
 509 93 509 93 532 123 c 0,55,56
 556 153 556 153 578 189 c 1,57,58
 581 207 581 207 587 224 c 0,59,60
 591 240 591 240 609 284 c 0,61,62
 612 292 612 292 624 322 c 0,63,64
 626 324 626 324 628 329 c 128,-1,65
 630 334 630 334 631 335 c 0,66,67
 633 338 633 338 637 342 c 0,68,69
 640 347 640 347 647 348 c 0,70,71
 659 351 659 351 670 342 c 0,72,73
 680 332 680 332 680 315 c 0,74,75
 680 304 680 304 677 289 c 0,76,77
 669 264 669 264 653 230 c 0,78,79
 644 212 644 212 622 174 c 1,80,81
 621 152 621 152 627 131 c 0,82,83
 638 101 638 101 667 80 c 0,84,85
 695 59 695 59 727 50 c 0,86,87
 754 41 754 41 775 41 c 0,88,89
 785 42 785 42 791.5 35.5 c 128,-1,90
 798 29 798 29 799 19 c 0,91,92
 799 10 799 10 792.5 3.5 c 128,-1,93
 786 -3 786 -3 777 -4 c 0,94,95
 749 -6 749 -6 713 7 c 0,96,97
 673 19 673 19 640 44 c 0,98,99
 600 75 600 75 585 116 c 1,100,-1
 584 117 l 1,101,102
 582 113 582 113 576 106 c 128,-1,103
 570 99 570 99 568 95 c 0,104,105
 508 19 508 19 471 12 c 0,106,107
 435 4 435 4 422 41 c 0,108,109
 413 68 413 68 422 118 c 0,110,111
 422 123 422 123 423 126 c 0,112,113
 425 140 425 140 427 147 c 1,114,115
 385 91 385 91 348 55 c 0,116,117
 315 25 315 25 289 15 c 0,118,119
 249 0 249 0 229 33 c 0,120,121
 210 65 210 65 225 149 c 1,122,123
 223 147 223 147 219.5 142.5 c 128,-1,124
 216 138 216 138 214 136 c 0,125,126
 168 77 168 77 117 43 c 0,127,128
 57 3 57 3 -1 4 c 0,129,130
 -10 5 -10 5 -16.5 11.5 c 128,-1,131
 -23 18 -23 18 -23 28 c 0,132,133
 -22 37 -22 37 -15.5 43.5 c 128,-1,134
 -9 50 -9 50 1 49 c 0,135,136
 85 46 85 46 179 164 c 0,137,138
 220 216 220 216 243 264 c 128,-1,139
 266 312 266 312 266 337 c 0,140,141
 266 347 266 347 272.5 353.5 c 128,-1,142
 279 360 279 360 288 360 c 2,143,-1
 290 360 l 1,144,-1
 291 360 l 2,145,146
 300 360 300 360 306.5 353.5 c 128,-1,147
 313 347 313 347 313 337 c 0,0,1
EndSplineSet
Validated: 33
EndChar

StartChar: X
Encoding: 88 88 107
Width: 764
Flags: W
LayerCount: 2
Fore
SplineSet
0 42 m 0,0,1
 45 42 45 42 101 86 c 0,2,3
 137 114 137 114 207 188 c 0,4,5
 213 197 213 197 232 216 c 0,6,7
 249 235 249 235 257 242 c 0,8,9
 285 273 285 273 307 291 c 0,10,11
 364 343 364 343 414 349 c 0,12,13
 452 353 452 353 473 317 c 0,14,15
 483 300 483 300 495 251 c 0,16,17
 495 244 495 244 502 219 c 0,18,19
 503 216 503 216 505.5 204 c 128,-1,20
 508 192 508 192 510 186 c 0,21,22
 528 126 528 126 558 96 c 0,23,24
 598 56 598 56 672 56 c 0,25,26
 682 56 682 56 688.5 49.5 c 128,-1,27
 695 43 695 43 695 34 c 0,28,29
 695 24 695 24 688.5 17.5 c 128,-1,30
 682 11 682 11 672 11 c 0,31,32
 582 11 582 11 527 64 c 0,33,34
 489 101 489 101 467 174 c 0,35,36
 461 196 461 196 458 209 c 0,37,38
 451 234 451 234 451 241 c 0,39,40
 443 279 443 279 434 294 c 0,41,42
 428 305 428 305 419 304 c 0,43,44
 385 300 385 300 336 258 c 0,45,46
 315 239 315 239 289 211 c 0,47,48
 283 205 283 205 265 185 c 0,49,50
 244 164 244 164 240 158 c 0,51,52
 174 86 174 86 129 50 c 0,53,54
 59 -3 59 -3 0 -3 c 0,55,56
 -9 -3 -9 -3 -16 3.5 c 128,-1,57
 -23 10 -23 10 -23 19 c 0,58,59
 -23 29 -23 29 -16.5 35.5 c 128,-1,60
 -10 42 -10 42 0 42 c 0,0,1
EndSplineSet
Validated: 33
EndChar

StartChar: Z
Encoding: 90 90 108
Width: 724
Flags: W
LayerCount: 2
Fore
SplineSet
525 312 m 0,0,1
 450 245 450 245 424 153 c 0,2,3
 411 110 411 110 417 82 c 0,4,5
 422 56 422 56 439 44 c 1,6,-1
 441 44 l 2,7,8
 448 44 448 44 461 47 c 0,9,10
 465 48 465 48 475 49.5 c 128,-1,11
 485 51 485 51 491 52 c 0,12,13
 510 57 510 57 526 59 c 0,14,15
 531 60 531 60 564 66 c 0,16,17
 604 74 604 74 630 75 c 0,18,19
 652 75 652 75 654 53 c 0,20,21
 655 44 655 44 648.5 37 c 128,-1,22
 642 30 642 30 633 30 c 0,23,24
 613 29 613 29 572 22 c 0,25,26
 543 17 543 17 535 15 c 0,27,28
 532 14 532 14 499 8 c 0,29,30
 492 6 492 6 482 4.5 c 128,-1,31
 472 3 472 3 468 2 c 0,32,33
 453 -1 453 -1 443 -1 c 0,34,35
 426 -1 426 -1 417 4 c 0,36,37
 380 28 380 28 372 75 c 0,38,39
 366 115 366 115 380 166 c 0,40,41
 382 170 382 170 384 177.5 c 128,-1,42
 386 185 386 185 388 189 c 1,43,44
 378 181 378 181 374 177 c 0,45,46
 240 64 240 64 133 21 c 0,47,48
 60 -9 60 -9 -4 -8 c 0,49,50
 -13 -8 -13 -8 -19.5 -1 c 128,-1,51
 -26 6 -26 6 -26 15 c 0,52,53
 -24 37 -24 37 -3 37 c 0,54,55
 52 36 52 36 116 63 c 0,56,57
 213 101 213 101 345 211 c 0,58,59
 361 224 361 224 390.5 251 c 128,-1,60
 420 278 420 278 433 289 c 0,61,62
 472 328 472 328 502 353 c 0,63,64
 518 369 518 369 533 352 c 0,65,66
 549 336 549 336 532 320 c 2,67,-1
 531 319 l 2,68,69
 530 318 530 318 529 318 c 0,70,71
 527 314 527 314 525 312 c 0,0,1
EndSplineSet
Validated: 33
EndChar
